<?xml version="1.0" encoding="UTF-8"?>
<svg width="97px" height="40px" viewBox="0 0 97 40" version="1.1" xmlns="http://www.w3.org/2000/svg" xmlns:xlink="http://www.w3.org/1999/xlink">
    <!-- Generator: Sketch 46.2 (44496) - http://www.bohemiancoding.com/sketch -->
    <title>footer_sns_icons</title>
    <desc>Created with Sketch.</desc>
    <defs></defs>
    <g id="Symbols" stroke="none" stroke-width="1" fill="none" fill-rule="evenodd">
        <g id="footer_sns_icons">
            <g id="footericon">
                <g id="basic">
                    <g id="footer_link_tstory" transform="translate(21.000000, 0.000000)">
                        <rect x="0" y="0" width="21" height="20"></rect>
                        <path d="M10,20 C4.4771525,20 0,15.5228475 0,10 C0,4.4771525 4.4771525,0 10,0 C15.5228475,0 20,4.4771525 20,10 C20,15.5228475 15.5228475,20 10,20 Z M5.33333333,8.66666667 C6.43790283,8.66666667 7.33333333,7.77123617 7.33333333,6.66666667 C7.33333333,5.56209717 6.43790283,4.66666667 5.33333333,4.66666667 C4.22876383,4.66666667 3.33333333,5.56209717 3.33333333,6.66666667 C3.33333333,7.77123617 4.22876383,8.66666667 5.33333333,8.66666667 Z M10,8.66666667 C11.1045695,8.66666667 12,7.77123617 12,6.66666667 C12,5.56209717 11.1045695,4.66666667 10,4.66666667 C8.8954305,4.66666667 8,5.56209717 8,6.66666667 C8,7.77123617 8.8954305,8.66666667 10,8.66666667 Z M10,13.3333333 C11.1045695,13.3333333 12,12.4379028 12,11.3333333 C12,10.2287638 11.1045695,9.33333333 10,9.33333333 C8.8954305,9.33333333 8,10.2287638 8,11.3333333 C8,12.4379028 8.8954305,13.3333333 10,13.3333333 Z M10,18 C11.1045695,18 12,17.1045695 12,16 C12,14.8954305 11.1045695,14 10,14 C8.8954305,14 8,14.8954305 8,16 C8,17.1045695 8.8954305,18 10,18 Z M14.6666667,8.66666667 C15.7712362,8.66666667 16.6666667,7.77123617 16.6666667,6.66666667 C16.6666667,5.56209717 15.7712362,4.66666667 14.6666667,4.66666667 C13.5620972,4.66666667 12.6666667,5.56209717 12.6666667,6.66666667 C12.6666667,7.77123617 13.5620972,8.66666667 14.6666667,8.66666667 Z" fill="#989898"></path>
                    </g>
                    <g id="footer_link_facebook" transform="translate(42.000000, 0.000000)">
                        <rect x="0" y="0" width="13" height="20"></rect>
                        <path d="M1,7.30231002 L4.09375,7.30231002 L4.09375,4.44293502 L4.19921875,3.34137252 C4.2695316,2.60699385 4.65624648,1.88825104 5.359375,1.18512252 C6.07812859,0.46636893 6.92577637,0.0796540477 7.90234375,0.0249662742 C8.87891113,-0.0297214992 10.0468682,0.00543439925 11.40625,0.130435024 L11.40625,3.31793502 L9.390625,3.31793502 L8.921875,3.36481002 C8.60937344,3.39606018 8.35156352,3.52105893 8.1484375,3.73981002 C7.96093656,3.9741862 7.85546887,4.2241837 7.83203125,4.48981002 C7.80859363,4.75543635 7.796875,4.92730963 7.796875,5.00543502 L7.796875,7.30231002 L11.2890625,7.30231002 L10.84375,10.8413725 L7.7734375,10.8413725 L7.7734375,19.9819975 L4.09375,19.9819975 L4.09375,10.8413725 L1,10.8413725 L1,7.30231002 Z" fill="#989898"></path>
                    </g>
                    <g id="footer_link_company">
                        <rect x="0" y="0" width="21" height="20"></rect>
                        <polygon fill="#989898" points="10.0078125 1 0 8.9921875 1.265625 10.5625 2.015625 9.953125 2.015625 19 8.015625 19 8.015625 12.015625 12 12.015625 12 19 18 19 18 9.953125 18.75 10.5625 20.015625 8.9921875"></polygon>
                    </g>
                    <g id="footer_link_twitter" transform="translate(55.000000, 0.000000)">
                        <rect x="0" y="0" width="21" height="20"></rect>
                        <path d="M0.876104221,7.72747694 L0.8203125,7.73280813 C0.8203125,7.73199288 0.8203125,7.73121309 0.8203125,7.73046875 L0.8203125,7.6953125 C0.838796272,7.70618531 0.857393511,7.71690679 0.876104221,7.72747694 Z M0.8203125,7.73280813 L0.876104221,7.72747694 C1.12628112,7.8688082 1.39674405,7.98308572 1.6875,8.0703125 C2.00000156,8.16406297 2.32812328,8.2109375 2.671875,8.2109375 C2.12499727,7.8515607 1.68359543,7.37109676 1.34765625,6.76953125 C1.01171707,6.16796574 0.84375,5.51562852 0.84375,4.8125 C0.84375,4.43749813 0.890624531,4.07422051 0.984375,3.72265625 C1.07812547,3.37109199 1.21874906,3.04687648 1.40625,2.75 C1.9062525,3.35937805 2.46874687,3.91796621 3.09375,4.42578125 C3.71875313,4.93359629 4.39062141,5.37499813 5.109375,5.75 C5.82812859,6.12500187 6.58593352,6.42187391 7.3828125,6.640625 C8.17969148,6.85937609 9.0078082,6.99218727 9.8671875,7.0390625 C9.82031227,6.88281172 9.78906258,6.72656328 9.7734375,6.5703125 C9.75781242,6.41406172 9.75,6.25781328 9.75,6.1015625 C9.75,4.9609318 10.1523397,3.99219148 10.9570312,3.1953125 C11.7617228,2.39843352 12.7265569,2 13.8515625,2 C14.4453155,2 14.9999974,2.11328012 15.515625,2.33984375 C16.0312526,2.56640738 16.4765606,2.88281047 16.8515625,3.2890625 C17.3203148,3.19531203 17.7734353,3.06250086 18.2109375,2.890625 C18.6484397,2.71874914 19.062498,2.51562617 19.453125,2.28125 C19.2968742,2.76562742 19.0625016,3.20312305 18.75,3.59375 C18.4374984,3.98437695 18.0703146,4.30468625 17.6484375,4.5546875 C18.0703146,4.50781227 18.4765605,4.42968805 18.8671875,4.3203125 C19.2578145,4.21093695 19.6406231,4.07812578 20.015625,3.921875 C19.7343736,4.32812703 19.4218767,4.7109357 19.078125,5.0703125 C18.7343733,5.4296893 18.359377,5.74999859 17.953125,6.03125 C17.9687501,6.12500047 17.9765625,6.21484332 17.9765625,6.30078125 L17.9765625,6.5703125 C17.9765625,7.9296943 17.7226588,9.30077434 17.2148438,10.6835938 C16.7070287,12.0664132 15.9570362,13.3164007 14.9648438,14.4335938 C13.9726513,15.5507868 12.7500073,16.4648402 11.296875,17.1757812 C9.84374273,17.8867223 8.17969687,18.2421875 6.3046875,18.2421875 C5.14843172,18.2421875 4.0351616,18.0820329 2.96484375,17.7617188 C1.8945259,17.4414046 0.906254531,16.984378 0,16.390625 C0.171875859,16.4218752 0.335936719,16.4414062 0.4921875,16.4492188 C0.648438281,16.4570313 0.812499141,16.4609375 0.984375,16.4609375 C1.95312984,16.4609375 2.87108941,16.3046891 3.73828125,15.9921875 C4.60547309,15.6796859 5.39062148,15.2500027 6.09375,14.703125 C5.18749547,14.6874999 4.38672223,14.4101589 3.69140625,13.8710938 C2.99609027,13.3320286 2.51562633,12.6562541 2.25,11.84375 C2.37500062,11.8750002 2.49999938,11.8945312 2.625,11.9023438 C2.75000062,11.9101563 2.8828118,11.9140625 3.0234375,11.9140625 C3.21093844,11.9140625 3.39453035,11.9023439 3.57421875,11.8789062 C3.75390715,11.8554686 3.92968664,11.8203127 4.1015625,11.7734375 C3.16405781,11.5859366 2.38281563,11.1171913 1.7578125,10.3671875 C1.13280937,9.61718375 0.8203125,8.75000492 0.8203125,7.765625 C0.8203125,7.7514886 0.8203125,7.74054973 0.8203125,7.73280813 Z" fill="#989898"></path>
                    </g>
                    <g id="footer_link_instagram" transform="translate(76.000000, 0.000000)">
                        <rect x="0" y="0" width="21" height="20"></rect>
                        <path d="M10.0078125,1.78125 C8.67968086,1.78125 7.80468961,1.79296863 7.3828125,1.81640625 C6.96093539,1.83984387 6.48437766,1.8515625 5.953125,1.8515625 C5.48437266,1.86718758 5.10156398,1.91796832 4.8046875,2.00390625 C4.50781102,2.08984418 4.27343836,2.17187461 4.1015625,2.25 C3.85156125,2.31250031 3.64062586,2.39843695 3.46875,2.5078125 C3.29687414,2.61718805 3.12500086,2.76562406 2.953125,2.953125 C2.8124993,3.12500086 2.67968812,3.30078035 2.5546875,3.48046875 C2.42968688,3.66015715 2.32812539,3.86718633 2.25,4.1015625 C2.15624953,4.27343836 2.0742191,4.5039048 2.00390625,4.79296875 C1.9335934,5.0820327 1.88281266,5.46874758 1.8515625,5.953125 C1.83593742,6.46875258 1.82421879,6.9414041 1.81640625,7.37109375 C1.80859371,7.8007834 1.8046875,8.67186844 1.8046875,9.984375 C1.8046875,11.3125066 1.80859371,12.1914041 1.81640625,12.6210938 C1.82421879,13.0507834 1.83593742,13.5234349 1.8515625,14.0390625 C1.88281266,14.5234399 1.94140582,14.9101548 2.02734375,15.1992188 C2.11328168,15.4882827 2.18749969,15.7187491 2.25,15.890625 C2.32812539,16.1406262 2.42187445,16.3515616 2.53125,16.5234375 C2.64062555,16.6953134 2.78124914,16.8671866 2.953125,17.0390625 C3.12500086,17.1953133 3.30468656,17.3320307 3.4921875,17.4492188 C3.67968844,17.5664068 3.88281141,17.6640621 4.1015625,17.7421875 C4.27343836,17.835938 4.50781102,17.9179684 4.8046875,17.9882812 C5.10156398,18.0585941 5.48437266,18.09375 5.953125,18.09375 C6.48437766,18.1250002 6.96093539,18.140625 7.3828125,18.140625 L12.6328125,18.140625 C13.0546896,18.140625 13.5312473,18.1250002 14.0625,18.09375 C14.5312523,18.0624998 14.914061,18.0078129 15.2109375,17.9296875 C15.507814,17.8515621 15.7421866,17.7890627 15.9140625,17.7421875 C16.1640637,17.6640621 16.3749991,17.570313 16.546875,17.4609375 C16.7187509,17.351562 16.8906241,17.2109384 17.0625,17.0390625 C17.2031257,16.8671866 17.3359369,16.6875009 17.4609375,16.5 C17.5859381,16.3124991 17.6874996,16.1093761 17.765625,15.890625 C17.8593755,15.7187491 17.9414059,15.4882827 18.0117188,15.1992188 C18.0820316,14.9101548 18.1171875,14.5234399 18.1171875,14.0390625 C18.1328126,13.5234349 18.1445312,13.0507834 18.1523438,12.6210938 C18.1601563,12.1914041 18.1640625,11.3125066 18.1640625,9.984375 C18.1640625,8.67186844 18.1601563,7.8007834 18.1523438,7.37109375 C18.1445312,6.9414041 18.1328126,6.46875258 18.1171875,5.953125 C18.0859373,5.46874758 18.0312504,5.0820327 17.953125,4.79296875 C17.8749996,4.5039048 17.8125002,4.27343836 17.765625,4.1015625 C17.6874996,3.85156125 17.5937505,3.64062586 17.484375,3.46875 C17.3749995,3.29687414 17.2343759,3.12500086 17.0625,2.953125 C16.8906241,2.79687422 16.7109384,2.65625062 16.5234375,2.53125 C16.3359366,2.40624938 16.1328136,2.31250031 15.9140625,2.25 C15.7421866,2.14062445 15.507814,2.0507816 15.2109375,1.98046875 C14.914061,1.9101559 14.5312523,1.86718758 14.0625,1.8515625 C13.5312473,1.82031234 13.0546896,1.80078129 12.6328125,1.79296875 C12.2109354,1.78515621 11.3359441,1.78125 10.0078125,1.78125 Z M12.6679688,0 C13.0976584,0 13.5781223,0.0156248437 14.109375,0.046875 C14.6406277,0.0625000781 15.1054668,0.117187031 15.5039062,0.2109375 C15.9023457,0.304687969 16.2499985,0.398437031 16.546875,0.4921875 C16.8750016,0.648438281 17.1914047,0.804686719 17.4960938,0.9609375 C17.8007828,1.11718828 18.0859362,1.34374852 18.3515625,1.640625 C18.6328139,1.93750148 18.8593741,2.2304673 19.03125,2.51953125 C19.2031259,2.8085952 19.3593743,3.11718586 19.5,3.4453125 C19.6250006,3.77343914 19.7265621,4.13281055 19.8046875,4.5234375 C19.8828129,4.91406445 19.9374998,5.36718492 19.96875,5.8828125 C19.9843751,6.41406516 19.9960937,6.8945291 20.0039062,7.32421875 C20.0117188,7.7539084 20.015625,8.64061828 20.015625,9.984375 C20.015625,11.3437568 20.0117188,12.2382791 20.0039062,12.6679688 C19.9960937,13.0976584 19.9843751,13.5703099 19.96875,14.0859375 C19.9374998,14.6171902 19.8789067,15.0859355 19.7929688,15.4921875 C19.7070308,15.8984395 19.6093755,16.2499985 19.5,16.546875 C19.3749994,16.8906267 19.2226571,17.2070298 19.0429688,17.4960938 C18.8632804,17.7851577 18.6328139,18.0703111 18.3515625,18.3515625 C18.054686,18.6171888 17.7617202,18.8359366 17.4726562,19.0078125 C17.1835923,19.1796884 16.8750016,19.3437492 16.546875,19.5 C16.2343734,19.6250006 15.8828145,19.7226559 15.4921875,19.7929688 C15.1015605,19.8632816 14.6406277,19.9140623 14.109375,19.9453125 C13.5781223,19.9609376 13.0976584,19.9726562 12.6679688,19.9804688 C12.2382791,19.9882813 11.3515692,19.9921875 10.0078125,19.9921875 C8.66405578,19.9921875 7.7773459,19.9882813 7.34765625,19.9804688 C6.9179666,19.9726562 6.43750266,19.9609376 5.90625,19.9453125 C5.37499734,19.9140623 4.91015824,19.8554692 4.51171875,19.7695312 C4.11327926,19.6835933 3.76562648,19.5937505 3.46875,19.5 C3.1093732,19.3749994 2.7851577,19.2187509 2.49609375,19.03125 C2.2070298,18.8437491 1.92968883,18.6171888 1.6640625,18.3515625 C1.38281109,18.0390609 1.15625086,17.7421889 0.984375,17.4609375 C0.812499141,17.1796861 0.656250703,16.8750016 0.515625,16.546875 C0.390624375,16.2187484 0.289062891,15.859377 0.2109375,15.46875 C0.132812109,15.078123 0.0781251563,14.6171902 0.046875,14.0859375 C0.0312499219,13.5703099 0.0195312891,13.0976584 0.01171875,12.6679688 C0.00390621094,12.2382791 0,11.3437568 0,9.984375 C0,8.64061828 0.00390621094,7.7539084 0.01171875,7.32421875 C0.0195312891,6.8945291 0.0312499219,6.41406516 0.046875,5.8828125 C0.0781251563,5.36718492 0.13671832,4.90625203 0.22265625,4.5 C0.30859418,4.09374797 0.406249453,3.74218898 0.515625,3.4453125 C0.656250703,3.11718586 0.812499141,2.80468898 0.984375,2.5078125 C1.15625086,2.21093602 1.38281109,1.92187641 1.6640625,1.640625 C1.92968883,1.35937359 2.21484223,1.13671957 2.51953125,0.97265625 C2.82422027,0.80859293 3.14062336,0.648438281 3.46875,0.4921875 C3.78125156,0.367186875 4.13281055,0.265625391 4.5234375,0.1875 C4.91406445,0.109374609 5.37499734,0.0625000781 5.90625,0.046875 C6.43750266,0.0156248437 6.9179666,0 7.34765625,0 L12.6679688,0 Z M10.0078125,4.8984375 C10.7265661,4.8984375 11.3945282,5.03124867 12.0117188,5.296875 C12.6289093,5.56250133 13.1679664,5.92187273 13.6289062,6.375 C14.0898461,6.82812727 14.4531237,7.36718437 14.71875,7.9921875 C14.9843763,8.61719063 15.1171875,9.28124648 15.1171875,9.984375 C15.1171875,10.7031286 14.9843763,11.3710907 14.71875,11.9882812 C14.4531237,12.6054718 14.0898461,13.1445289 13.6289062,13.6054688 C13.1679664,14.0664086 12.6289093,14.4296862 12.0117188,14.6953125 C11.3945282,14.9609388 10.7265661,15.09375 10.0078125,15.09375 C9.28905891,15.09375 8.62109684,14.9609388 8.00390625,14.6953125 C7.38671566,14.4296862 6.84765855,14.0625023 6.38671875,13.59375 C5.92577895,13.1249977 5.56250133,12.5820343 5.296875,11.9648438 C5.03124867,11.3476532 4.8984375,10.6875035 4.8984375,9.984375 C4.8984375,9.29687156 5.03124867,8.64062813 5.296875,8.015625 C5.56250133,7.39062187 5.92577895,6.84765855 6.38671875,6.38671875 C6.84765855,5.92577895 7.38671566,5.56250133 8.00390625,5.296875 C8.62109684,5.03124867 9.28905891,4.8984375 10.0078125,4.8984375 Z M10.0078125,13.3359375 C10.9296921,13.3359375 11.7187467,13.011722 12.375,12.3632812 C13.0312533,11.7148405 13.359375,10.9218797 13.359375,9.984375 C13.359375,9.06249539 13.0312533,8.27344078 12.375,7.6171875 C11.7187467,6.96093422 10.9296921,6.6328125 10.0078125,6.6328125 C9.08593289,6.6328125 8.29687828,6.96093422 7.640625,7.6171875 C6.98437172,8.27344078 6.65625,9.06249539 6.65625,9.984375 C6.65625,10.9218797 6.98437172,11.7148405 7.640625,12.3632812 C8.29687828,13.011722 9.08593289,13.3359375 10.0078125,13.3359375 Z M16.546875,4.640625 C16.546875,4.96875164 16.4296887,5.24999883 16.1953125,5.484375 C15.9609363,5.71875117 15.6796891,5.8359375 15.3515625,5.8359375 C15.0234359,5.8359375 14.7421887,5.71875117 14.5078125,5.484375 C14.2734363,5.24999883 14.15625,4.96875164 14.15625,4.640625 C14.15625,4.31249836 14.2734363,4.03125117 14.5078125,3.796875 C14.7421887,3.56249883 15.0234359,3.4453125 15.3515625,3.4453125 C15.6796891,3.4453125 15.9609363,3.56249883 16.1953125,3.796875 C16.4296887,4.03125117 16.546875,4.31249836 16.546875,4.640625 Z" fill="#989898"></path>
                    </g>
                </g>
                <g id="hover" transform="translate(0.000000, 20.000000)">
                    <g id="footer_link_tstory" transform="translate(21.000000, 0.000000)">
                        <rect x="0" y="0" width="21" height="20"></rect>
                        <path d="M10,20 C4.4771525,20 0,15.5228475 0,10 C0,4.4771525 4.4771525,0 10,0 C15.5228475,0 20,4.4771525 20,10 C20,15.5228475 15.5228475,20 10,20 Z M5.33333333,8.66666667 C6.43790283,8.66666667 7.33333333,7.77123617 7.33333333,6.66666667 C7.33333333,5.56209717 6.43790283,4.66666667 5.33333333,4.66666667 C4.22876383,4.66666667 3.33333333,5.56209717 3.33333333,6.66666667 C3.33333333,7.77123617 4.22876383,8.66666667 5.33333333,8.66666667 Z M10,8.66666667 C11.1045695,8.66666667 12,7.77123617 12,6.66666667 C12,5.56209717 11.1045695,4.66666667 10,4.66666667 C8.8954305,4.66666667 8,5.56209717 8,6.66666667 C8,7.77123617 8.8954305,8.66666667 10,8.66666667 Z M10,13.3333333 C11.1045695,13.3333333 12,12.4379028 12,11.3333333 C12,10.2287638 11.1045695,9.33333333 10,9.33333333 C8.8954305,9.33333333 8,10.2287638 8,11.3333333 C8,12.4379028 8.8954305,13.3333333 10,13.3333333 Z M10,18 C11.1045695,18 12,17.1045695 12,16 C12,14.8954305 11.1045695,14 10,14 C8.8954305,14 8,14.8954305 8,16 C8,17.1045695 8.8954305,18 10,18 Z M14.6666667,8.66666667 C15.7712362,8.66666667 16.6666667,7.77123617 16.6666667,6.66666667 C16.6666667,5.56209717 15.7712362,4.66666667 14.6666667,4.66666667 C13.5620972,4.66666667 12.6666667,5.56209717 12.6666667,6.66666667 C12.6666667,7.77123617 13.5620972,8.66666667 14.6666667,8.66666667 Z" fill="#F15200"></path>
                    </g>
                    <g id="footer_link_facebook" transform="translate(42.000000, 0.000000)">
                        <rect x="0" y="0" width="13" height="20"></rect>
                        <path d="M1,7.30231002 L4.09375,7.30231002 L4.09375,4.44293502 L4.19921875,3.34137252 C4.2695316,2.60699385 4.65624648,1.88825104 5.359375,1.18512252 C6.07812859,0.46636893 6.92577637,0.0796540477 7.90234375,0.0249662742 C8.87891113,-0.0297214992 10.0468682,0.00543439925 11.40625,0.130435024 L11.40625,3.31793502 L9.390625,3.31793502 L8.921875,3.36481002 C8.60937344,3.39606018 8.35156352,3.52105893 8.1484375,3.73981002 C7.96093656,3.9741862 7.85546887,4.2241837 7.83203125,4.48981002 C7.80859363,4.75543635 7.796875,4.92730963 7.796875,5.00543502 L7.796875,7.30231002 L11.2890625,7.30231002 L10.84375,10.8413725 L7.7734375,10.8413725 L7.7734375,19.9819975 L4.09375,19.9819975 L4.09375,10.8413725 L1,10.8413725 L1,7.30231002 Z" fill="#007BD2"></path>
                    </g>
                    <g id="footer_link_company">
                        <rect x="0" y="0" width="21" height="20"></rect>
                        <polygon fill="#FFFFFF" points="10.0078125 1 0 8.9921875 1.265625 10.5625 2.015625 9.953125 2.015625 19 8.015625 19 8.015625 12.015625 12 12.015625 12 19 18 19 18 9.953125 18.75 10.5625 20.015625 8.9921875"></polygon>
                    </g>
                    <g id="footer_link_twitter" transform="translate(55.000000, 0.000000)">
                        <rect x="0" y="0" width="21" height="20"></rect>
                        <path d="M0.876104221,7.72747694 L0.8203125,7.73280813 C0.8203125,7.73199288 0.8203125,7.73121309 0.8203125,7.73046875 L0.8203125,7.6953125 C0.838796272,7.70618531 0.857393511,7.71690679 0.876104221,7.72747694 Z M0.8203125,7.73280813 L0.876104221,7.72747694 C1.12628112,7.8688082 1.39674405,7.98308572 1.6875,8.0703125 C2.00000156,8.16406297 2.32812328,8.2109375 2.671875,8.2109375 C2.12499727,7.8515607 1.68359543,7.37109676 1.34765625,6.76953125 C1.01171707,6.16796574 0.84375,5.51562852 0.84375,4.8125 C0.84375,4.43749813 0.890624531,4.07422051 0.984375,3.72265625 C1.07812547,3.37109199 1.21874906,3.04687648 1.40625,2.75 C1.9062525,3.35937805 2.46874687,3.91796621 3.09375,4.42578125 C3.71875313,4.93359629 4.39062141,5.37499813 5.109375,5.75 C5.82812859,6.12500187 6.58593352,6.42187391 7.3828125,6.640625 C8.17969148,6.85937609 9.0078082,6.99218727 9.8671875,7.0390625 C9.82031227,6.88281172 9.78906258,6.72656328 9.7734375,6.5703125 C9.75781242,6.41406172 9.75,6.25781328 9.75,6.1015625 C9.75,4.9609318 10.1523397,3.99219148 10.9570312,3.1953125 C11.7617228,2.39843352 12.7265569,2 13.8515625,2 C14.4453155,2 14.9999974,2.11328012 15.515625,2.33984375 C16.0312526,2.56640738 16.4765606,2.88281047 16.8515625,3.2890625 C17.3203148,3.19531203 17.7734353,3.06250086 18.2109375,2.890625 C18.6484397,2.71874914 19.062498,2.51562617 19.453125,2.28125 C19.2968742,2.76562742 19.0625016,3.20312305 18.75,3.59375 C18.4374984,3.98437695 18.0703146,4.30468625 17.6484375,4.5546875 C18.0703146,4.50781227 18.4765605,4.42968805 18.8671875,4.3203125 C19.2578145,4.21093695 19.6406231,4.07812578 20.015625,3.921875 C19.7343736,4.32812703 19.4218767,4.7109357 19.078125,5.0703125 C18.7343733,5.4296893 18.359377,5.74999859 17.953125,6.03125 C17.9687501,6.12500047 17.9765625,6.21484332 17.9765625,6.30078125 L17.9765625,6.5703125 C17.9765625,7.9296943 17.7226588,9.30077434 17.2148438,10.6835938 C16.7070287,12.0664132 15.9570362,13.3164007 14.9648438,14.4335938 C13.9726513,15.5507868 12.7500073,16.4648402 11.296875,17.1757812 C9.84374273,17.8867223 8.17969687,18.2421875 6.3046875,18.2421875 C5.14843172,18.2421875 4.0351616,18.0820329 2.96484375,17.7617188 C1.8945259,17.4414046 0.906254531,16.984378 0,16.390625 C0.171875859,16.4218752 0.335936719,16.4414062 0.4921875,16.4492188 C0.648438281,16.4570313 0.812499141,16.4609375 0.984375,16.4609375 C1.95312984,16.4609375 2.87108941,16.3046891 3.73828125,15.9921875 C4.60547309,15.6796859 5.39062148,15.2500027 6.09375,14.703125 C5.18749547,14.6874999 4.38672223,14.4101589 3.69140625,13.8710938 C2.99609027,13.3320286 2.51562633,12.6562541 2.25,11.84375 C2.37500062,11.8750002 2.49999938,11.8945312 2.625,11.9023438 C2.75000062,11.9101563 2.8828118,11.9140625 3.0234375,11.9140625 C3.21093844,11.9140625 3.39453035,11.9023439 3.57421875,11.8789062 C3.75390715,11.8554686 3.92968664,11.8203127 4.1015625,11.7734375 C3.16405781,11.5859366 2.38281563,11.1171913 1.7578125,10.3671875 C1.13280937,9.61718375 0.8203125,8.75000492 0.8203125,7.765625 C0.8203125,7.7514886 0.8203125,7.74054973 0.8203125,7.73280813 Z" fill="#00A0EA"></path>
                    </g>
                    <g id="footer_link_instagram" transform="translate(76.000000, 0.000000)">
                        <rect x="0" y="0" width="21" height="20"></rect>
                        <path d="M10.0078125,1.78125 C8.67968086,1.78125 7.80468961,1.79296863 7.3828125,1.81640625 C6.96093539,1.83984387 6.48437766,1.8515625 5.953125,1.8515625 C5.48437266,1.86718758 5.10156398,1.91796832 4.8046875,2.00390625 C4.50781102,2.08984418 4.27343836,2.17187461 4.1015625,2.25 C3.85156125,2.31250031 3.64062586,2.39843695 3.46875,2.5078125 C3.29687414,2.61718805 3.12500086,2.76562406 2.953125,2.953125 C2.8124993,3.12500086 2.67968812,3.30078035 2.5546875,3.48046875 C2.42968688,3.66015715 2.32812539,3.86718633 2.25,4.1015625 C2.15624953,4.27343836 2.0742191,4.5039048 2.00390625,4.79296875 C1.9335934,5.0820327 1.88281266,5.46874758 1.8515625,5.953125 C1.83593742,6.46875258 1.82421879,6.9414041 1.81640625,7.37109375 C1.80859371,7.8007834 1.8046875,8.67186844 1.8046875,9.984375 C1.8046875,11.3125066 1.80859371,12.1914041 1.81640625,12.6210938 C1.82421879,13.0507834 1.83593742,13.5234349 1.8515625,14.0390625 C1.88281266,14.5234399 1.94140582,14.9101548 2.02734375,15.1992188 C2.11328168,15.4882827 2.18749969,15.7187491 2.25,15.890625 C2.32812539,16.1406262 2.42187445,16.3515616 2.53125,16.5234375 C2.64062555,16.6953134 2.78124914,16.8671866 2.953125,17.0390625 C3.12500086,17.1953133 3.30468656,17.3320307 3.4921875,17.4492188 C3.67968844,17.5664068 3.88281141,17.6640621 4.1015625,17.7421875 C4.27343836,17.835938 4.50781102,17.9179684 4.8046875,17.9882812 C5.10156398,18.0585941 5.48437266,18.09375 5.953125,18.09375 C6.48437766,18.1250002 6.96093539,18.140625 7.3828125,18.140625 L12.6328125,18.140625 C13.0546896,18.140625 13.5312473,18.1250002 14.0625,18.09375 C14.5312523,18.0624998 14.914061,18.0078129 15.2109375,17.9296875 C15.507814,17.8515621 15.7421866,17.7890627 15.9140625,17.7421875 C16.1640637,17.6640621 16.3749991,17.570313 16.546875,17.4609375 C16.7187509,17.351562 16.8906241,17.2109384 17.0625,17.0390625 C17.2031257,16.8671866 17.3359369,16.6875009 17.4609375,16.5 C17.5859381,16.3124991 17.6874996,16.1093761 17.765625,15.890625 C17.8593755,15.7187491 17.9414059,15.4882827 18.0117188,15.1992188 C18.0820316,14.9101548 18.1171875,14.5234399 18.1171875,14.0390625 C18.1328126,13.5234349 18.1445312,13.0507834 18.1523438,12.6210938 C18.1601563,12.1914041 18.1640625,11.3125066 18.1640625,9.984375 C18.1640625,8.67186844 18.1601563,7.8007834 18.1523438,7.37109375 C18.1445312,6.9414041 18.1328126,6.46875258 18.1171875,5.953125 C18.0859373,5.46874758 18.0312504,5.0820327 17.953125,4.79296875 C17.8749996,4.5039048 17.8125002,4.27343836 17.765625,4.1015625 C17.6874996,3.85156125 17.5937505,3.64062586 17.484375,3.46875 C17.3749995,3.29687414 17.2343759,3.12500086 17.0625,2.953125 C16.8906241,2.79687422 16.7109384,2.65625062 16.5234375,2.53125 C16.3359366,2.40624938 16.1328136,2.31250031 15.9140625,2.25 C15.7421866,2.14062445 15.507814,2.0507816 15.2109375,1.98046875 C14.914061,1.9101559 14.5312523,1.86718758 14.0625,1.8515625 C13.5312473,1.82031234 13.0546896,1.80078129 12.6328125,1.79296875 C12.2109354,1.78515621 11.3359441,1.78125 10.0078125,1.78125 Z M12.6679688,0 C13.0976584,0 13.5781223,0.0156248437 14.109375,0.046875 C14.6406277,0.0625000781 15.1054668,0.117187031 15.5039062,0.2109375 C15.9023457,0.304687969 16.2499985,0.398437031 16.546875,0.4921875 C16.8750016,0.648438281 17.1914047,0.804686719 17.4960938,0.9609375 C17.8007828,1.11718828 18.0859362,1.34374852 18.3515625,1.640625 C18.6328139,1.93750148 18.8593741,2.2304673 19.03125,2.51953125 C19.2031259,2.8085952 19.3593743,3.11718586 19.5,3.4453125 C19.6250006,3.77343914 19.7265621,4.13281055 19.8046875,4.5234375 C19.8828129,4.91406445 19.9374998,5.36718492 19.96875,5.8828125 C19.9843751,6.41406516 19.9960937,6.8945291 20.0039062,7.32421875 C20.0117188,7.7539084 20.015625,8.64061828 20.015625,9.984375 C20.015625,11.3437568 20.0117188,12.2382791 20.0039062,12.6679688 C19.9960937,13.0976584 19.9843751,13.5703099 19.96875,14.0859375 C19.9374998,14.6171902 19.8789067,15.0859355 19.7929688,15.4921875 C19.7070308,15.8984395 19.6093755,16.2499985 19.5,16.546875 C19.3749994,16.8906267 19.2226571,17.2070298 19.0429688,17.4960938 C18.8632804,17.7851577 18.6328139,18.0703111 18.3515625,18.3515625 C18.054686,18.6171888 17.7617202,18.8359366 17.4726562,19.0078125 C17.1835923,19.1796884 16.8750016,19.3437492 16.546875,19.5 C16.2343734,19.6250006 15.8828145,19.7226559 15.4921875,19.7929688 C15.1015605,19.8632816 14.6406277,19.9140623 14.109375,19.9453125 C13.5781223,19.9609376 13.0976584,19.9726562 12.6679688,19.9804688 C12.2382791,19.9882813 11.3515692,19.9921875 10.0078125,19.9921875 C8.66405578,19.9921875 7.7773459,19.9882813 7.34765625,19.9804688 C6.9179666,19.9726562 6.43750266,19.9609376 5.90625,19.9453125 C5.37499734,19.9140623 4.91015824,19.8554692 4.51171875,19.7695312 C4.11327926,19.6835933 3.76562648,19.5937505 3.46875,19.5 C3.1093732,19.3749994 2.7851577,19.2187509 2.49609375,19.03125 C2.2070298,18.8437491 1.92968883,18.6171888 1.6640625,18.3515625 C1.38281109,18.0390609 1.15625086,17.7421889 0.984375,17.4609375 C0.812499141,17.1796861 0.656250703,16.8750016 0.515625,16.546875 C0.390624375,16.2187484 0.289062891,15.859377 0.2109375,15.46875 C0.132812109,15.078123 0.0781251563,14.6171902 0.046875,14.0859375 C0.0312499219,13.5703099 0.0195312891,13.0976584 0.01171875,12.6679688 C0.00390621094,12.2382791 0,11.3437568 0,9.984375 C0,8.64061828 0.00390621094,7.7539084 0.01171875,7.32421875 C0.0195312891,6.8945291 0.0312499219,6.41406516 0.046875,5.8828125 C0.0781251563,5.36718492 0.13671832,4.90625203 0.22265625,4.5 C0.30859418,4.09374797 0.406249453,3.74218898 0.515625,3.4453125 C0.656250703,3.11718586 0.812499141,2.80468898 0.984375,2.5078125 C1.15625086,2.21093602 1.38281109,1.92187641 1.6640625,1.640625 C1.92968883,1.35937359 2.21484223,1.13671957 2.51953125,0.97265625 C2.82422027,0.80859293 3.14062336,0.648438281 3.46875,0.4921875 C3.78125156,0.367186875 4.13281055,0.265625391 4.5234375,0.1875 C4.91406445,0.109374609 5.37499734,0.0625000781 5.90625,0.046875 C6.43750266,0.0156248437 6.9179666,0 7.34765625,0 L12.6679688,0 Z M10.0078125,4.8984375 C10.7265661,4.8984375 11.3945282,5.03124867 12.0117188,5.296875 C12.6289093,5.56250133 13.1679664,5.92187273 13.6289062,6.375 C14.0898461,6.82812727 14.4531237,7.36718437 14.71875,7.9921875 C14.9843763,8.61719063 15.1171875,9.28124648 15.1171875,9.984375 C15.1171875,10.7031286 14.9843763,11.3710907 14.71875,11.9882812 C14.4531237,12.6054718 14.0898461,13.1445289 13.6289062,13.6054688 C13.1679664,14.0664086 12.6289093,14.4296862 12.0117188,14.6953125 C11.3945282,14.9609388 10.7265661,15.09375 10.0078125,15.09375 C9.28905891,15.09375 8.62109684,14.9609388 8.00390625,14.6953125 C7.38671566,14.4296862 6.84765855,14.0625023 6.38671875,13.59375 C5.92577895,13.1249977 5.56250133,12.5820343 5.296875,11.9648438 C5.03124867,11.3476532 4.8984375,10.6875035 4.8984375,9.984375 C4.8984375,9.29687156 5.03124867,8.64062813 5.296875,8.015625 C5.56250133,7.39062187 5.92577895,6.84765855 6.38671875,6.38671875 C6.84765855,5.92577895 7.38671566,5.56250133 8.00390625,5.296875 C8.62109684,5.03124867 9.28905891,4.8984375 10.0078125,4.8984375 Z M10.0078125,13.3359375 C10.9296921,13.3359375 11.7187467,13.011722 12.375,12.3632812 C13.0312533,11.7148405 13.359375,10.9218797 13.359375,9.984375 C13.359375,9.06249539 13.0312533,8.27344078 12.375,7.6171875 C11.7187467,6.96093422 10.9296921,6.6328125 10.0078125,6.6328125 C9.08593289,6.6328125 8.29687828,6.96093422 7.640625,7.6171875 C6.98437172,8.27344078 6.65625,9.06249539 6.65625,9.984375 C6.65625,10.9218797 6.98437172,11.7148405 7.640625,12.3632812 C8.29687828,13.011722 9.08593289,13.3359375 10.0078125,13.3359375 Z M16.546875,4.640625 C16.546875,4.96875164 16.4296887,5.24999883 16.1953125,5.484375 C15.9609363,5.71875117 15.6796891,5.8359375 15.3515625,5.8359375 C15.0234359,5.8359375 14.7421887,5.71875117 14.5078125,5.484375 C14.2734363,5.24999883 14.15625,4.96875164 14.15625,4.640625 C14.15625,4.31249836 14.2734363,4.03125117 14.5078125,3.796875 C14.7421887,3.56249883 15.0234359,3.4453125 15.3515625,3.4453125 C15.6796891,3.4453125 15.9609363,3.56249883 16.1953125,3.796875 C16.4296887,4.03125117 16.546875,4.31249836 16.546875,4.640625 Z" fill="#F63469"></path>
                    </g>
                </g>
            </g>
        </g>
    </g>
</svg>