<?xml version="1.0" encoding="UTF-8"?>
<svg width="24px" height="15px" viewBox="0 0 24 15" version="1.1" xmlns="http://www.w3.org/2000/svg" xmlns:xlink="http://www.w3.org/1999/xlink">
    <!-- Generator: Sketch 47 (45396) - http://www.bohemiancoding.com/sketch -->
    <title>icon_toggle_on</title>
    <desc>Created with Sketch.</desc>
    <defs></defs>
    <g id="Symbols" stroke="none" stroke-width="1" fill="none" fill-rule="evenodd">
        <g id="icon_toggle_on">
            <rect id="Rectangle-2" x="0" y="0" width="24" height="15"></rect>
            <path d="M7.59484778,14 C6.68461684,14 5.83021477,13.8307309 5.03161593,13.4921875 C4.23301708,13.1536441 3.53747369,12.6923857 2.94496487,12.1083984 C2.35245605,11.5244111 1.8801735,10.8346394 1.52810304,10.0390625 C1.17603259,9.24348561 1,8.3971399 1,7.5 C1,6.6028601 1.17603259,5.76074612 1.52810304,4.97363281 C1.8801735,4.1865195 2.35245605,3.50097948 2.94496487,2.91699219 C3.53747369,2.33300489 4.23301708,1.86751476 5.03161593,1.52050781 C5.83021477,1.17350087 6.68461684,1 7.59484778,1 L16.4051522,1 C17.3153832,1 18.1697852,1.17350087 18.9683841,1.52050781 C19.7669829,1.86751476 20.4625263,2.33300489 21.0550351,2.91699219 C21.6475439,3.50097948 22.1198265,4.1865195 22.471897,4.97363281 C22.8239674,5.76074612 23,6.6028601 23,7.5 C23,8.3971399 22.8239674,9.24348561 22.471897,10.0390625 C22.1198265,10.8346394 21.6475439,11.5244111 21.0550351,12.1083984 C20.4625263,12.6923857 19.7669829,13.1536441 18.9683841,13.4921875 C18.1697852,13.8307309 17.3153832,14 16.4051522,14 L7.59484778,14 Z M16.4051522,2.09179688 C15.6494888,2.09179688 14.9367715,2.23567564 14.2669789,2.5234375 C13.5971863,2.81119936 13.0132734,3.19628665 12.5152225,3.67871094 C12.0171716,4.16113522 11.6221716,4.73241857 11.3302108,5.39257813 C11.0382499,6.05273768 10.8922717,6.75520461 10.8922717,7.5 C10.8922717,8.26172256 11.0382499,8.96842122 11.3302108,9.62011719 C11.6221716,10.2718132 12.0171716,10.8430965 12.5152225,11.3339844 C13.0132734,11.8248722 13.5971863,12.2141913 14.2669789,12.5019531 C14.9367715,12.789715 15.6494888,12.9335938 16.4051522,12.9335938 C17.1608156,12.9335938 17.873533,12.789715 18.5433255,12.5019531 C19.2131181,12.2141913 19.7970311,11.8248722 20.295082,11.3339844 C20.7931329,10.8430965 21.1838393,10.2718132 21.4672131,9.62011719 C21.7505869,8.96842122 21.8922717,8.26172256 21.8922717,7.5 C21.8922717,6.75520461 21.7505869,6.05273768 21.4672131,5.39257813 C21.1838393,4.73241857 20.7931329,4.16113522 20.295082,3.67871094 C19.7970311,3.19628665 19.2131181,2.81119936 18.5433255,2.5234375 C17.873533,2.23567564 17.1608156,2.09179688 16.4051522,2.09179688 Z" fill="#1F8EFA"></path>
        </g>
    </g>
</svg>