<?xml version="1.0" encoding="UTF-8"?>
<svg width="32px" height="32px" viewBox="0 0 32 32" version="1.1" xmlns="http://www.w3.org/2000/svg" xmlns:xlink="http://www.w3.org/1999/xlink">
    <!-- Generator: Sketch 47 (45396) - http://www.bohemiancoding.com/sketch -->
    <title>icon_industrial_00_on4</title>
    <desc>Created with Sketch.</desc>
    <defs></defs>
    <g id="Page-1" stroke="none" stroke-width="1" fill="none" fill-rule="evenodd">
        <g id="000-copy-2" transform="translate(0.000000, -6.000000)">
            <g id="icon_industrial_00_on4" transform="translate(0.000000, 6.000000)">
                <rect id="Rectangle-Copy-2" fill="#1F8EFA" x="0" y="0" width="32" height="32" rx="4"></rect>
                <path d="M21.5,8.5 L24.25,8.5 L24.25,24.0761719 L7.75,24.0761719 L7.75,8.5 L10.5,8.5 L10.5,7.57617188 L12.3261719,7.57617188 L12.3261719,8.5 L19.6738281,8.5 L19.6738281,7.57617188 L21.5,7.57617188 L21.5,8.5 Z M22.4238281,22.25 L22.4238281,13.0761719 L9.57617188,13.0761719 L9.57617188,22.25 L22.4238281,22.25 Z M11.4238281,14 L20.5761719,14 L20.5761719,15.8261719 L11.4238281,15.8261719 L11.4238281,14 Z M11.4238281,16.75 L20.5761719,16.75 L20.5761719,18.5761719 L11.4238281,18.5761719 L11.4238281,16.75 Z M11.4238281,19.5 L20.5761719,19.5 L20.5761719,21.3261719 L11.4238281,21.3261719 L11.4238281,19.5 Z" id="" fill="#FFFFFF"></path>
            </g>
        </g>
    </g>
</svg>