<?xml version="1.0" encoding="UTF-8"?>
<svg width="32px" height="32px" viewBox="0 0 32 32" version="1.1" xmlns="http://www.w3.org/2000/svg" xmlns:xlink="http://www.w3.org/1999/xlink">
    <!-- Generator: Sketch 47 (45396) - http://www.bohemiancoding.com/sketch -->
    <title>icon_industrial_003</title>
    <desc>Created with Sketch.</desc>
    <defs></defs>
    <g id="Page-1" stroke="none" stroke-width="1" fill="none" fill-rule="evenodd">
        <g id="000-copy" transform="translate(-38.000000, -6.000000)">
            <g id="icon_industrial_003" transform="translate(38.000000, 6.000000)">
                <rect id="Rectangle-Copy-3" fill="#F3F7F8" x="0" y="0" width="32" height="32" rx="4"></rect>
                <path d="M24.25,9.32617188 L24.25,14.8261719 L23.3261719,14.8261719 L23.3261719,23.0761719 L8.67382812,23.0761719 L8.67382812,14.8261719 L7.75,14.8261719 L7.75,9.32617188 L11.4238281,9.32617188 L11.4238281,6.57617188 L16,8.42382812 L20.5761719,6.57617188 L20.5761719,9.32617188 L24.25,9.32617188 Z M22.4238281,13 L22.4238281,11.1523438 L16.9238281,11.1523438 L16.9238281,13 L22.4238281,13 Z M9.57617188,11.1523438 L9.57617188,13 L15.0761719,13 L15.0761719,11.1523438 L9.57617188,11.1523438 Z M10.5,14.8261719 L10.5,21.25 L15.0761719,21.25 L15.0761719,14.8261719 L10.5,14.8261719 Z M21.5,21.25 L21.5,14.8261719 L16.9238281,14.8261719 L16.9238281,21.25 L21.5,21.25 Z" id="" fill="#B2B5B6"></path>
            </g>
        </g>
    </g>
</svg>