<?xml version="1.0" encoding="UTF-8"?>
<svg width="16px" height="16px" viewBox="0 0 16 16" version="1.1" xmlns="http://www.w3.org/2000/svg" xmlns:xlink="http://www.w3.org/1999/xlink">
    <!-- Generator: Sketch 47 (45396) - http://www.bohemiancoding.com/sketch -->
    <title>icon_tpo_P</title>
    <desc>Created with Sketch.</desc>
    <defs></defs>
    <g id="Page-1" stroke="none" stroke-width="1" fill="none" fill-rule="evenodd">
        <g id="icon_tpo_P">
            <circle id="Oval" fill="#00ABAC" cx="8" cy="8" r="8"></circle>
            <path d="M7.47607422,9.34667969 L7.47607422,12 L5.59082031,12 L5.59082031,4.1796875 L8.71142578,4.1796875 C9.18050365,4.1796875 9.60302546,4.24593033 9.97900391,4.37841797 C10.3549823,4.51090561 10.6736641,4.69531132 10.9350586,4.93164062 C11.1964531,5.16796993 11.396972,5.44815919 11.5366211,5.7722168 C11.6762702,6.09627441 11.7460938,6.44986788 11.7460938,6.83300781 C11.7460938,7.212567 11.6762702,7.55631356 11.5366211,7.86425781 C11.396972,8.17220206 11.1964531,8.4362782 10.9350586,8.65649414 C10.6736641,8.87671009 10.3549823,9.04679302 9.97900391,9.16674805 C9.60302546,9.28670307 9.18050365,9.34667969 8.71142578,9.34667969 L7.47607422,9.34667969 Z M7.47607422,7.89111328 L8.71142578,7.89111328 C8.90836687,7.89111328 9.07755463,7.86515325 9.21899414,7.81323242 C9.36043365,7.76131159 9.47680618,7.68880255 9.56811523,7.59570312 C9.65942428,7.5026037 9.72656229,7.39160221 9.76953125,7.26269531 C9.81250021,7.13378842 9.83398438,6.99414138 9.83398438,6.84375 C9.83398438,6.68261638 9.81250021,6.52954174 9.76953125,6.38452148 C9.72656229,6.23950123 9.65942428,6.11149144 9.56811523,6.00048828 C9.47680618,5.88948512 9.36043365,5.80086296 9.21899414,5.73461914 C9.07755463,5.66837532 8.90836687,5.63525391 8.71142578,5.63525391 L7.47607422,5.63525391 L7.47607422,7.89111328 Z" id="P-Copy" fill="#FFFFFF"></path>
            <path d="M7.47607422,9.34667969 L7.47607422,12 L5.59082031,12 L5.59082031,4.1796875 L8.71142578,4.1796875 C9.18050365,4.1796875 9.60302546,4.24593033 9.97900391,4.37841797 C10.3549823,4.51090561 10.6736641,4.69531132 10.9350586,4.93164062 C11.1964531,5.16796993 11.396972,5.44815919 11.5366211,5.7722168 C11.6762702,6.09627441 11.7460938,6.44986788 11.7460938,6.83300781 C11.7460938,7.212567 11.6762702,7.55631356 11.5366211,7.86425781 C11.396972,8.17220206 11.1964531,8.4362782 10.9350586,8.65649414 C10.6736641,8.87671009 10.3549823,9.04679302 9.97900391,9.16674805 C9.60302546,9.28670307 9.18050365,9.34667969 8.71142578,9.34667969 L7.47607422,9.34667969 Z M7.47607422,7.89111328 L8.71142578,7.89111328 C8.90836687,7.89111328 9.07755463,7.86515325 9.21899414,7.81323242 C9.36043365,7.76131159 9.47680618,7.68880255 9.56811523,7.59570312 C9.65942428,7.5026037 9.72656229,7.39160221 9.76953125,7.26269531 C9.81250021,7.13378842 9.83398438,6.99414138 9.83398438,6.84375 C9.83398438,6.68261638 9.81250021,6.52954174 9.76953125,6.38452148 C9.72656229,6.23950123 9.65942428,6.11149144 9.56811523,6.00048828 C9.47680618,5.88948512 9.36043365,5.80086296 9.21899414,5.73461914 C9.07755463,5.66837532 8.90836687,5.63525391 8.71142578,5.63525391 L7.47607422,5.63525391 L7.47607422,7.89111328 Z" id="P-Copy-2" fill="#FFFFFF"></path>
        </g>
    </g>
</svg>