<?xml version="1.0" encoding="UTF-8"?>
<svg width="32px" height="32px" viewBox="0 0 32 32" version="1.1" xmlns="http://www.w3.org/2000/svg" xmlns:xlink="http://www.w3.org/1999/xlink">
    <!-- Generator: Sketch 47 (45396) - http://www.bohemiancoding.com/sketch -->
    <title>icon_industrial_002_on</title>
    <desc>Created with Sketch.</desc>
    <defs></defs>
    <g id="Page-1" stroke="none" stroke-width="1" fill="none" fill-rule="evenodd">
        <g id="002" transform="translate(0.000000, -6.000000)">
            <g id="icon_industrial_002_on" transform="translate(0.000000, 6.000000)">
                <rect id="Rectangle-Copy-2" fill="#1F8EFA" x="0" y="0" width="32" height="32" rx="4"></rect>
                <path d="M25.9902344,17.2070312 C26.1679696,17.3710946 26.2568359,17.5761706 26.2568359,17.8222656 C26.2568359,18.0683606 26.1679696,18.2734367 25.9902344,18.4375 L19.6943359,24.7333984 C19.6123043,24.829102 19.5166021,24.8974607 19.4072266,24.9384766 C19.297851,24.9794924 19.1884771,25 19.0791016,25 C18.969726,25 18.8603521,24.9794924 18.7509766,24.9384766 C18.641601,24.8974607 18.5458988,24.829102 18.4638672,24.7333984 L9.00976562,15.2998047 C8.92773396,15.217773 8.86279321,15.1220709 8.81494141,15.0126953 C8.7670896,14.9033198 8.74316406,14.7939459 8.74316406,14.6845703 L8.74316406,8.36816406 C8.74316406,8.13574103 8.82861243,7.93408289 8.99951172,7.76318359 C9.17041101,7.5922843 9.37890502,7.50683594 9.625,7.50683594 L15.9208984,7.50683594 C16.0439459,7.50683594 16.1567378,7.52734354 16.2592773,7.56835938 C16.3618169,7.60937521 16.4541012,7.67089803 16.5361328,7.75292969 L25.9902344,17.2070312 Z M12.6806641,12.7568359 C13.0498065,12.7568359 13.3608386,12.6269544 13.6137695,12.3671875 C13.8667005,12.1074206 13.9931641,11.7998065 13.9931641,11.4443359 C13.9931641,11.0751935 13.8667005,10.7641614 13.6137695,10.5112305 C13.3608386,10.2582995 13.0498065,10.1318359 12.6806641,10.1318359 C12.3251935,10.1318359 12.0175794,10.2582995 11.7578125,10.5112305 C11.4980456,10.7641614 11.3681641,11.0751935 11.3681641,11.4443359 C11.3681641,11.7998065 11.4980456,12.1074206 11.7578125,12.3671875 C12.0175794,12.6269544 12.3251935,12.7568359 12.6806641,12.7568359 Z" id="" fill="#FFFFFF"></path>
            </g>
        </g>
    </g>
</svg>