<?xml version="1.0" encoding="UTF-8"?>
<svg width="13px" height="13px" viewBox="0 0 13 13" version="1.1" xmlns="http://www.w3.org/2000/svg" xmlns:xlink="http://www.w3.org/1999/xlink">
    <!-- Generator: Sketch 46.2 (44496) - http://www.bohemiancoding.com/sketch -->
    <title>Shape</title>
    <desc>Created with Sketch.</desc>
    <defs></defs>
    <g id="Page-1" stroke="none" stroke-width="1" fill="none" fill-rule="evenodd" opacity="0.5">
        <g id="002.화면설정" transform="translate(-41.000000, -145.000000)" fill-rule="nonzero" fill="#1C1C1C">
            <g id="위젯추가-변경" transform="translate(0.000000, 62.000000)">
                <g id="ic_info_outline_black_14px" transform="translate(40.000000, 82.000000)">
                    <path d="M6.56666667,10.1666667 L7.76666667,10.1666667 L7.76666667,6.56666667 L6.56666667,6.56666667 L6.56666667,10.1666667 Z M7.16666667,1.16666667 C3.85466667,1.16666667 1.16666667,3.85466667 1.16666667,7.16666667 C1.16666667,10.4786667 3.85466667,13.1666667 7.16666667,13.1666667 C10.4786667,13.1666667 13.1666667,10.4786667 13.1666667,7.16666667 C13.1666667,3.85466667 10.4786667,1.16666667 7.16666667,1.16666667 Z M7.16666667,11.9666667 C4.52066667,11.9666667 2.36666667,9.81266667 2.36666667,7.16666667 C2.36666667,4.52066667 4.52066667,2.36666667 7.16666667,2.36666667 C9.81266667,2.36666667 11.9666667,4.52066667 11.9666667,7.16666667 C11.9666667,9.81266667 9.81266667,11.9666667 7.16666667,11.9666667 Z M6.56666667,5.36666667 L7.76666667,5.36666667 L7.76666667,4.16666667 L6.56666667,4.16666667 L6.56666667,5.36666667 Z" id="Shape"></path>
                </g>
            </g>
        </g>
    </g>
</svg>