<?xml version="1.0" encoding="UTF-8"?>
<svg width="20px" height="20px" viewBox="0 0 20 20" version="1.1" xmlns="http://www.w3.org/2000/svg" xmlns:xlink="http://www.w3.org/1999/xlink">
    <!-- Generator: Sketch 46.2 (44496) - http://www.bohemiancoding.com/sketch -->
    <title>ic_radio_button_checked_black_24px</title>
    <desc>Created with Sketch.</desc>
    <defs></defs>
    <g id="Page-1" stroke="none" stroke-width="1" fill="none" fill-rule="evenodd">
        <g id="ic_radio_button_checked_black_24px">
            <circle id="Oval" fill="#FFFFFF" cx="10" cy="10" r="9"></circle>
            <path d="M10,5 C7.24,5 5,7.24 5,10 C5,12.76 7.24,15 10,15 C12.76,15 15,12.76 15,10 C15,7.24 12.76,5 10,5 Z M10,0 C4.48,0 0,4.48 0,10 C0,15.52 4.48,20 10,20 C15.52,20 20,15.52 20,10 C20,4.48 15.52,0 10,0 Z M10,18 C5.58,18 2,14.42 2,10 C2,5.58 5.58,2 10,2 C14.42,2 18,5.58 18,10 C18,14.42 14.42,18 10,18 Z" id="Shape" fill="#1F8EFA" fill-rule="nonzero"></path>
        </g>
    </g>
</svg>