<?xml version="1.0" encoding="UTF-8"?>
<svg width="24px" height="15px" viewBox="0 0 24 15" version="1.1" xmlns="http://www.w3.org/2000/svg" xmlns:xlink="http://www.w3.org/1999/xlink">
    <!-- Generator: Sketch 47 (45396) - http://www.bohemiancoding.com/sketch -->
    <title>icon_toggle_off</title>
    <desc>Created with Sketch.</desc>
    <defs></defs>
    <g id="Symbols" stroke="none" stroke-width="1" fill="none" fill-rule="evenodd">
        <g id="icon_toggle_off">
            <g>
                <rect id="Rectangle-2" x="0" y="0" width="24" height="15"></rect>
                <g transform="translate(1.000000, 0.500000)">
                    <rect id="Rectangle" fill="#F5F5F5" x="2" y="2" width="19" height="10" rx="5"></rect>
                    <circle id="Oval" fill="#FFFFFF" cx="6.5" cy="7.5" r="5.5"></circle>
                    <path d="M6.65820312,13.6582031 C5.76106322,13.6582031 4.91894925,13.488934 4.13183594,13.1503906 C3.34472263,12.8118473 2.65918261,12.3505889 2.07519531,11.7666016 C1.49120802,11.1826143 1.02571788,10.4928425 0.678710938,9.69726562 C0.331703994,8.90168873 0.158203125,8.05534303 0.158203125,7.15820312 C0.158203125,6.26106322 0.331703994,5.41894925 0.678710938,4.63183594 C1.02571788,3.84472263 1.49120802,3.15918261 2.07519531,2.57519531 C2.65918261,1.99120802 3.34472263,1.52571788 4.13183594,1.17871094 C4.91894925,0.831703994 5.76106322,0.658203125 6.65820312,0.658203125 L15.3417969,0.658203125 C16.2389368,0.658203125 17.0810508,0.831703994 17.8681641,1.17871094 C18.6552774,1.52571788 19.3408174,1.99120802 19.9248047,2.57519531 C20.508792,3.15918261 20.9742821,3.84472263 21.3212891,4.63183594 C21.668296,5.41894925 21.8417969,6.26106322 21.8417969,7.15820312 C21.8417969,8.05534303 21.668296,8.90168873 21.3212891,9.69726562 C20.9742821,10.4928425 20.508792,11.1826143 19.9248047,11.7666016 C19.3408174,12.3505889 18.6552774,12.8118473 17.8681641,13.1503906 C17.0810508,13.488934 16.2389368,13.6582031 15.3417969,13.6582031 L6.65820312,13.6582031 Z M15.3417969,1.75 L10.2636719,1.75 C11.1269574,2.32552371 11.8251926,3.09146657 12.3583984,4.04785156 C12.8916042,5.00423655 13.1582031,6.04101004 13.1582031,7.15820312 C13.1582031,8.29232338 12.8916042,9.33332859 12.3583984,10.28125 C11.8251926,11.2291714 11.1269574,11.999346 10.2636719,12.5917969 L15.3417969,12.5917969 C16.0865923,12.5917969 16.7890592,12.4479181 17.4492188,12.1601562 C18.1093783,11.8723944 18.6848934,11.4830754 19.1757812,10.9921875 C19.6666691,10.5012996 20.0517564,9.92578455 20.3310547,9.265625 C20.610353,8.60546545 20.75,7.90299852 20.75,7.15820312 C20.75,6.41340773 20.610353,5.71517253 20.3310547,5.06347656 C20.0517564,4.4117806 19.6666691,3.84049725 19.1757812,3.34960938 C18.6848934,2.8587215 18.1093783,2.46940248 17.4492188,2.18164062 C16.7890592,1.89387877 16.0865923,1.75 15.3417969,1.75 Z M6.65820312,1.75 C5.91340773,1.75 5.21517253,1.89387877 4.56347656,2.18164062 C3.9117806,2.46940248 3.34049725,2.8587215 2.84960938,3.34960938 C2.3587215,3.84049725 1.96940248,4.4117806 1.68164062,5.06347656 C1.39387877,5.71517253 1.25,6.41340773 1.25,7.15820312 C1.25,7.90299852 1.39387877,8.60546545 1.68164062,9.265625 C1.96940248,9.92578455 2.3587215,10.5012996 2.84960938,10.9921875 C3.34049725,11.4830754 3.9117806,11.8723944 4.56347656,12.1601562 C5.21517253,12.4479181 5.91340773,12.5917969 6.65820312,12.5917969 C7.41992568,12.5917969 8.12662435,12.4479181 8.77832031,12.1601562 C9.43001628,11.8723944 10.0012996,11.4830754 10.4921875,10.9921875 C10.9830754,10.5012996 11.3723944,9.92578455 11.6601562,9.265625 C11.9479181,8.60546545 12.0917969,7.90299852 12.0917969,7.15820312 C12.0917969,6.41340773 11.9479181,5.71517253 11.6601562,5.06347656 C11.3723944,4.4117806 10.9830754,3.84049725 10.4921875,3.34960938 C10.0012996,2.8587215 9.43001628,2.46940248 8.77832031,2.18164062 C8.12662435,1.89387877 7.41992568,1.75 6.65820312,1.75 Z" id="" fill="#CCCCCC"></path>
                </g>
            </g>
        </g>
    </g>
</svg>