<?xml version="1.0" encoding="UTF-8"?>
<svg width="16px" height="16px" viewBox="0 0 16 16" version="1.1" xmlns="http://www.w3.org/2000/svg" xmlns:xlink="http://www.w3.org/1999/xlink">
    <!-- Generator: Sketch 47 (45396) - http://www.bohemiancoding.com/sketch -->
    <title>O</title>
    <desc>Created with Sketch.</desc>
    <defs></defs>
    <g id="Page-1" stroke="none" stroke-width="1" fill="none" fill-rule="evenodd">
        <g id="O">
            <circle id="Oval" fill="#00ABAC" cx="8" cy="8" r="8"></circle>
            <path d="M12,7.80765321 C12,8.47438019 11.9061805,9.07322778 11.7185388,9.60421394 C11.5308971,10.1352001 11.2684022,10.5863319 10.9310464,10.957623 C10.5936905,11.3289141 10.1924626,11.6133667 9.72735069,11.8109894 C9.26223875,12.008612 8.75222023,12.1074219 8.19727981,12.1074219 C7.63435463,12.1074219 7.11834763,12.008612 6.64924332,11.8109894 C6.18013901,11.6133667 5.77691496,11.3289141 5.4395591,10.957623 C5.10220323,10.5863319 4.83970837,10.1352001 4.65206665,9.60421394 C4.46442492,9.07322778 4.37060547,8.47438019 4.37060547,7.80765321 L4.37060547,7.45432961 C4.37060547,6.78760263 4.46342684,6.18875504 4.64907238,5.65776888 C4.83471792,5.12678273 5.0962147,4.67565088 5.43357056,4.30435981 C5.77092643,3.93306874 6.17315239,3.64761805 6.64026051,3.4479992 C7.10736864,3.24838034 7.62237756,3.14857241 8.18530273,3.14857241 C8.74024315,3.14857241 9.25125976,3.24838034 9.71836788,3.4479992 C10.185476,3.64761805 10.587702,3.93306874 10.9250578,4.30435981 C11.2624137,4.67565088 11.5259066,5.12678273 11.7155446,5.65776888 C11.9051825,6.18875504 12,6.78760263 12,7.45432961 L12,7.80765321 Z M9.86209274,7.44235253 C9.86209274,6.5760067 9.71737124,5.91827243 9.4279239,5.46913001 C9.13847656,5.01998758 8.72427365,4.79541974 8.18530273,4.79541974 C7.62237756,4.79541974 7.20218617,5.01998758 6.92471596,5.46913001 C6.64724575,5.91827243 6.50851273,6.5760067 6.50851273,7.44235253 L6.50851273,7.80765321 C6.50851273,8.66202192 6.65023999,9.3187581 6.93369876,9.77788147 C7.21715754,10.2370048 7.63834701,10.4665631 8.19727981,10.4665631 C8.73225834,10.4665631 9.14346702,10.2380029 9.43091817,9.78087574 C9.71836932,9.32374856 9.86209274,8.6660143 9.86209274,7.80765321 L9.86209274,7.44235253 Z" id="O-Copy" fill="#FFFFFF"></path>
            <path d="M12,7.80765321 C12,8.47438019 11.9061805,9.07322778 11.7185388,9.60421394 C11.5308971,10.1352001 11.2684022,10.5863319 10.9310464,10.957623 C10.5936905,11.3289141 10.1924626,11.6133667 9.72735069,11.8109894 C9.26223875,12.008612 8.75222023,12.1074219 8.19727981,12.1074219 C7.63435463,12.1074219 7.11834763,12.008612 6.64924332,11.8109894 C6.18013901,11.6133667 5.77691496,11.3289141 5.4395591,10.957623 C5.10220323,10.5863319 4.83970837,10.1352001 4.65206665,9.60421394 C4.46442492,9.07322778 4.37060547,8.47438019 4.37060547,7.80765321 L4.37060547,7.45432961 C4.37060547,6.78760263 4.46342684,6.18875504 4.64907238,5.65776888 C4.83471792,5.12678273 5.0962147,4.67565088 5.43357056,4.30435981 C5.77092643,3.93306874 6.17315239,3.64761805 6.64026051,3.4479992 C7.10736864,3.24838034 7.62237756,3.14857241 8.18530273,3.14857241 C8.74024315,3.14857241 9.25125976,3.24838034 9.71836788,3.4479992 C10.185476,3.64761805 10.587702,3.93306874 10.9250578,4.30435981 C11.2624137,4.67565088 11.5259066,5.12678273 11.7155446,5.65776888 C11.9051825,6.18875504 12,6.78760263 12,7.45432961 L12,7.80765321 Z M9.86209274,7.44235253 C9.86209274,6.5760067 9.71737124,5.91827243 9.4279239,5.46913001 C9.13847656,5.01998758 8.72427365,4.79541974 8.18530273,4.79541974 C7.62237756,4.79541974 7.20218617,5.01998758 6.92471596,5.46913001 C6.64724575,5.91827243 6.50851273,6.5760067 6.50851273,7.44235253 L6.50851273,7.80765321 C6.50851273,8.66202192 6.65023999,9.3187581 6.93369876,9.77788147 C7.21715754,10.2370048 7.63834701,10.4665631 8.19727981,10.4665631 C8.73225834,10.4665631 9.14346702,10.2380029 9.43091817,9.78087574 C9.71836932,9.32374856 9.86209274,8.6660143 9.86209274,7.80765321 L9.86209274,7.44235253 Z" id="O-Copy-2" fill="#FFFFFF"></path>
        </g>
    </g>
</svg>