<?xml version="1.0" encoding="UTF-8"?>
<svg width="32px" height="32px" viewBox="0 0 32 32" version="1.1" xmlns="http://www.w3.org/2000/svg" xmlns:xlink="http://www.w3.org/1999/xlink">
    <!-- Generator: Sketch 47 (45396) - http://www.bohemiancoding.com/sketch -->
    <title>icon_industrial_001</title>
    <desc>Created with Sketch.</desc>
    <defs></defs>
    <g id="Page-1" stroke="none" stroke-width="1" fill="none" fill-rule="evenodd">
        <g id="001" transform="translate(-38.000000, -10.000000)">
            <g id="icon_industrial_001" transform="translate(38.000000, 10.000000)">
                <rect id="Rectangle-Copy" fill="#F3F7F8" x="0" y="0" width="32" height="32" rx="4"></rect>
                <path d="M8.67382812,21.3261719 L8.67382812,23.1738281 L12.3261719,23.1738281 L12.3261719,21.3261719 L8.67382812,21.3261719 Z M8.67382812,17.6738281 L8.67382812,19.5 L17.8261719,19.5 L17.8261719,17.6738281 L8.67382812,17.6738281 Z M14.1738281,21.3261719 L14.1738281,23.1738281 L17.8261719,23.1738281 L17.8261719,21.3261719 L14.1738281,21.3261719 Z M19.6738281,17.6738281 L19.6738281,19.5 L23.3261719,19.5 L23.3261719,17.6738281 L19.6738281,17.6738281 Z M19.6738281,21.3261719 L19.6738281,23.1738281 L23.3261719,23.1738281 L23.3261719,21.3261719 L19.6738281,21.3261719 Z M6.82617188,25 L6.82617188,12.1738281 L11.4238281,15.8261719 L11.4238281,12.1738281 L16,15.8261719 L16,12.1738281 L20.5761719,15.8261719 L21.5,6.67382812 L24.25,6.67382812 L25.1738281,15.8261719 L25.1738281,25 L6.82617188,25 Z" id="î­-copy" fill="#B2B5B6"></path>
            </g>
        </g>
    </g>
</svg>