<?xml version="1.0" encoding="UTF-8"?>
<svg width="18px" height="18px" viewBox="0 0 18 18" version="1.1" xmlns="http://www.w3.org/2000/svg" xmlns:xlink="http://www.w3.org/1999/xlink">
    <!-- Generator: Sketch 47 (45396) - http://www.bohemiancoding.com/sketch -->
    <title>icon_vs_001</title>
    <desc>Created with Sketch.</desc>
    <defs></defs>
    <g id="Symbols" stroke="none" stroke-width="1" fill="none" fill-rule="evenodd">
        <g id="icon_vs_001" fill-rule="nonzero">
            <g>
                <circle id="Oval" fill="#435261" cx="9" cy="9" r="9"></circle>
                <path d="M6.37030029,9.65039062 L7.37225342,5.66015625 L9.45233154,5.66015625 L7.38397217,12 L5.36834717,12 L3.29998779,5.66015625 L5.38592529,5.66015625 L6.37030029,9.65039062 Z M12.9536205,10.21875 C12.9536205,10.1367183 12.9350793,10.0644534 12.8979962,10.0019531 C12.8609131,9.93945281 12.7955307,9.8798831 12.7018472,9.82324219 C12.6081636,9.76660128 12.4813023,9.71289088 12.3212596,9.66210938 C12.1612168,9.61132787 11.9582388,9.55859402 11.7123194,9.50390625 C11.4039443,9.43749967 11.1141151,9.35058647 10.8428231,9.24316406 C10.571531,9.13574165 10.3353739,9.00293048 10.1343446,8.84472656 C9.93331525,8.68652265 9.77522659,8.50000107 9.66007386,8.28515625 C9.54492114,8.07031143 9.48734564,7.82422014 9.48734564,7.546875 C9.48734564,7.2773424 9.54492114,7.02148559 9.66007386,6.77929688 C9.77522659,6.53710816 9.94404966,6.32421967 10.1665481,6.140625 C10.3890466,5.95703033 10.6622863,5.81152397 10.9862753,5.70410156 C11.3102643,5.59667915 11.6791379,5.54296875 12.092907,5.54296875 C12.5183866,5.54296875 12.9028738,5.59374949 13.2463802,5.6953125 C13.5898867,5.79687551 13.8816676,5.93847565 14.1217317,6.12011719 C14.3617959,6.30175872 14.5462327,6.51855343 14.6750476,6.77050781 C14.8038625,7.0224622 14.868269,7.30077973 14.868269,7.60546875 L12.8892134,7.60546875 C12.8892134,7.36328004 12.8287103,7.17578191 12.7077024,7.04296875 C12.5866944,6.91015559 12.379813,6.84375 12.0870518,6.84375 C11.9855613,6.84375 11.8909032,6.85839829 11.8030749,6.88769531 C11.7152465,6.91699233 11.6381539,6.95800755 11.5717947,7.01074219 C11.5054355,7.06347683 11.4527393,7.12695275 11.4137045,7.20117188 C11.3746697,7.275391 11.3551525,7.35742143 11.3551525,7.44726562 C11.3551525,7.61914148 11.4381003,7.75976508 11.6039983,7.86914062 C11.7698963,7.97851617 12.0382567,8.06835902 12.4090875,8.13867188 C12.729173,8.19726592 13.0365676,8.27246048 13.3312805,8.36425781 C13.6259934,8.45605515 13.886547,8.57910079 14.1129489,8.73339844 C14.3393509,8.88769608 14.5198842,9.08007697 14.6545544,9.31054688 C14.7892245,9.54101678 14.8565586,9.82421707 14.8565586,10.1601562 C14.8565586,10.4414077 14.7921521,10.7011707 14.6633372,10.9394531 C14.5345223,11.1777356 14.3500855,11.3837882 14.1100213,11.5576172 C13.8699572,11.7314462 13.580128,11.8681636 13.240525,11.9677734 C12.9009221,12.0673833 12.5183866,12.1171875 12.092907,12.1171875 C11.6361996,12.1171875 11.2331711,12.052735 10.8838094,11.9238281 C10.5344478,11.7949212 10.241691,11.6279307 10.0055303,11.4228516 C9.76936964,11.2177724 9.59078801,10.987306 9.46978006,10.7314453 C9.34877211,10.4755847 9.28826904,10.2207044 9.28826904,9.96679688 L11.1326552,9.96679688 C11.1404621,10.2597671 11.2380477,10.4736321 11.4254149,10.6083984 C11.612782,10.7431647 11.8528426,10.8105469 12.1456037,10.8105469 C12.414944,10.8105469 12.6169462,10.7558599 12.7516163,10.6464844 C12.8862865,10.5371088 12.9536205,10.3945321 12.9536205,10.21875 Z" id="vs" fill="#FFFFFF"></path>
            </g>
        </g>
    </g>
</svg>