<?xml version="1.0" encoding="UTF-8"?>
<svg width="18px" height="55px" viewBox="0 0 18 55" version="1.1" xmlns="http://www.w3.org/2000/svg" xmlns:xlink="http://www.w3.org/1999/xlink">
    <!-- Generator: Sketch 47 (45396) - http://www.bohemiancoding.com/sketch -->
    <title>icon_undown_set</title>
    <desc>Created with Sketch.</desc>
    <defs>
        <path d="M2,0 L16,0 L16,0 C17.1045695,-2.02906125e-16 18,0.8954305 18,2 L18,28 L0,28 L0,2 L0,2 C-1.3527075e-16,0.8954305 0.8954305,2.02906125e-16 2,0 Z" id="path-1"></path>
        <path d="M0,27 L18,27 L18,53 L18,53 C18,54.1045695 17.1045695,55 16,55 L2,55 L2,55 C0.8954305,55 1.3527075e-16,54.1045695 0,53 L0,27 Z" id="path-2"></path>
    </defs>
    <g id="Page-1" stroke="none" stroke-width="1" fill="none" fill-rule="evenodd">
        <g id="icon_undown_set">
            <g id="Rectangle">
                <use fill="#FCFCFC" fill-rule="evenodd" xlink:href="#path-1"></use>
                <path stroke="#E0E4E5" stroke-width="1" d="M0.5,27.5 L17.5,27.5 L17.5,2 C17.5,1.17157288 16.8284271,0.5 16,0.5 L2,0.5 C1.17157288,0.5 0.5,1.17157288 0.5,2 L0.5,27.5 Z"></path>
            </g>
            <g id="Rectangle-Copy">
                <use fill="#FCFCFC" fill-rule="evenodd" xlink:href="#path-2"></use>
                <path stroke="#E0E4E5" stroke-width="1" d="M0.5,27.5 L0.5,53 C0.5,53.8284271 1.17157288,54.5 2,54.5 L16,54.5 C16.8284271,54.5 17.5,53.8284271 17.5,53 L17.5,27.5 L0.5,27.5 Z"></path>
            </g>
            <polygon id="Path" fill="#707070" points="14 14.5 10.7354545 11 10.7354545 13.625 5 13.625 5 15.375 10.7354545 15.375 10.7354545 18"></polygon>
            <polygon id="Path-Copy" fill="#707070" transform="translate(9.500000, 40.500000) scale(-1, 1) translate(-9.500000, -40.500000) " points="14 40.5 10.7354545 37 10.7354545 39.625 5 39.625 5 41.375 10.7354545 41.375 10.7354545 44"></polygon>
        </g>
    </g>
</svg>