<?xml version="1.0" encoding="UTF-8"?>
<svg width="20px" height="20px" viewBox="0 0 20 20" version="1.1" xmlns="http://www.w3.org/2000/svg" xmlns:xlink="http://www.w3.org/1999/xlink">
    <!-- Generator: Sketch 47 (45396) - http://www.bohemiancoding.com/sketch -->
    <title>icon_search2</title>
    <desc>Created with Sketch.</desc>
    <defs></defs>
    <g id="Symbols" stroke="none" stroke-width="1" fill="none" fill-rule="evenodd">
        <g id="icon_search2" stroke="#FFFFFF" fill-rule="nonzero" fill="#FFFFFF">
            <g transform="translate(0.000000, 1.000000)" id="-copy">
                <path d="M16.427673,7.8424762 C16.427673,8.9167003 16.223574,9.9300366 15.815369,10.8825153 C15.407163,11.834994 14.848575,12.6621342 14.139587,13.3639606 C13.430599,14.065787 12.603459,14.6207945 11.658142,15.0289997 C10.712825,15.4372048 9.703069,15.6413043 8.628845,15.6413043 C7.554621,15.6413043 6.544866,15.4372048 5.599548,15.0289997 C4.654231,14.6207945 3.827091,14.065787 3.118103,13.3639606 C2.409115,12.6621342 1.850527,11.834994 1.442322,10.8825153 C1.034117,9.9300366 0.830017,8.9167003 0.830017,7.8424762 C0.830017,6.7682521 1.034117,5.7584966 1.442322,4.8131793 C1.850527,3.8678621 2.409115,3.0443026 3.118103,2.3424762 C3.827091,1.6406498 4.654231,1.0856423 5.599548,0.6774372 C6.544866,0.269232 7.554621,0.0651325 8.628845,0.0651325 C9.703069,0.0651325 10.712825,0.269232 11.658142,0.6774372 C12.603459,1.0856423 13.430599,1.6406498 14.139587,2.3424762 C14.848575,3.0443026 15.407163,3.8678621 15.815369,4.8131793 C16.223574,5.7584966 16.427673,6.7682521 16.427673,7.8424762 Z M8.628845,13.8151325 C9.445256,13.8151325 10.215105,13.657582 10.938416,13.3424762 C11.661726,13.0273705 12.295509,12.601268 12.839783,12.0641559 C13.384056,11.5270438 13.810159,10.8968418 14.118103,10.1735309 C14.426047,9.45022 14.580017,8.6732095 14.580017,7.8424762 C14.580017,7.0260659 14.426047,6.2562168 14.118103,5.5329059 C13.810159,4.809595 13.384056,4.179393 12.839783,3.6422809 C12.295509,3.1051688 11.661726,2.6790663 10.938416,2.3639606 C10.215105,2.0488549 9.445256,1.8913043 8.628845,1.8913043 C7.812435,1.8913043 7.042586,2.0488549 6.319275,2.3639606 C5.595964,2.6790663 4.962181,3.1051688 4.417908,3.6422809 C3.873634,4.179393 3.447532,4.809595 3.139587,5.5329059 C2.831643,6.2562168 2.677673,7.0260659 2.677673,7.8424762 C2.677673,8.6732095 2.831643,9.45022 3.139587,10.1735309 C3.447532,10.8968418 3.873634,11.5270438 4.417908,12.0641559 C4.962181,12.601268 5.595964,13.0273705 6.319275,13.3424762 C7.042586,13.657582 7.812435,13.8151325 8.628845,13.8151325 Z M14.107361,14.6530231 L15.439392,13.3424762 L19.156189,17.0592731 L17.845642,18.3913043 L14.107361,14.6530231 Z"></path>
            </g>
        </g>
    </g>
</svg>