<?xml version="1.0" encoding="UTF-8"?>
<svg width="22px" height="22px" viewBox="0 0 22 22" version="1.1" xmlns="http://www.w3.org/2000/svg" xmlns:xlink="http://www.w3.org/1999/xlink">
    <!-- Generator: Sketch 46.2 (44496) - http://www.bohemiancoding.com/sketch -->
    <title>mainmenu_color_006</title>
    <desc>Created with Sketch.</desc>
    <defs></defs>
    <g id="Symbols" stroke="none" stroke-width="1" fill="none" fill-rule="evenodd">
        <g id="mainmenu_color_006">
            <g>
                <path d="M12.2552693,3 C13.1920422,3.09400752 14.0731809,3.35252432 14.8987119,3.77555817 C15.724243,4.19859201 16.4385216,4.74500253 17.0415691,5.41480611 C17.6446166,6.08460969 18.1217781,6.85134703 18.4730679,7.71504113 C18.8243577,8.57873522 19,9.49823249 19,10.4735605 C19,11.3783829 18.8477767,12.2361887 18.5433255,13.0470035 C18.2388744,13.8578184 17.8231876,14.5863657 17.2962529,15.2326675 L12.2552693,10.173913 L12.2552693,3 Z M10.7447307,3 L10.7447307,10.7908343 L16.2423888,16.3078731 C15.5983574,16.8366654 14.8723694,17.2508798 14.0644028,17.5505288 C13.2564362,17.8501778 12.4016439,18 11.5,18 C10.4695499,18 9.49766265,17.8031747 8.58430913,17.4095182 C7.67095562,17.0158617 6.87471066,16.4782643 6.19555035,15.7967098 C5.51639005,15.1151552 4.98068112,14.319041 4.58840749,13.4083431 C4.19613387,12.4976453 4,11.5193942 4,10.4735605 C4,9.49823249 4.17564227,8.57873522 4.52693208,7.71504113 C4.8782219,6.85134703 5.3553834,6.08460969 5.95843091,5.41480611 C6.56147843,4.74500253 7.27282963,4.19859201 8.09250585,3.77555817 C8.91218208,3.35252432 9.79624819,3.09400752 10.7447307,3 Z" id="" fill="#1F8EFA"></path>
                <rect id="Rectangle-4" x="0" y="0" width="22" height="22"></rect>
            </g>
        </g>
    </g>
</svg>