<?xml version="1.0" encoding="UTF-8"?>
<svg width="22px" height="22px" viewBox="0 0 22 22" version="1.1" xmlns="http://www.w3.org/2000/svg" xmlns:xlink="http://www.w3.org/1999/xlink">
    <!-- Generator: Sketch 46.2 (44496) - http://www.bohemiancoding.com/sketch -->
    <title>mainmenu_color_007</title>
    <desc>Created with Sketch.</desc>
    <defs></defs>
    <g id="Symbols" stroke="none" stroke-width="1" fill="none" fill-rule="evenodd">
        <g id="mainmenu_color_007">
            <g>
                <path d="M19.4228516,3.95214844 C19.4228516,3.75423078 19.351726,3.57796301 19.2094727,3.42333984 C19.0672193,3.26871667 18.8971364,3.18522142 18.6992188,3.17285156 L4.375,3.17285156 C4.15234264,3.17285156 3.9637052,3.25016199 3.80908203,3.40478516 C3.65445886,3.55940833 3.57714844,3.74186093 3.57714844,3.95214844 C3.57714844,4.06347712 3.59879536,4.16552688 3.64208984,4.25830078 C3.68538433,4.35107468 3.73795542,4.43456994 3.79980469,4.50878906 L3.81835938,4.50878906 L3.81835938,4.52734375 L9.92285156,11.0771484 L9.92285156,19 L13.0957031,17.4228516 L13.0957031,11.0771484 L19.2001953,4.50878906 C19.2620446,4.43456994 19.3146157,4.35107468 19.3579102,4.25830078 C19.4012046,4.16552688 19.4228516,4.06347712 19.4228516,3.95214844 Z" id="" fill="#1F8EFA"></path>
                <rect id="Rectangle-4" x="0" y="0" width="22" height="22"></rect>
            </g>
        </g>
    </g>
</svg>