<?xml version="1.0" encoding="UTF-8"?>
<svg width="22px" height="22px" viewBox="0 0 22 22" version="1.1" xmlns="http://www.w3.org/2000/svg" xmlns:xlink="http://www.w3.org/1999/xlink">
    <!-- Generator: Sketch 46.2 (44496) - http://www.bohemiancoding.com/sketch -->
    <title>mainmenu_color_004</title>
    <desc>Created with Sketch.</desc>
    <defs></defs>
    <g id="Symbols" stroke="none" stroke-width="1" fill="none" fill-rule="evenodd">
        <g id="mainmenu_color_004">
            <g>
                <path d="M10.1523438,5.74999998 C10.1523438,6.50911838 9.88379174,7.15722388 9.34667968,7.69433598 C8.80956762,8.23144798 8.16146212,8.49999998 7.40234375,8.49999998 C6.64322537,8.49999998 5.99511987,8.23144798 5.45800781,7.69433598 C4.92089575,7.15722388 4.65234375,6.50911838 4.65234375,5.74999998 C4.65234375,4.99088163 4.92089575,4.34277613 5.45800781,3.80566407 C5.99511987,3.26855201 6.64322537,3 7.40234375,3 C8.16146212,3 8.80956762,3.26855201 9.34667968,3.80566407 C9.88379174,4.34277613 10.1523438,4.99088163 10.1523438,5.74999998 Z M17.5,5.74999998 C17.5,6.50911838 17.231448,7.15722388 16.694336,7.69433598 C16.1572239,8.23144798 15.5091184,8.49999998 14.75,8.49999998 C13.9908816,8.49999998 13.3427761,8.23144798 12.8056641,7.69433598 C12.268552,7.15722388 12,6.50911838 12,5.74999998 C12,4.99088163 12.268552,4.34277613 12.8056641,3.80566407 C13.3427761,3.26855201 13.9908816,3 14.75,3 C15.5091184,3 16.1572239,3.26855201 16.694336,3.80566407 C17.231448,4.34277613 17.5,4.99088163 17.5,5.74999998 Z M14.75,9.40234378 C15.6380253,9.40234378 16.4687462,9.54915218 17.2421875,9.84277348 C18.0156289,10.1363947 18.6923799,10.5624972 19.272461,11.1210938 C19.852542,11.6796903 20.3108707,12.3528607 20.647461,13.140625 C20.9840512,13.9283894 21.1523438,14.8235627 21.1523438,15.8261719 L14.75,15.8261719 C14.75,14.5943949 14.5029322,13.4736379 14.0087891,12.4638672 C13.514646,11.4540965 12.8378949,10.619795 11.9785157,9.96093748 C12.3938823,9.78906168 12.8343076,9.65299528 13.2998047,9.55273438 C13.7653018,9.45247348 14.2486954,9.40234378 14.75,9.40234378 Z M11.0761719,10.4335938 C11.9069052,10.9778673 12.5729142,11.7047481 13.0742188,12.6142578 C13.5755234,13.5237676 13.8261719,14.5943949 13.8261719,15.8261719 L1,15.8261719 C1,14.8235627 1.16829259,13.9283894 1.50488281,13.140625 C1.84147303,12.3528607 2.29980179,11.6796903 2.87988282,11.1210938 C3.45996383,10.5624972 4.13671488,10.1363947 4.91015626,9.84277348 C5.68359762,9.54915218 6.51431847,9.40234378 7.40234376,9.40234378 C8.08984718,9.40234378 8.74511408,9.49186108 9.36816407,9.67089848 C9.99121406,9.84993578 10.5605443,10.104165 11.0761719,10.4335938 Z" id="" fill="#1F8EFA" fill-rule="nonzero"></path>
                <rect id="Rectangle-4" x="0" y="0" width="22" height="22"></rect>
            </g>
        </g>
    </g>
</svg>