<?xml version="1.0" encoding="UTF-8"?>
<svg width="22px" height="22px" viewBox="0 0 22 22" version="1.1" xmlns="http://www.w3.org/2000/svg" xmlns:xlink="http://www.w3.org/1999/xlink">
    <!-- Generator: Sketch 46.2 (44496) - http://www.bohemiancoding.com/sketch -->
    <title>mainmenu_color_003</title>
    <desc>Created with Sketch.</desc>
    <defs></defs>
    <g id="Symbols" stroke="none" stroke-width="1" fill="none" fill-rule="evenodd">
        <g id="mainmenu_color_003">
            <g>
                <path d="M12.7708334,15.4583333 L19,15.4583333 L19,17.2291666 L12.7708334,17.2291666 L12.7708334,15.4583333 Z M9.22916664,4.79166665 L19,4.79166665 L19,6.56249999 L9.22916664,6.56249999 L9.22916664,4.79166665 Z M10.1041667,15.4583333 L3,15.4583333 L3,17.2291666 L10.1041667,17.2291666 L10.1041667,19 L11.8958333,19 L11.8958333,13.6666667 L10.1041667,13.6666667 L10.1041667,15.4583333 Z M15.4375,10.125 L15.4375,8.33333335 L13.6666667,8.33333335 L13.6666667,13.6666667 L15.4375,13.6666667 L15.4375,11.8958333 L19,11.8958333 L19,10.125 L15.4375,10.125 Z M3,10.125 L12.7708334,10.125 L12.7708334,11.8958333 L3,11.8958333 L3,10.125 Z M6.5625,8.33333335 L8.33333333,8.33333335 L8.33333333,3 L6.5625,3 L6.5625,4.79166665 L3,4.79166665 L3,6.56249999 L6.5625,6.56249999 L6.5625,8.33333335 Z" id="" stroke="#1F8EFA" stroke-width="0.5" fill="#1F8EFA" fill-rule="nonzero"></path>
                <rect id="Rectangle-4" x="0" y="0" width="22" height="22"></rect>
            </g>
        </g>
    </g>
</svg>