<?xml version="1.0" encoding="UTF-8"?>
<svg width="22px" height="30px" viewBox="0 0 22 30" version="1.1" xmlns="http://www.w3.org/2000/svg" xmlns:xlink="http://www.w3.org/1999/xlink">
    <!-- Generator: Sketch 46.2 (44496) - http://www.bohemiancoding.com/sketch -->
    <title>mainmenu006</title>
    <desc>Created with Sketch.</desc>
    <defs></defs>
    <g id="Symbols" stroke="none" stroke-width="1" fill="none" fill-rule="evenodd">
        <g id="mainmenu006">
            <g>
                <rect id="Rectangle-4" x="0" y="0" width="22" height="30"></rect>
                <path d="M11.8398438,5.37890625 C12.8815156,5.48307344 13.8613235,5.76952891 14.7792969,6.23828125 C15.6972702,6.70703359 16.4915331,7.31249629 17.1621094,8.0546875 C17.8326856,8.79687871 18.3632793,9.64647959 18.7539062,10.6035156 C19.1445332,11.5605517 19.3398438,12.5794217 19.3398438,13.6601562 C19.3398438,14.6627654 19.1705746,15.6132768 18.8320312,16.5117188 C18.4934879,17.4101607 18.0312529,18.2174443 17.4453125,18.9335938 L11.8398438,13.328125 L11.8398438,5.37890625 Z M10.1601562,5.37890625 L10.1601562,14.0117188 L16.2734375,20.125 C15.5572881,20.7109404 14.7500045,21.1699202 13.8515625,21.5019531 C12.9531205,21.833986 12.0026092,22 11,22 C9.85416094,22 8.77344258,21.7819032 7.7578125,21.3457031 C6.74218242,20.909503 5.85677461,20.3138059 5.1015625,19.5585938 C4.34635039,18.8033816 3.75065322,17.921229 3.31445312,16.9121094 C2.87825303,15.9029897 2.66015625,14.8190162 2.66015625,13.6601562 C2.66015625,12.5794217 2.8554668,11.5605517 3.24609375,10.6035156 C3.6367207,9.64647959 4.16731436,8.79687871 4.83789062,8.0546875 C5.50846689,7.31249629 6.29947461,6.70703359 7.2109375,6.23828125 C8.12240039,5.76952891 9.10546348,5.48307344 10.1601562,5.37890625 Z" id="" fill="#FFFFFF"></path>
            </g>
        </g>
    </g>
</svg>