<?xml version="1.0" encoding="UTF-8"?>
<svg width="22px" height="22px" viewBox="0 0 22 22" version="1.1" xmlns="http://www.w3.org/2000/svg" xmlns:xlink="http://www.w3.org/1999/xlink">
    <!-- Generator: Sketch 46.2 (44496) - http://www.bohemiancoding.com/sketch -->
    <title>mainmenu_color_001</title>
    <desc>Created with Sketch.</desc>
    <defs></defs>
    <g id="Symbols" stroke="none" stroke-width="1" fill="none" fill-rule="evenodd">
        <g id="mainmenu_color_001">
            <g>
                <path d="M5.33984375,3.83984375 L5.33984375,16.3398438 L17,16.3398438 L17,18 L4.5,18 C4.26562383,18 4.06705811,17.9186206 3.90429688,17.7558594 C3.74153564,17.5930981 3.66015625,17.3945324 3.66015625,17.1601562 L3.66015625,3.83984375 L5.33984375,3.83984375 Z M18.6601562,2.16015625 C18.8945324,2.16015625 19.0930981,2.24153564 19.2558594,2.40429688 C19.4186206,2.56705811 19.5,2.76562383 19.5,3 L19.5,14.6601562 C19.5,14.8945324 19.4186206,15.0930981 19.2558594,15.2558594 C19.0930981,15.4186206 18.8945324,15.5 18.6601562,15.5 L7,15.5 C6.76562383,15.5 6.56705811,15.4186206 6.40429688,15.2558594 C6.24153564,15.0930981 6.16015625,14.8945324 6.16015625,14.6601562 L6.16015625,3 C6.16015625,2.76562383 6.24153564,2.56705811 6.40429688,2.40429688 C6.56705811,2.24153564 6.76562383,2.16015625 7,2.16015625 L18.6601562,2.16015625 Z M17.8398438,9.6601562 L17.8398438,3.83984375 L13.6601562,3.83984375 L13.6601562,9.6601562 L15.75,8 L17.8398438,9.6601562 Z" id="" fill="#1F8EFA" fill-rule="nonzero"></path>
                <rect id="Rectangle-4" opacity="0" x="0" y="0" width="22" height="22"></rect>
            </g>
        </g>
    </g>
</svg>