<?xml version="1.0" encoding="UTF-8"?>
<svg width="22px" height="22px" viewBox="0 0 22 22" version="1.1" xmlns="http://www.w3.org/2000/svg" xmlns:xlink="http://www.w3.org/1999/xlink">
    <!-- Generator: Sketch 46.2 (44496) - http://www.bohemiancoding.com/sketch -->
    <title>mainmenu_color_005</title>
    <desc>Created with Sketch.</desc>
    <defs></defs>
    <g id="Symbols" stroke="none" stroke-width="1" fill="none" fill-rule="evenodd">
        <g id="mainmenu_color_005">
            <g>
                <path d="M8.48973607,7.28839392 L12,7.28839392 L12,9.10316529 L8.48973607,9.10316529 L8.48973607,7.28839392 Z M8.48973607,9.98944902 L15.5102639,9.98944902 L15.5102639,11.8042204 L8.48973607,11.8042204 L8.48973607,9.98944902 Z M8.48973607,12.6905041 L15.5102639,12.6905041 L15.5102639,14.5052755 L8.48973607,14.5052755 L8.48973607,12.6905041 Z M18.1378299,1.88628371 C18.3704802,1.88628371 18.5723354,1.9742078 18.7434018,2.15005862 C18.9144681,2.32590944 19,2.54044422 19,2.7936694 L19,18.0926143 C19,18.3458395 18.9144681,18.5603743 18.7434018,18.7362251 C18.5723354,18.9120759 18.3704802,19 18.1378299,19 L5.86217009,19 C5.62951985,19 5.42766459,18.9120759 5.25659824,18.7362251 C5.0855319,18.5603743 5,18.3458395 5,18.0926143 L5,2.7936694 C5,2.54044422 5.0855319,2.32590944 5.25659824,2.15005862 C5.42766459,1.9742078 5.62951985,1.88628371 5.86217009,1.88628371 L9.37243402,1.88628371 L9.37243402,1 L14.627566,1 L14.627566,1.88628371 L18.1378299,1.88628371 Z M17.255132,17.2063306 L17.255132,3.7010551 L14.627566,3.7010551 L14.627566,4.58733881 L9.37243402,4.58733881 L9.37243402,3.7010551 L6.74486804,3.7010551 L6.74486804,17.2063306 L17.255132,17.2063306 Z" id="" fill="#1F8EFA" fill-rule="nonzero"></path>
                <rect id="Rectangle-4" x="0" y="0" width="22" height="22"></rect>
            </g>
        </g>
    </g>
</svg>