<?xml version="1.0" encoding="UTF-8"?>
<svg width="40px" height="40px" viewBox="0 0 40 40" version="1.1" xmlns="http://www.w3.org/2000/svg" xmlns:xlink="http://www.w3.org/1999/xlink">
    <!-- Generator: Sketch 46.2 (44496) - http://www.bohemiancoding.com/sketch -->
    <title>media_sq_color_mass</title>
    <desc>Created with Sketch.</desc>
    <defs></defs>
    <g id="Symbols" stroke="none" stroke-width="1" fill="none" fill-rule="evenodd">
        <g id="media_sq_color_mass">
            <g>
                <rect id="Rectangle" x="0" y="0" width="40" height="40"></rect>
                <path d="M13.0078125,12.0078125 L13.0078125,27.0078125 L27,27.0078125 L27,29 L12,29 C11.7187486,29 11.4804697,28.9023447 11.2851562,28.7070312 C11.0898428,28.5117178 10.9921875,28.2734389 10.9921875,27.9921875 L10.9921875,12.0078125 L13.0078125,12.0078125 Z M28.9921875,9.9921875 C29.2734389,9.9921875 29.5117178,10.0898428 29.7070312,10.2851562 C29.9023447,10.4804697 30,10.7187486 30,11 L30,24.9921875 C30,25.2734389 29.9023447,25.5117178 29.7070312,25.7070312 C29.5117178,25.9023447 29.2734389,26 28.9921875,26 L15,26 C14.7187486,26 14.4804697,25.9023447 14.2851562,25.7070312 C14.0898428,25.5117178 13.9921875,25.2734389 13.9921875,24.9921875 L13.9921875,11 C13.9921875,10.7187486 14.0898428,10.4804697 14.2851562,10.2851562 C14.4804697,10.0898428 14.7187486,9.9921875 15,9.9921875 L28.9921875,9.9921875 Z M28.0078125,24.0078125 L28.0078125,12.0078125 L16.0078125,12.0078125 L16.0078125,24.0078125 L28.0078125,24.0078125 Z M16.9921875,14 L27,14 L27,15.9921875 L16.9921875,15.9921875 L16.9921875,14 Z M16.9921875,17 L27,17 L27,18.9921875 L16.9921875,18.9921875 L16.9921875,17 Z M16.9921875,20 L24,20 L24,21.9921875 L16.9921875,21.9921875 L16.9921875,20 Z" fill="#8324ED"></path>
            </g>
        </g>
    </g>
</svg>