<?xml version="1.0" encoding="UTF-8"?>
<svg width="40px" height="40px" viewBox="0 0 40 40" version="1.1" xmlns="http://www.w3.org/2000/svg" xmlns:xlink="http://www.w3.org/1999/xlink">
    <!-- Generator: Sketch 46.2 (44496) - http://www.bohemiancoding.com/sketch -->
    <title>media_sq_fill_comm</title>
    <desc>Created with Sketch.</desc>
    <defs></defs>
    <g id="Symbols" stroke="none" stroke-width="1" fill="none" fill-rule="evenodd">
        <g id="media_sq_fill_comm">
            <g>
                <rect id="Rectangle-2-Copy" x="0" y="0" width="40" height="40"></rect>
                <path d="M25.1862242,19.5660834 C24.2954984,19.5660834 23.5730686,18.8355771 23.5730686,17.9341547 C23.5730686,17.0331893 24.2954984,16.3026829 25.1862242,16.3026829 C26.0771758,16.3026829 26.7993798,17.0331893 26.7993798,17.9341547 C26.7993798,18.8355771 26.0771758,19.5660834 25.1862242,19.5660834 M20.2259005,19.5660834 C19.3349489,19.5660834 18.6127449,18.8355771 18.6127449,17.9341547 C18.6127449,17.0331893 19.3349489,16.3026829 20.2259005,16.3026829 C21.1166263,16.3026829 21.8390561,17.0331893 21.8390561,17.9341547 C21.8390561,18.8355771 21.1166263,19.5660834 20.2259005,19.5660834 M15.265351,19.5660834 C14.3746252,19.5660834 13.6521953,18.8355771 13.6521953,17.9341547 C13.6521953,17.0331893 14.3746252,16.3026829 15.265351,16.3026829 C16.1563026,16.3026829 16.8787325,17.0331893 16.8787325,17.9341547 C16.8787325,18.8355771 16.1563026,19.5660834 15.265351,19.5660834 M31,18.0417769 C31,12.4952301 26.0758204,8 19.9997741,8 C13.9241796,8 9,12.4952301 9,18.0417769 C9,23.0872289 13.0775044,27.2630196 18.3895552,27.9741036 L23.9051423,32 L23.135951,27.6663176 C27.9304637,26.5827827 31,22.7527086 31,18.0417769" id="Fill-1" fill="#FFFFFF"></path>
            </g>
        </g>
    </g>
</svg>