<?xml version="1.0" encoding="UTF-8"?>
<svg width="40px" height="40px" viewBox="0 0 40 40" version="1.1" xmlns="http://www.w3.org/2000/svg" xmlns:xlink="http://www.w3.org/1999/xlink">
    <!-- Generator: Sketch 46.2 (44496) - http://www.bohemiancoding.com/sketch -->
    <title>미디어스퀘어2-블로그</title>
    <desc>Created with Sketch.</desc>
    <defs></defs>
    <g id="Symbols" stroke="none" stroke-width="1" fill="none" fill-rule="evenodd">
        <g id="미디어스퀘어2-블로그">
            <g id="미디어스퀘어-블로그">
                <rect id="Rectangle-2-Copy" x="0" y="0" width="40" height="40"></rect>
                <path d="M28.4992809,18.7692308 C28.8647195,19.0523519 29.0930315,18.9394724 29.5656406,19.1917067 C30.0382498,19.4439411 29.9992155,19.8197095 29.9992155,20.2307692 L29.9992155,24.6153846 C29.9992155,25.8333394 29.5617389,26.8685855 28.6867727,27.7211538 C27.8118064,28.5737222 26.7493634,29 25.4994116,29 L16.4998039,29 C15.2498521,29 14.187409,28.5737222 13.3124428,27.7211538 C12.4374766,26.8685855 12,25.8333394 12,24.6153846 L12,14.3846154 C12,13.1666606 12.4374766,12.1314145 13.3124428,11.2788462 C14.187409,10.4262778 15.2498521,10 16.4998039,10 L23.6340384,10 C24.8839901,10 25.9464332,10.4262778 26.8213994,11.2788462 C27.6963657,12.1314145 28.1338422,13.1666606 28.1338422,14.3846154 L28.1338422,17.3076923 C28.1338422,17.7187521 28.0837734,17.804135 28.1338422,18.0043808 C28.1839111,18.2046266 28.1338422,18.4861097 28.4992809,18.7692308 Z M18.181867,14.3846154 C17.6890098,14.3846154 17.2737381,14.5254393 16.9360396,14.8070913 C16.5983411,15.0887434 16.4294944,15.4350941 16.4294944,15.8461538 C16.4294944,16.2572136 16.5983411,16.6035643 16.9360396,16.8852163 C17.2737381,17.1668684 17.6890098,17.3076923 18.181867,17.3076923 L22.7270835,17.3076923 C23.2199407,17.3076923 23.6352124,17.1668684 23.9729109,16.8852163 C24.3106094,16.6035643 24.4794561,16.2572136 24.4794561,15.8461538 C24.4794561,15.4350941 24.3106094,15.0887434 23.9729109,14.8070913 C23.6352124,14.5254393 23.2199407,14.3846154 22.7270835,14.3846154 L18.181867,14.3846154 Z M23.999477,24.6153846 C24.4213357,24.6153846 24.7767854,24.4745607 25.0658368,24.1929087 C25.3548881,23.9112566 25.4994116,23.5649059 25.4994116,23.1538462 C25.4994116,22.7427864 25.3548881,22.3964357 25.0658368,22.1147837 C24.7767854,21.8331316 24.4213357,21.6923077 23.999477,21.6923077 L17.9294291,21.6923077 C17.5075703,21.6923077 17.1521206,21.8331316 16.8630693,22.1147837 C16.5740179,22.3964357 16.4294944,22.7427864 16.4294944,23.1538462 C16.4294944,23.5649059 16.5740179,23.9112566 16.8630693,24.1929087 C17.1521206,24.4745607 17.5075703,24.6153846 17.9294291,24.6153846 L23.999477,24.6153846 Z" id="" fill="#FFFFFF"></path>
            </g>
        </g>
    </g>
</svg>