<?xml version="1.0" encoding="UTF-8"?>
<svg width="40px" height="40px" viewBox="0 0 40 40" version="1.1" xmlns="http://www.w3.org/2000/svg" xmlns:xlink="http://www.w3.org/1999/xlink">
    <!-- Generator: Sketch 46.2 (44496) - http://www.bohemiancoding.com/sketch -->
    <title>media_sq_color_instagram</title>
    <desc>Created with Sketch.</desc>
    <defs></defs>
    <g id="Symbols" stroke="none" stroke-width="1" fill="none" fill-rule="evenodd">
        <g id="media_sq_color_instagram">
            <g>
                <rect id="Rectangle" x="0" y="0" width="40" height="40"></rect>
                <path d="M20,11.7890625 C18.6718684,11.7890625 17.7968771,11.8007811 17.375,11.8242188 C16.9531229,11.8476564 16.4765652,11.859375 15.9453125,11.859375 C15.4765602,11.8750001 15.0937515,11.9257808 14.796875,12.0117188 C14.4999985,12.0976567 14.2656259,12.1796871 14.09375,12.2578125 C13.8437487,12.3203128 13.6328134,12.4062495 13.4609375,12.515625 C13.2890616,12.6250005 13.1171884,12.7734366 12.9453125,12.9609375 C12.8046868,13.1328134 12.6718756,13.3085929 12.546875,13.4882812 C12.4218744,13.6679696 12.3203129,13.8749988 12.2421875,14.109375 C12.148437,14.2812509 12.0664066,14.5117173 11.9960938,14.8007812 C11.9257809,15.0898452 11.8750002,15.4765601 11.84375,15.9609375 C11.8281249,16.4765651 11.8164063,16.9492166 11.8085938,17.3789062 C11.8007812,17.8085959 11.796875,18.6796809 11.796875,19.9921875 C11.796875,21.3203191 11.8007812,22.1992166 11.8085938,22.6289062 C11.8164063,23.0585959 11.8281249,23.5312474 11.84375,24.046875 C11.8750002,24.5312524 11.9335933,24.9179673 12.0195312,25.2070312 C12.1054692,25.4960952 12.1796872,25.7265616 12.2421875,25.8984375 C12.3203129,26.1484388 12.414062,26.3593741 12.5234375,26.53125 C12.632813,26.7031259 12.7734366,26.8749991 12.9453125,27.046875 C13.1171884,27.2031258 13.2968741,27.3398432 13.484375,27.4570312 C13.6718759,27.5742193 13.8749989,27.6718746 14.09375,27.75 C14.2656259,27.8437505 14.4999985,27.9257809 14.796875,27.9960938 C15.0937515,28.0664066 15.4765602,28.1015625 15.9453125,28.1015625 C16.4765652,28.1328127 16.9531229,28.1484375 17.375,28.1484375 L22.625,28.1484375 C23.0468771,28.1484375 23.5234348,28.1328127 24.0546875,28.1015625 C24.5234398,28.0703123 24.9062485,28.0156254 25.203125,27.9375 C25.5000015,27.8593746 25.7343741,27.7968752 25.90625,27.75 C26.1562513,27.6718746 26.3671866,27.5781255 26.5390625,27.46875 C26.7109384,27.3593745 26.8828116,27.2187509 27.0546875,27.046875 C27.1953132,26.8749991 27.3281244,26.6953134 27.453125,26.5078125 C27.5781256,26.3203116 27.6796871,26.1171886 27.7578125,25.8984375 C27.851563,25.7265616 27.9335934,25.4960952 28.0039062,25.2070312 C28.0742191,24.9179673 28.109375,24.5312524 28.109375,24.046875 C28.1250001,23.5312474 28.1367187,23.0585959 28.1445312,22.6289062 C28.1523438,22.1992166 28.15625,21.3203191 28.15625,19.9921875 C28.15625,18.6796809 28.1523438,17.8085959 28.1445312,17.3789062 C28.1367187,16.9492166 28.1250001,16.4765651 28.109375,15.9609375 C28.0781248,15.4765601 28.0234379,15.0898452 27.9453125,14.8007812 C27.8671871,14.5117173 27.8046877,14.2812509 27.7578125,14.109375 C27.6796871,13.8593737 27.585938,13.6484384 27.4765625,13.4765625 C27.367187,13.3046866 27.2265634,13.1328134 27.0546875,12.9609375 C26.8828116,12.8046867 26.7031259,12.6640631 26.515625,12.5390625 C26.3281241,12.4140619 26.1250011,12.3203128 25.90625,12.2578125 C25.7343741,12.148437 25.5000015,12.0585941 25.203125,11.9882812 C24.9062485,11.9179684 24.5234398,11.8750001 24.0546875,11.859375 C23.5234348,11.8281248 23.0468771,11.8085938 22.625,11.8007812 C22.2031229,11.7929687 21.3281316,11.7890625 20,11.7890625 Z M22.6601562,10.0078125 C23.0898459,10.0078125 23.5703098,10.0234373 24.1015625,10.0546875 C24.6328152,10.0703126 25.0976543,10.1249995 25.4960938,10.21875 C25.8945332,10.3125005 26.242186,10.4062495 26.5390625,10.5 C26.8671891,10.6562508 27.1835922,10.8124992 27.4882812,10.96875 C27.7929703,11.1250008 28.0781237,11.351561 28.34375,11.6484375 C28.6250014,11.945314 28.8515616,12.2382798 29.0234375,12.5273438 C29.1953134,12.8164077 29.3515618,13.1249984 29.4921875,13.453125 C29.6171881,13.7812516 29.7187496,14.140623 29.796875,14.53125 C29.8750004,14.921877 29.9296873,15.3749974 29.9609375,15.890625 C29.9765626,16.4218777 29.9882812,16.9023416 29.9960938,17.3320312 C30.0039063,17.7617209 30.0078125,18.6484308 30.0078125,19.9921875 C30.0078125,21.3515693 30.0039063,22.2460916 29.9960938,22.6757812 C29.9882812,23.1054709 29.9765626,23.5781224 29.9609375,24.09375 C29.9296873,24.6250027 29.8710942,25.093748 29.7851562,25.5 C29.6992183,25.906252 29.601563,26.257811 29.4921875,26.5546875 C29.3671869,26.8984392 29.2148446,27.2148423 29.0351562,27.5039062 C28.8554679,27.7929702 28.6250014,28.0781236 28.34375,28.359375 C28.0468735,28.6250013 27.7539077,28.8437491 27.4648438,29.015625 C27.1757798,29.1875009 26.8671891,29.3515617 26.5390625,29.5078125 C26.2265609,29.6328131 25.875002,29.7304684 25.484375,29.8007812 C25.093748,29.8710941 24.6328152,29.9218748 24.1015625,29.953125 C23.5703098,29.9687501 23.0898459,29.9804687 22.6601562,29.9882812 C22.2304666,29.9960938 21.3437567,30 20,30 C18.6562433,30 17.7695334,29.9960938 17.3398438,29.9882812 C16.9101541,29.9804687 16.4296902,29.9687501 15.8984375,29.953125 C15.3671848,29.9218748 14.9023457,29.8632817 14.5039062,29.7773438 C14.1054668,29.6914058 13.757814,29.601563 13.4609375,29.5078125 C13.1015607,29.3828119 12.7773452,29.2265634 12.4882812,29.0390625 C12.1992173,28.8515616 11.9218763,28.6250013 11.65625,28.359375 C11.3749986,28.0468734 11.1484384,27.7500014 10.9765625,27.46875 C10.8046866,27.1874986 10.6484382,26.8828141 10.5078125,26.5546875 C10.3828119,26.2265609 10.2812504,25.8671895 10.203125,25.4765625 C10.1249996,25.0859355 10.0703127,24.6250027 10.0390625,24.09375 C10.0234374,23.5781224 10.0117188,23.1054709 10.0039062,22.6757812 C9.99609371,22.2460916 9.9921875,21.3515693 9.9921875,19.9921875 C9.9921875,18.6484308 9.99609371,17.7617209 10.0039062,17.3320312 C10.0117188,16.9023416 10.0234374,16.4218777 10.0390625,15.890625 C10.0703127,15.3749974 10.1289058,14.9140645 10.2148438,14.5078125 C10.3007817,14.1015605 10.398437,13.7500015 10.5078125,13.453125 C10.6484382,13.1249984 10.8046866,12.8125015 10.9765625,12.515625 C11.1484384,12.2187485 11.3749986,11.9296889 11.65625,11.6484375 C11.9218763,11.3671861 12.2070297,11.1445321 12.5117188,10.9804688 C12.8164078,10.8164054 13.1328109,10.6562508 13.4609375,10.5 C13.7734391,10.3749994 14.124998,10.2734379 14.515625,10.1953125 C14.906252,10.1171871 15.3671848,10.0703126 15.8984375,10.0546875 C16.4296902,10.0234373 16.9101541,10.0078125 17.3398438,10.0078125 L22.6601562,10.0078125 Z M20,14.90625 C20.7187536,14.90625 21.3867157,15.0390612 22.0039062,15.3046875 C22.6210968,15.5703138 23.1601539,15.9296852 23.6210938,16.3828125 C24.0820336,16.8359398 24.4453112,17.3749969 24.7109375,18 C24.9765638,18.6250031 25.109375,19.289059 25.109375,19.9921875 C25.109375,20.7109411 24.9765638,21.3789032 24.7109375,21.9960938 C24.4453112,22.6132843 24.0820336,23.1523414 23.6210938,23.6132812 C23.1601539,24.0742211 22.6210968,24.4374987 22.0039062,24.703125 C21.3867157,24.9687513 20.7187536,25.1015625 20,25.1015625 C19.2812464,25.1015625 18.6132843,24.9687513 17.9960938,24.703125 C17.3789032,24.4374987 16.8398461,24.0703148 16.3789062,23.6015625 C15.9179664,23.1328102 15.5546888,22.5898468 15.2890625,21.9726562 C15.0234362,21.3554657 14.890625,20.695316 14.890625,19.9921875 C14.890625,19.3046841 15.0234362,18.6484406 15.2890625,18.0234375 C15.5546888,17.3984344 15.9179664,16.8554711 16.3789062,16.3945312 C16.8398461,15.9335914 17.3789032,15.5703138 17.9960938,15.3046875 C18.6132843,15.0390612 19.2812464,14.90625 20,14.90625 Z M20,23.34375 C20.9218796,23.34375 21.7109342,23.0195345 22.3671875,22.3710938 C23.0234408,21.722653 23.3515625,20.9296922 23.3515625,19.9921875 C23.3515625,19.0703079 23.0234408,18.2812533 22.3671875,17.625 C21.7109342,16.9687467 20.9218796,16.640625 20,16.640625 C19.0781204,16.640625 18.2890658,16.9687467 17.6328125,17.625 C16.9765592,18.2812533 16.6484375,19.0703079 16.6484375,19.9921875 C16.6484375,20.9296922 16.9765592,21.722653 17.6328125,22.3710938 C18.2890658,23.0195345 19.0781204,23.34375 20,23.34375 Z M26.5390625,14.6484375 C26.5390625,14.9765641 26.4218762,15.2578113 26.1875,15.4921875 C25.9531238,15.7265637 25.6718766,15.84375 25.34375,15.84375 C25.0156234,15.84375 24.7343762,15.7265637 24.5,15.4921875 C24.2656238,15.2578113 24.1484375,14.9765641 24.1484375,14.6484375 C24.1484375,14.3203109 24.2656238,14.0390637 24.5,13.8046875 C24.7343762,13.5703113 25.0156234,13.453125 25.34375,13.453125 C25.6718766,13.453125 25.9531238,13.5703113 26.1875,13.8046875 C26.4218762,14.0390637 26.5390625,14.3203109 26.5390625,14.6484375 Z" fill="#FF3378"></path>
            </g>
        </g>
    </g>
</svg>