<?xml version="1.0" encoding="UTF-8"?>
<svg width="40px" height="40px" viewBox="0 0 40 40" version="1.1" xmlns="http://www.w3.org/2000/svg" xmlns:xlink="http://www.w3.org/1999/xlink">
    <!-- Generator: Sketch 46.2 (44496) - http://www.bohemiancoding.com/sketch -->
    <title>미디어스퀘어2-매스미디어</title>
    <desc>Created with Sketch.</desc>
    <defs></defs>
    <g id="Symbols" stroke="none" stroke-width="1" fill="none" fill-rule="evenodd">
        <g id="미디어스퀘어2-매스미디어">
            <g id="미디어스퀘어-매스미디어">
                <rect id="Rectangle-2-Copy" x="0" y="0" width="40" height="40"></rect>
                <path d="M29.0456227,10 C29.3119619,10 29.537607,10.0924775 29.7225647,10.2774353 C29.9075225,10.462393 30,10.6880381 30,10.9543773 L30,24.2046856 C30,24.4710248 29.9075225,24.6966699 29.7225647,24.8816276 C29.537607,25.0665854 29.3119619,25.1590629 29.0456227,25.1590629 L15.7953144,25.1590629 C15.5289752,25.1590629 15.3033301,25.0665854 15.1183724,24.8816276 C14.9334146,24.6966699 14.8409371,24.4710248 14.8409371,24.2046856 L14.8409371,10.9543773 C14.8409371,10.6880381 14.9334146,10.462393 15.1183724,10.2774353 C15.3033301,10.0924775 15.5289752,10 15.7953144,10 L29.0456227,10 Z M24.3181258,22.3181258 L24.3181258,20.431566 L17.6818742,20.431566 L17.6818742,22.3181258 L24.3181258,22.3181258 Z M27.1590629,18.5228113 L27.1590629,16.6362515 L17.6818742,16.6362515 L17.6818742,18.5228113 L27.1590629,18.5228113 Z M27.1590629,14.7496917 L27.1590629,12.8409371 L17.6818742,12.8409371 L17.6818742,14.7496917 L27.1590629,14.7496917 Z M13.9087546,11.9087546 L13.9087546,26.1134402 L27.1590629,26.1134402 L27.1590629,28 L12.9543773,28 C12.6880381,28 12.462393,27.9075225 12.2774353,27.7225647 C12.0924775,27.537607 12,27.3119619 12,27.0456227 L12,11.9087546 L13.9087546,11.9087546 Z" id="" fill="#FFFFFF"></path>
            </g>
        </g>
    </g>
</svg>