<?xml version="1.0" encoding="UTF-8"?>
<svg width="40px" height="40px" viewBox="0 0 40 40" version="1.1" xmlns="http://www.w3.org/2000/svg" xmlns:xlink="http://www.w3.org/1999/xlink">
    <!-- Generator: Sketch 46.2 (44496) - http://www.bohemiancoding.com/sketch -->
    <title>media_sq_color_facebook</title>
    <desc>Created with Sketch.</desc>
    <defs></defs>
    <g id="Symbols" stroke="none" stroke-width="1" fill="none" fill-rule="evenodd">
        <g id="media_sq_color_facebook">
            <g>
                <rect id="Rectangle" x="0" y="0" width="40" height="40"></rect>
                <path d="M14.75,20.1011399 L14.75,16.0588889 L17.723064,16.0588889 L17.7240226,13.4240533 L17.8253739,12.3214984 C17.8985666,11.5252685 18.296421,10.7550886 19.008851,10.0130482 C19.7425003,9.24890661 20.6159002,8.83388193 21.6183258,8.77541295 C22.5707784,8.71985876 23.7056114,8.75543734 25.0238349,8.88169134 L25.25,8.9033525 L25.25,12.5709243 L25,12.5709243 L23.088962,12.5695792 L22.6385116,12.6164964 C22.3996714,12.6413731 22.2093889,12.7374657 22.0676359,12.8954632 C21.9158551,13.0930748 21.8327895,13.2981546 21.814423,13.5149581 C21.7925284,13.7734106 21.7815315,13.9414022 21.7815315,14.0099446 L21.7815315,16.0588889 L25.1694068,16.0588889 L24.6810755,20.1011399 L21.759009,20.1011399 L21.759009,29.25 L17.722973,29.25 L17.722973,20.1011399 L14.75,20.1011399 Z" fill="#287AD6" fill-rule="nonzero"></path>
            </g>
        </g>
    </g>
</svg>