<?xml version="1.0" encoding="UTF-8"?>
<svg width="40px" height="40px" viewBox="0 0 40 40" version="1.1" xmlns="http://www.w3.org/2000/svg" xmlns:xlink="http://www.w3.org/1999/xlink">
    <!-- Generator: Sketch 46.2 (44496) - http://www.bohemiancoding.com/sketch -->
    <title>media_sq_color_all</title>
    <desc>Created with Sketch.</desc>
    <defs></defs>
    <g id="Symbols" stroke="none" stroke-width="1" fill="none" fill-rule="evenodd">
        <g id="media_sq_color_all">
            <g>
                <rect id="Rectangle" x="0" y="0" width="40" height="40"></rect>
                <path d="M30.0597015,11 C30.3134341,11 30.5335812,11.0928088 30.7201493,11.2784291 C30.9067174,11.4640494 31,11.6830781 31,11.9355217 L31,25.2555686 C31,25.5080122 30.9067174,25.7270409 30.7201493,25.9126612 C30.5335812,26.0982815 30.3134341,26.1910903 30.0597015,26.1910903 L22.4029851,26.1910903 L24.3283582,29.042204 L24.3283582,30 L16.6716418,30 L16.6716418,29.042204 L18.5970149,26.1910903 L10.9402985,26.1910903 C10.6865659,26.1910903 10.4664188,26.0982815 10.2798507,25.9126612 C10.0932826,25.7270409 10,25.5080122 10,25.2555686 L10,11.9355217 C10,11.6830781 10.0932826,11.4640494 10.2798507,11.2784291 C10.4664188,11.0928088 10.6865659,11 10.9402985,11 L30.0597015,11 Z M29.0970149,23.3399766 L29.0970149,12.8933177 L11.9029851,12.8933177 L11.9029851,23.3399766 L29.0970149,23.3399766 Z" fill="#2D3842" fill-rule="nonzero"></path>
            </g>
        </g>
    </g>
</svg>