<?xml version="1.0" encoding="UTF-8"?>
<svg width="40px" height="40px" viewBox="0 0 40 40" version="1.1" xmlns="http://www.w3.org/2000/svg" xmlns:xlink="http://www.w3.org/1999/xlink">
    <!-- Generator: Sketch 46.2 (44496) - http://www.bohemiancoding.com/sketch -->
    <title>미디어스퀘어2-트위터</title>
    <desc>Created with Sketch.</desc>
    <defs></defs>
    <g id="Symbols" stroke="none" stroke-width="1" fill="none" fill-rule="evenodd">
        <g id="미디어스퀘어2-트위터">
            <g id="미디어스퀘어-트위터">
                <rect id="Rectangle-2-Copy" x="0" y="0" width="40" height="40"></rect>
                <path d="M10.9629623,16.9947041 L10.9016393,17.000284 C10.9016393,16.9994307 10.9016393,16.9986146 10.9016393,16.9978355 L10.9016393,16.961039 C10.9219556,16.9724191 10.9423966,16.9836408 10.9629623,16.9947041 Z M10.9016393,17.000284 L10.9629623,16.9947041 C11.2379421,17.1426295 11.5352191,17.2622388 11.8548009,17.3535354 C12.1982843,17.4516599 12.5589364,17.5007215 12.9367681,17.5007215 C12.3356722,17.1245772 11.8505093,16.6216963 11.4812646,15.9920635 C11.11202,15.3624307 10.9274005,14.6796574 10.9274005,13.9437229 C10.9274005,13.5512246 10.9789222,13.1709975 11.0819672,12.8030303 C11.1850122,12.4350631 11.3395774,12.0957206 11.5456674,11.7849928 C12.0952408,12.4228026 12.7135016,13.0074528 13.4004684,13.538961 C14.0874351,14.0704692 14.8259133,14.5324656 15.6159251,14.9249639 C16.4059368,15.3174623 17.2388715,15.6281855 18.1147541,15.8571429 C18.9906367,16.0861002 19.900854,16.225108 20.8454333,16.2741703 C20.7939107,16.1106293 20.7595629,15.9470908 20.7423888,15.7835498 C20.7252146,15.6200088 20.7166276,15.4564703 20.7166276,15.2929293 C20.7166276,14.0990801 21.1588558,13.0851413 22.0433255,12.2510823 C22.9277952,11.4170232 23.9882842,11 25.2248244,11 C25.8774428,11 26.4871166,11.1185654 27.0538642,11.3556999 C27.6206117,11.5928343 28.1100682,11.9239998 28.5222482,12.3492063 C29.0374733,12.2510818 29.5355167,12.112074 30.0163934,11.9321789 C30.4972702,11.7522839 30.9523788,11.5396838 31.381733,11.2943723 C31.2099913,11.8013493 30.9523827,12.2592572 30.6088993,12.6681097 C30.2654159,13.0769621 29.861829,13.4122161 29.3981265,13.6738817 C29.861829,13.6248194 30.3083507,13.5430501 30.7377049,13.4285714 C31.1670591,13.3140927 31.58782,13.175085 32,13.011544 C31.690865,13.4367506 31.3473867,13.83742 30.969555,14.2135642 C30.5917233,14.5897085 30.1795495,14.9249625 29.7330211,15.2193362 C29.7501952,15.3174608 29.7587822,15.4114955 29.7587822,15.501443 L29.7587822,15.7835498 C29.7587822,17.2063563 29.4797061,18.6414069 28.9215457,20.0887446 C28.3633852,21.5360823 27.5390375,22.8443905 26.4484778,24.0137085 C25.357918,25.1830265 24.0140595,26.1397269 22.4168618,26.8838384 C20.8196641,27.6279498 18.9906426,28 16.9297424,28 C15.6588539,28 14.4352128,27.832373 13.2587822,27.497114 C12.0823517,27.161855 10.9961018,26.6835048 10,26.0620491 C10.1889159,26.0947573 10.3692419,26.1151996 10.5409836,26.1233766 C10.7127253,26.1315537 10.8930514,26.1356421 11.0819672,26.1356421 C12.1467657,26.1356421 13.1557329,25.9721036 14.1088993,25.6450216 C15.0620657,25.3179397 15.9250547,24.8682087 16.6978923,24.2958153 C15.7017905,24.2794612 14.8216276,23.9891803 14.057377,23.4249639 C13.2931265,22.8607475 12.7650288,22.1534434 12.4730679,21.3030303 C12.6104613,21.3357385 12.7478526,21.3561808 12.8852459,21.3643579 C13.0226393,21.3725349 13.1686175,21.3766234 13.323185,21.3766234 C13.529275,21.3766234 13.7310685,21.364358 13.9285714,21.3398268 C14.1260744,21.3152957 14.3192809,21.2784995 14.5081967,21.2294372 C13.4777466,21.0331881 12.6190511,20.5425725 11.9320843,19.7575758 C11.2451176,18.972579 10.9016393,18.0649402 10.9016393,17.034632 C10.9016393,17.0198361 10.9016393,17.0083868 10.9016393,17.000284 Z" id="" fill="#FFFFFF"></path>
            </g>
        </g>
    </g>
</svg>