<?xml version="1.0" encoding="UTF-8"?>
<svg width="120px" height="120px" viewBox="0 0 120 120" version="1.1" xmlns="http://www.w3.org/2000/svg" xmlns:xlink="http://www.w3.org/1999/xlink">
    <!-- Generator: Sketch 46.2 (44496) - http://www.bohemiancoding.com/sketch -->
    <title>오버</title>
    <desc>Created with Sketch.</desc>
    <defs></defs>
    <g id="Page-1" stroke="none" stroke-width="1" fill="none" fill-rule="evenodd">
        <g id="오버">
            <rect id="Rectangle-4-Copy" fill-opacity="0.8" fill="#1F8EFA" x="0" y="0" width="120" height="120"></rect>
            <path d="M42.4704444,71.017 C41.5994444,71.017 40.9754444,71.433 40.9754444,72.187 C40.9754444,72.915 41.5994444,73.331 42.4704444,73.331 C43.3544444,73.331 43.9654444,72.915 43.9654444,72.187 C43.9654444,71.433 43.3544444,71.017 42.4704444,71.017 Z M42.4704444,74.735 C40.6634444,74.735 39.3244444,73.669 39.3244444,72.187 C39.3244444,70.679 40.6634444,69.626 42.4704444,69.626 C44.2774444,69.626 45.6034444,70.679 45.6034444,72.187 C45.6034444,73.669 44.2774444,74.735 42.4704444,74.735 Z M46.2144444,75.034 C43.6794444,75.411 40.7154444,75.437 38.6224444,75.437 L38.8174444,76.841 C39.6624444,76.841 40.6374444,76.828 41.6644444,76.789 L41.6644444,80.754 L43.3804444,80.754 L43.3804444,76.685 C44.3554444,76.607 45.3564444,76.477 46.3184444,76.282 L46.2144444,75.034 Z M46.8904444,69.145 L46.8904444,81.105 L48.6064444,81.105 L48.6064444,69.145 L46.8904444,69.145 Z M60.0262222,69.145 L60.0262222,77.114 L58.4012222,77.114 L58.4012222,69.145 L60.0262222,69.145 Z M54.8002222,72.122 L56.0482222,72.122 L56.0482222,69.353 L57.6472222,69.353 L57.6472222,76.1 L56.0482222,76.1 L56.0482222,73.513 L54.8002222,73.513 L54.8002222,72.122 Z M55.7102222,74.735 L54.8652222,76.061 C53.8642222,75.671 53.1882222,74.995 52.7852222,74.15 C52.3562222,75.112 51.6412222,75.918 50.5492222,76.36 L49.6652222,75.047 C51.2902222,74.384 51.9272222,72.98 51.9272222,71.602 L51.9272222,71.381 L50.0422222,71.381 L50.0422222,70.003 L55.3332222,70.003 L55.3332222,71.381 L53.5912222,71.381 L53.5912222,71.602 C53.5912222,72.889 54.1892222,74.15 55.7102222,74.735 Z M56.7502222,76.568 L56.7502222,76.88 C56.7502222,78.102 57.9852222,79.415 60.5722222,79.74 L59.9352222,81.066 C58.0112222,80.806 56.6202222,80 55.8922222,78.895 C55.1642222,80 53.7732222,80.806 51.8492222,81.066 L51.2382222,79.74 C53.8122222,79.415 55.0342222,78.102 55.0342222,76.88 L55.0342222,76.568 L56.7502222,76.568 Z M62.203,75.697 C64.257,75.45 65.7,74.631 66.467,73.552 C67.234,74.631 68.677,75.45 70.705,75.697 L71.316,74.345 C68.846,74.072 67.559,72.889 67.351,71.875 L70.9,71.875 L70.9,70.51 L67.312,70.51 L67.312,69.171 L65.596,69.171 L65.596,70.51 L62.034,70.51 L62.034,71.875 L65.57,71.875 C65.375,72.915 64.101,74.072 61.605,74.345 L62.203,75.697 Z M71.888,76.308 L61.072,76.308 L61.072,77.699 L65.596,77.699 L65.596,81.144 L67.312,81.144 L67.312,77.699 L71.888,77.699 L71.888,76.308 Z M72.8427778,70.367 L72.8427778,71.758 L76.7557778,71.758 C76.4437778,74.41 74.9617778,76.308 72.1797778,77.738 L73.1417778,79.051 C77.1197778,77.036 78.4847778,73.955 78.4847778,70.367 L72.8427778,70.367 Z M83.3467778,73.708 L81.6697778,73.708 L81.6697778,69.132 L79.9537778,69.132 L79.9537778,81.092 L81.6697778,81.092 L81.6697778,75.125 L83.3467778,75.125 L83.3467778,73.708 Z" id="위젯추가" fill="#FFFFFF"></path>
            <path d="M61.34375,40 L61.34375,45.34375 L66.65625,45.34375 L66.65625,48 L61.34375,48 L61.34375,53.34375 L58.65625,53.34375 L58.65625,48 L53.34375,48 L53.34375,45.34375 L58.65625,45.34375 L58.65625,40 L61.34375,40 Z M60,33.34375 C61.8333425,33.34375 63.5624919,33.6927048 65.1875,34.390625 C66.8125081,35.0885452 68.2291606,36.0416606 69.4375,37.25 C70.6458394,38.4583394 71.5989548,39.8697836 72.296875,41.484375 C72.9947952,43.0989664 73.34375,44.8229075 73.34375,46.65625 C73.34375,48.5104259 72.9947952,50.2447836 72.296875,51.859375 C71.5989548,53.4739664 70.6458394,54.8854106 69.4375,56.09375 C68.2291606,57.3020894 66.8125081,58.2552048 65.1875,58.953125 C63.5624919,59.6510452 61.8333425,60 60,60 C58.1666575,60 56.4375081,59.6510452 54.8125,58.953125 C53.1874919,58.2552048 51.7708394,57.3020894 50.5625,56.09375 C49.3541606,54.8854106 48.4010452,53.4739664 47.703125,51.859375 C47.0052048,50.2447836 46.65625,48.5104259 46.65625,46.65625 C46.65625,44.8229075 47.0052048,43.0989664 47.703125,41.484375 C48.4010452,39.8697836 49.3541606,38.4583394 50.5625,37.25 C51.7708394,36.0416606 53.1874919,35.0885452 54.8125,34.390625 C56.4375081,33.6927048 58.1666575,33.34375 60,33.34375 Z M60,57.34375 C61.4791741,57.34375 62.8645769,57.0625028 64.15625,56.5 C65.4479231,55.9374972 66.5781202,55.1718798 67.546875,54.203125 C68.5156298,53.2343702 69.2760389,52.1041731 69.828125,50.8125 C70.3802111,49.5208269 70.65625,48.1354241 70.65625,46.65625 C70.65625,45.1979094 70.3802111,43.8177148 69.828125,42.515625 C69.2760389,41.2135352 68.5156298,40.0833381 67.546875,39.125 C66.5781202,38.1666619 65.4479231,37.4062528 64.15625,36.84375 C62.8645769,36.2812472 61.4791741,36 60,36 C58.5208259,36 57.1354231,36.2812472 55.84375,36.84375 C54.5520769,37.4062528 53.4218798,38.1666619 52.453125,39.125 C51.4843702,40.0833381 50.7239611,41.2135352 50.171875,42.515625 C49.6197889,43.8177148 49.34375,45.1979094 49.34375,46.65625 C49.34375,48.1354241 49.6197889,49.5208269 50.171875,50.8125 C50.7239611,52.1041731 51.4843702,53.2343702 52.453125,54.203125 C53.4218798,55.1718798 54.5520769,55.9374972 55.84375,56.5 C57.1354231,57.0625028 58.5208259,57.34375 60,57.34375 Z" id="" fill="#FFFFFF"></path>
        </g>
    </g>
</svg>