<?xml version="1.0" encoding="UTF-8"?>
<svg width="32px" height="32px" viewBox="0 0 32 32" version="1.1" xmlns="http://www.w3.org/2000/svg" xmlns:xlink="http://www.w3.org/1999/xlink">
    <!-- Generator: Sketch 47.1 (45422) - http://www.bohemiancoding.com/sketch -->
    <title>icon_industrial_004_on</title>
    <desc>Created with Sketch.</desc>
    <defs></defs>
    <g id="Page-1" stroke="none" stroke-width="1" fill="none" fill-rule="evenodd">
        <g id="004" transform="translate(0.000000, -2.000000)">
            <g id="icon_industrial_004_on" transform="translate(0.000000, 2.000000)">
                <rect id="Rectangle-Copy-2" fill="#1F8EFA" x="0" y="0" width="32" height="32" rx="4"></rect>
                <path d="M16,25 C20.97,25 25,21.3538095 25,16.8571429 C20.03,16.8571429 16,20.5033333 16,25 Z M9.6,14.3690476 C9.6,15.617619 10.72,16.6309524 12.1,16.6309524 C12.63,16.6309524 13.11,16.4861905 13.52,16.2328571 L13.5,16.4047619 C13.5,17.6533333 14.62,18.6666667 16,18.6666667 C17.38,18.6666667 18.5,17.6533333 18.5,16.4047619 L18.48,16.2328571 C18.88,16.4861905 19.37,16.6309524 19.9,16.6309524 C21.28,16.6309524 22.4,15.617619 22.4,14.3690476 C22.4,13.4642857 21.81,12.6952381 20.97,12.3333333 C21.81,11.9714286 22.4,11.202381 22.4,10.297619 C22.4,9.04904762 21.28,8.03571429 19.9,8.03571429 C19.37,8.03571429 18.89,8.18047619 18.48,8.43380952 L18.5,8.26190476 C18.5,7.01333333 17.38,6 16,6 C14.62,6 13.5,7.01333333 13.5,8.26190476 L13.52,8.43380952 C13.12,8.18047619 12.63,8.03571429 12.1,8.03571429 C10.72,8.03571429 9.6,9.04904762 9.6,10.297619 C9.6,11.202381 10.19,11.9714286 11.03,12.3333333 C10.19,12.6952381 9.6,13.4642857 9.6,14.3690476 Z M16,10.0714286 C17.38,10.0714286 18.5,11.0847619 18.5,12.3333333 C18.5,13.5819048 17.38,14.5952381 16,14.5952381 C14.62,14.5952381 13.5,13.5819048 13.5,12.3333333 C13.5,11.0847619 14.62,10.0714286 16,10.0714286 Z M7,16.8571429 C7,21.3538095 11.03,25 16,25 C16,20.5033333 11.97,16.8571429 7,16.8571429 Z" id="Shape" fill="#FFFFFF" fill-rule="nonzero"></path>
            </g>
        </g>
    </g>
</svg>