<?xml version="1.0" encoding="UTF-8"?>
<svg width="32px" height="32px" viewBox="0 0 32 32" version="1.1" xmlns="http://www.w3.org/2000/svg" xmlns:xlink="http://www.w3.org/1999/xlink">
    <!-- Generator: Sketch 47.1 (45422) - http://www.bohemiancoding.com/sketch -->
    <title>icon_industrial_007_on</title>
    <desc>Created with Sketch.</desc>
    <defs></defs>
    <g id="Page-1" stroke="none" stroke-width="1" fill="none" fill-rule="evenodd">
        <g id="000-copy-7" transform="translate(0.000000, -2.000000)">
            <g id="icon_industrial_007_on" transform="translate(0.000000, 2.000000)">
                <rect id="Rectangle-Copy-2" fill="#1F8EFA" x="0" y="0" width="32" height="32" rx="4"></rect>
                <path d="M19.6738281,13.0117188 C19.6595051,12.1236935 19.3587269,11.346683 18.7714844,10.6806641 C18.1842419,10.0146451 17.4609418,9.61002676 16.6015625,9.46679688 C16.7734384,8.92252332 17.0992815,8.47135596 17.5791016,8.11328125 C18.0589217,7.75520654 18.5996064,7.57617188 19.2011719,7.57617188 C19.9602903,7.57617188 20.6083958,7.84472388 21.1455078,8.38183594 C21.6826199,8.918948 21.9511719,9.5670535 21.9511719,10.3261719 C21.9511719,10.9993523 21.7327496,11.5901667 21.2958984,12.0986328 C20.8590473,12.6070989 20.3183626,12.9114578 19.6738281,13.0117188 Z M19.5664062,13.9355469 C20.3398476,13.9785158 21.0667284,14.1647119 21.7470703,14.4941406 C22.4274123,14.8235694 23.0218074,15.2532526 23.5302734,15.7832031 C24.0387395,16.3131537 24.4397772,16.9290329 24.7333984,17.6308594 C25.0270197,18.3326858 25.1738281,19.07747 25.1738281,19.8652344 L25.1738281,20.5957031 C25.1738281,20.796225 25.0986336,20.9680982 24.9482422,21.1113281 C24.7978508,21.254558 24.6223968,21.3261719 24.421875,21.3261719 L22.7460938,21.3261719 C22.6315098,20.7102834 22.4345717,20.1230497 22.1552734,19.5644531 C21.8759752,19.0058566 21.5322286,18.5009788 21.1240234,18.0498047 C20.7158183,17.5986306 20.2539088,17.2047543 19.7382812,16.8681641 C19.2226537,16.5315738 18.6640655,16.2701832 18.0625,16.0839844 C18.4348977,15.8261706 18.7499987,15.5146503 19.0078125,15.1494141 C19.2656263,14.7841779 19.4518223,14.3795595 19.5664062,13.9355469 Z M12.3261719,13.0117188 C11.6816374,12.9114578 11.1409527,12.6070989 10.7041016,12.0986328 C10.2672504,11.5901667 10.0488281,10.9993523 10.0488281,10.3261719 C10.0488281,9.5670535 10.3173801,8.918948 10.8544922,8.38183594 C11.3916042,7.84472388 12.0397097,7.57617188 12.7988281,7.57617188 C13.4003936,7.57617188 13.9410783,7.75520654 14.4208984,8.11328125 C14.9007185,8.47135596 15.2265616,8.92252332 15.3984375,9.46679688 C14.5390582,9.61002676 13.8157581,10.0146451 13.2285156,10.6806641 C12.6412731,11.346683 12.3404949,12.1236935 12.3261719,13.0117188 Z M13.9375,16.0839844 C13.3359345,16.2701832 12.7773463,16.5315738 12.2617188,16.8681641 C11.7460912,17.2047543 11.2841817,17.5986306 10.8759766,18.0498047 C10.4677714,18.5009788 10.1240248,19.0058566 9.84472656,19.5644531 C9.56542829,20.1230497 9.36849016,20.7102834 9.25390625,21.3261719 L7.578125,21.3261719 C7.37760316,21.3261719 7.20214919,21.254558 7.05175781,21.1113281 C6.90136644,20.9680982 6.82617188,20.796225 6.82617188,20.5957031 L6.82617188,19.8652344 C6.82617188,19.07747 6.9729803,18.3326858 7.26660156,17.6308594 C7.56022282,16.9290329 7.96126048,16.3131537 8.46972656,15.7832031 C8.97819265,15.2532526 9.57258774,14.8235694 10.2529297,14.4941406 C10.9332716,14.1647119 11.6601524,13.9785158 12.4335938,13.9355469 C12.5481777,14.3795595 12.7343737,14.7841779 12.9921875,15.1494141 C13.2500013,15.5146503 13.5651023,15.8261706 13.9375,16.0839844 Z M18.75,13.0761719 C18.75,13.8209673 18.481448,14.4619114 17.9443359,14.9990234 C17.4072239,15.5361355 16.7591184,15.8046875 16,15.8046875 C15.2408816,15.8046875 14.5927761,15.5361355 14.0556641,14.9990234 C13.518552,14.4619114 13.25,13.8209673 13.25,13.0761719 C13.25,12.3170535 13.518552,11.668948 14.0556641,11.1318359 C14.5927761,10.5947239 15.2408816,10.3261719 16,10.3261719 C16.7591184,10.3261719 17.4072239,10.5947239 17.9443359,11.1318359 C18.481448,11.668948 18.75,12.3170535 18.75,13.0761719 Z M16,16.6640625 C16.8164103,16.6640625 17.5862594,16.821613 18.3095703,17.1367188 C19.0328812,17.4518245 19.6666639,17.877927 20.2109375,18.4150391 C20.7552111,18.9521511 21.1813136,19.5823532 21.4892578,20.3056641 C21.7972021,21.028975 21.9511719,21.798824 21.9511719,22.6152344 L21.9511719,23.3457031 C21.9511719,23.546225 21.879558,23.7180982 21.7363281,23.8613281 C21.5930982,24.004558 21.421225,24.0761719 21.2207031,24.0761719 L10.7792969,24.0761719 C10.578775,24.0761719 10.4069018,24.004558 10.2636719,23.8613281 C10.120442,23.7180982 10.0488281,23.546225 10.0488281,23.3457031 L10.0488281,22.6152344 C10.0488281,21.798824 10.2027979,21.028975 10.5107422,20.3056641 C10.8186864,19.5823532 11.2447889,18.9521511 11.7890625,18.4150391 C12.3333361,17.877927 12.9671188,17.4518245 13.6904297,17.1367188 C14.4137406,16.821613 15.1835897,16.6640625 16,16.6640625 Z" id="" fill="#FFFFFF"></path>
            </g>
        </g>
    </g>
</svg>