<?xml version="1.0" encoding="UTF-8"?>
<svg width="32px" height="32px" viewBox="0 0 32 32" version="1.1" xmlns="http://www.w3.org/2000/svg" xmlns:xlink="http://www.w3.org/1999/xlink">
    <!-- Generator: Sketch 47.1 (45422) - http://www.bohemiancoding.com/sketch -->
    <title>icon_industrial_022_on</title>
    <desc>Created with Sketch.</desc>
    <defs></defs>
    <g id="Page-1" stroke="none" stroke-width="1" fill="none" fill-rule="evenodd">
        <g id="000-copy-30" transform="translate(0.000000, -2.000000)">
            <g id="icon_industrial_022_on" transform="translate(0.000000, 2.000000)">
                <rect id="Rectangle-Copy-2" fill="#1F8EFA" x="0" y="0" width="32" height="32" rx="4"></rect>
                <path d="M17.8261719,15.8261719 C17.8261719,16.3417995 17.6471372,16.778644 17.2890625,17.1367188 C16.9309878,17.4947935 16.5013046,17.6738281 16,17.6738281 C15.4986954,17.6738281 15.0690122,17.4947935 14.7109375,17.1367188 C14.3528628,16.778644 14.1738281,16.3417995 14.1738281,15.8261719 C14.1738281,15.3248673 14.3528628,14.8951841 14.7109375,14.5371094 C15.0690122,14.1790347 15.4986954,14 16,14 C16.5013046,14 16.9309878,14.1790347 17.2890625,14.5371094 C17.6471372,14.8951841 17.8261719,15.3248673 17.8261719,15.8261719 Z M24.25,15.8261719 C24.25,16.3417995 24.0709653,16.778644 23.7128906,17.1367188 C23.3548159,17.4947935 22.9251327,17.6738281 22.4238281,17.6738281 C21.9082005,17.6738281 21.471356,17.4947935 21.1132812,17.1367188 C20.7552065,16.778644 20.5761719,16.3417995 20.5761719,15.8261719 C20.5761719,15.3248673 20.7552065,14.8951841 21.1132812,14.5371094 C21.471356,14.1790347 21.9082005,14 22.4238281,14 C22.9251327,14 23.3548159,14.1790347 23.7128906,14.5371094 C24.0709653,14.8951841 24.25,15.3248673 24.25,15.8261719 Z M11.4238281,15.8261719 C11.4238281,16.3417995 11.2447935,16.778644 10.8867188,17.1367188 C10.528644,17.4947935 10.0917995,17.6738281 9.57617188,17.6738281 C9.07486729,17.6738281 8.64518408,17.4947935 8.28710938,17.1367188 C7.92903467,16.778644 7.75,16.3417995 7.75,15.8261719 C7.75,15.3248673 7.92903467,14.8951841 8.28710938,14.5371094 C8.64518408,14.1790347 9.07486729,14 9.57617188,14 C10.0917995,14 10.528644,14.1790347 10.8867188,14.5371094 C11.2447935,14.8951841 11.4238281,15.3248673 11.4238281,15.8261719 Z" id="" fill="#FFFFFF"></path>
            </g>
        </g>
    </g>
</svg>