<?xml version="1.0" encoding="UTF-8"?>
<svg width="32px" height="32px" viewBox="0 0 32 32" version="1.1" xmlns="http://www.w3.org/2000/svg" xmlns:xlink="http://www.w3.org/1999/xlink">
    <!-- Generator: Sketch 47.1 (45422) - http://www.bohemiancoding.com/sketch -->
    <title>icon_industrial_008_on</title>
    <desc>Created with Sketch.</desc>
    <defs></defs>
    <g id="Page-1" stroke="none" stroke-width="1" fill="none" fill-rule="evenodd">
        <g id="000-copy-8" transform="translate(0.000000, -2.000000)">
            <g id="icon_industrial_008_on" transform="translate(0.000000, 2.000000)">
                <rect id="Rectangle-Copy-2" fill="#1F8EFA" x="0" y="0" width="32" height="32" rx="4"></rect>
                <path d="M13.3021077,15.5463072 C13.3021077,15.9120769 13.1721324,16.2286036 12.912178,16.4958968 C12.6522235,16.7631901 12.3325546,16.8968347 11.9531616,16.8968347 C11.5737686,16.8968347 11.2540997,16.7631901 10.9941452,16.4958968 C10.7341907,16.2286036 10.6042155,15.9120769 10.6042155,15.5463072 C10.6042155,15.1805374 10.7341907,14.8640107 10.9941452,14.5967175 C11.2540997,14.3294242 11.5737686,14.1957796 11.9531616,14.1957796 C12.3325546,14.1957796 12.6522235,14.3294242 12.912178,14.5967175 C13.1721324,14.8640107 13.3021077,15.1805374 13.3021077,15.5463072 Z M17.3489461,15.5463072 C17.3489461,15.9120769 17.2189709,16.2286036 16.9590164,16.4958968 C16.6990619,16.7631901 16.379393,16.8968347 16,16.8968347 C15.620607,16.8968347 15.3009381,16.7631901 15.0409836,16.4958968 C14.7810291,16.2286036 14.6510539,15.9120769 14.6510539,15.5463072 C14.6510539,15.1805374 14.7810291,14.8640107 15.0409836,14.5967175 C15.3009381,14.3294242 15.620607,14.1957796 16,14.1957796 C16.379393,14.1957796 16.6990619,14.3294242 16.9590164,14.5967175 C17.2189709,14.8640107 17.3489461,15.1805374 17.3489461,15.5463072 Z M21.3957845,15.5463072 C21.3957845,15.9120769 21.2658093,16.2286036 21.0058548,16.4958968 C20.7459003,16.7631901 20.4262314,16.8968347 20.0468384,16.8968347 C19.6674454,16.8968347 19.3477765,16.7631901 19.087822,16.4958968 C18.8278676,16.2286036 18.6978923,15.9120769 18.6978923,15.5463072 C18.6978923,15.1805374 18.8278676,14.8640107 19.087822,14.5967175 C19.3477765,14.3294242 19.6674454,14.1957796 20.0468384,14.1957796 C20.4262314,14.1957796 20.7459003,14.3294242 21.0058548,14.5967175 C21.2658093,14.8640107 21.3957845,15.1805374 21.3957845,15.5463072 Z M16,8.7936694 C15.0163885,8.7936694 14.0854845,8.96248366 13.20726,9.30011723 C12.3290354,9.63775081 11.566748,10.10199 10.9203747,10.6928488 C10.2740015,11.2837075 9.76112602,11.9730324 9.38173302,12.7608441 C9.00234002,13.5486558 8.81264637,14.3856931 8.81264637,15.2719812 C8.81264637,16.3552223 9.093674,17.3716248 9.6557377,18.3212192 C10.2178014,19.2708137 10.9976531,20.0480626 11.9953162,20.6529894 L13.3864169,21.4970692 L12.6697892,22.9742087 C13.400472,22.8757322 14.173298,22.7420876 14.9882904,22.5732708 C15.8032828,22.404454 16.6042115,22.1828853 17.3911007,21.908558 C18.1779899,21.6342308 18.9227131,21.3036362 19.6252927,20.9167644 C20.3278724,20.5298926 20.9250561,20.0691703 21.4168618,19.5345838 L21.6908665,19.2180539 C22.1826722,18.6553313 22.5550339,18.0363457 22.8079625,17.3610785 C23.0608912,16.6858114 23.1873536,15.9894526 23.1873536,15.2719812 C23.1873536,14.3856931 22.99766,13.5486558 22.618267,12.7608441 C22.238874,11.9730324 21.7259985,11.2837075 21.0796253,10.6928488 C20.433252,10.10199 19.6709646,9.63775081 18.79274,9.30011723 C17.9145155,8.96248366 16.9836115,8.7936694 16,8.7936694 Z M16,7 C17.2365401,7 18.4028048,7.21453478 19.498829,7.64361079 C20.5948533,8.07268679 21.5503472,8.66353668 22.3653396,9.41617819 C23.1803319,10.1688197 23.8231827,11.0480606 24.293911,12.0539273 C24.7646394,13.059794 25,14.1324679 25,15.2719812 C25,16.2426778 24.8278706,17.1641223 24.4836066,18.0363423 C24.1393425,18.9085624 23.6651084,19.6963623 23.0608899,20.3997655 L23.0819672,20.3997655 C22.1264589,21.5392789 20.8934502,22.4220367 19.382904,23.0480657 C17.8723578,23.6740946 16.4004756,24.1312998 14.9672131,24.4196952 C13.5339507,24.7080905 12.2974291,24.8769048 11.2576112,24.926143 L9.69789227,25 L11.0468384,22.1934349 C10.4426199,21.8276652 9.8911032,21.3950787 9.39227166,20.8956624 C8.89344013,20.396246 8.46838583,19.8511167 8.11709602,19.2602579 C7.76580621,18.6693992 7.49180426,18.0398627 7.29508197,17.3716295 C7.09835967,16.7033964 7,16.0035207 7,15.2719812 C7,14.1324679 7.23536064,13.059794 7.70608899,12.0539273 C8.17681734,11.0480606 8.81966806,10.1688197 9.63466042,9.41617819 C10.4496528,8.66353668 11.4051467,8.07268679 12.501171,7.64361079 C13.5971952,7.21453478 14.7634599,7 16,7 Z" id="" fill="#FFFFFF"></path>
            </g>
        </g>
    </g>
</svg>