<?xml version="1.0" encoding="UTF-8"?>
<svg width="32px" height="32px" viewBox="0 0 32 32" version="1.1" xmlns="http://www.w3.org/2000/svg" xmlns:xlink="http://www.w3.org/1999/xlink">
    <!-- Generator: Sketch 47.1 (45422) - http://www.bohemiancoding.com/sketch -->
    <title>icon_industrial_006_on</title>
    <desc>Created with Sketch.</desc>
    <defs></defs>
    <g id="Page-1" stroke="none" stroke-width="1" fill="none" fill-rule="evenodd">
        <g id="000-copy-6" transform="translate(0.000000, -2.000000)">
            <g id="icon_industrial_006_on" transform="translate(0.000000, 2.000000)">
                <rect id="Rectangle-Copy-2" fill="#1F8EFA" x="0" y="0" width="32" height="32" rx="4"></rect>
                <path d="M16.5,7 C12.9064286,7 10,9.817 10,13.3 C10,18.025 16.5,25 16.5,25 C16.5,25 23,18.025 23,13.3 C23,9.817 20.0935714,7 16.5,7 Z M16.5,15.55 C15.2185714,15.55 14.1785714,14.542 14.1785714,13.3 C14.1785714,12.058 15.2185714,11.05 16.5,11.05 C17.7814286,11.05 18.8214286,12.058 18.8214286,13.3 C18.8214286,14.542 17.7814286,15.55 16.5,15.55 Z" id="Shape" fill="#FFFFFF" fill-rule="nonzero"></path>
            </g>
        </g>
    </g>
</svg>