<?xml version="1.0" encoding="UTF-8"?>
<svg width="32px" height="32px" viewBox="0 0 32 32" version="1.1" xmlns="http://www.w3.org/2000/svg" xmlns:xlink="http://www.w3.org/1999/xlink">
    <!-- Generator: Sketch 47.1 (45422) - http://www.bohemiancoding.com/sketch -->
    <title>icon_industrial_016_on</title>
    <desc>Created with Sketch.</desc>
    <defs></defs>
    <g id="Page-1" stroke="none" stroke-width="1" fill="none" fill-rule="evenodd">
        <g id="000-copy-16" transform="translate(0.000000, -2.000000)">
            <g id="icon_industrial_016_on" transform="translate(0.000000, 2.000000)">
                <rect id="Rectangle-Copy-2" fill="#1F8EFA" x="0" y="0" width="32" height="32" rx="4"></rect>
                <path d="M22.1660156,7.57617188 L24.25,13.8496094 L24.25,24.0761719 L7.75,24.0761719 L7.75,13.8496094 L9.83398438,7.57617188 L22.1660156,7.57617188 Z M22.0585938,13.0761719 L20.8339844,9.42382812 L16.9238281,9.42382812 L16.9238281,13.0761719 L22.0585938,13.0761719 Z M15.0761719,9.42382812 L11.1660156,9.42382812 L9.94140625,13.0761719 L15.0761719,13.0761719 L15.0761719,9.42382812 Z M9.57617188,22.25 L22.4238281,22.25 L22.4238281,14.9238281 L16.9238281,14.9238281 L16.9238281,16.75 L15.0761719,16.75 L15.0761719,14.9238281 L9.57617188,14.9238281 L9.57617188,22.25 Z M16,18.5761719 L21.5,18.5761719 L21.5,21.3261719 L16,21.3261719 L16,18.5761719 Z" id="î¨" fill="#FFFFFF"></path>
            </g>
        </g>
    </g>
</svg>