<?xml version="1.0" encoding="UTF-8"?>
<svg width="32px" height="32px" viewBox="0 0 32 32" version="1.1" xmlns="http://www.w3.org/2000/svg" xmlns:xlink="http://www.w3.org/1999/xlink">
    <!-- Generator: Sketch 47.1 (45422) - http://www.bohemiancoding.com/sketch -->
    <title>icon_industrial_002</title>
    <desc>Created with Sketch.</desc>
    <defs></defs>
    <g id="Page-1" stroke="none" stroke-width="1" fill="none" fill-rule="evenodd">
        <g id="002" transform="translate(-38.000000, -2.000000)">
            <g id="icon_industrial_002" transform="translate(38.000000, 2.000000)">
                <rect id="Rectangle-Copy-3" fill="#F3F7F8" x="0" y="0" width="32" height="32" rx="4"></rect>
                <path d="M24.7564403,16.8722157 C24.9188142,17.0222751 25,17.2098465 25,17.4349355 C25,17.6600246 24.9188142,17.847596 24.7564403,17.9976553 L19.0046838,23.7561547 C18.929742,23.8436894 18.8423112,23.9062132 18.7423888,23.943728 C18.6424663,23.9812429 18.5425454,24 18.442623,24 C18.3427005,24 18.2427796,23.9812429 18.1428571,23.943728 C18.0429347,23.9062132 17.9555039,23.8436894 17.8805621,23.7561547 L9.24355972,15.1277843 C9.16861789,15.0527546 9.10928984,14.9652213 9.06557377,14.8651817 C9.0218577,14.7651421 9,14.6651041 9,14.5650645 L9,8.78780774 C9,8.57522363 9.07806323,8.39077843 9.23419204,8.23446659 C9.39032084,8.07815475 9.58079513,8 9.80562061,8 L15.557377,8 C15.6697898,8 15.7728333,8.01875714 15.8665105,8.05627198 C15.9601878,8.09378682 16.0444961,8.15005824 16.1194379,8.22508792 L24.7564403,16.8722157 Z M12.5971897,12.8018757 C12.9344279,12.8018757 13.2185781,12.6830805 13.4496487,12.4454865 C13.6807193,12.2078925 13.7962529,11.9265354 13.7962529,11.6014068 C13.7962529,11.2637732 13.6807193,10.9792899 13.4496487,10.7479484 C13.2185781,10.5166069 12.9344279,10.4009379 12.5971897,10.4009379 C12.2724418,10.4009379 11.9914141,10.5166069 11.7540984,10.7479484 C11.5167826,10.9792899 11.3981265,11.2637732 11.3981265,11.6014068 C11.3981265,11.9265354 11.5167826,12.2078925 11.7540984,12.4454865 C11.9914141,12.6830805 12.2724418,12.8018757 12.5971897,12.8018757 Z" id="" fill="#B2B5B6"></path>
            </g>
        </g>
    </g>
</svg>