<?xml version="1.0" encoding="UTF-8"?>
<svg width="32px" height="32px" viewBox="0 0 32 32" version="1.1" xmlns="http://www.w3.org/2000/svg" xmlns:xlink="http://www.w3.org/1999/xlink">
    <!-- Generator: Sketch 47.1 (45422) - http://www.bohemiancoding.com/sketch -->
    <title>icon_industrial_003_on</title>
    <desc>Created with Sketch.</desc>
    <defs></defs>
    <g id="Page-1" stroke="none" stroke-width="1" fill="none" fill-rule="evenodd">
        <g id="000-copy" transform="translate(0.000000, -2.000000)">
            <g id="icon_industrial_003_on" transform="translate(0.000000, 2.000000)">
                <rect id="Rectangle-Copy-2" fill="#1F8EFA" x="0" y="0" width="32" height="32" rx="4"></rect>
                <path d="M25.25,9.49283854 L25.25,15.3261719 L24.2701823,15.3261719 L24.2701823,24.0761719 L8.72981771,24.0761719 L8.72981771,15.3261719 L7.75,15.3261719 L7.75,9.49283854 L11.6464844,9.49283854 L11.6464844,6.57617188 L16.5,8.53580729 L21.3535156,6.57617188 L21.3535156,9.49283854 L25.25,9.49283854 Z M23.313151,13.3893229 L23.313151,11.4296875 L17.4798177,11.4296875 L17.4798177,13.3893229 L23.313151,13.3893229 Z M9.68684896,11.4296875 L9.68684896,13.3893229 L15.5201823,13.3893229 L15.5201823,11.4296875 L9.68684896,11.4296875 Z M10.6666667,15.3261719 L10.6666667,22.1393229 L15.5201823,22.1393229 L15.5201823,15.3261719 L10.6666667,15.3261719 Z M22.3333333,22.1393229 L22.3333333,15.3261719 L17.4798177,15.3261719 L17.4798177,22.1393229 L22.3333333,22.1393229 Z" id="" fill="#FFFFFF"></path>
            </g>
        </g>
    </g>
</svg>