
<svg width="215px" height="59px" viewBox="0 0 215 59" version="1.1" xmlns="http://www.w3.org/2000/svg" xmlns:xlink="http://www.w3.org/1999/xlink">
    <!-- Generator: Sketch 43.2 (39069) - http://www.bohemiancoding.com/sketch -->
    <desc>Created with Sketch.</desc>
    <defs>
        <radialGradient cx="0%" cy="100%" fx="0%" fy="100%" r="135.753341%" id="radialGradient-1">
            <stop stop-color="#FFB14F" offset="0%"></stop>
            <stop stop-color="#F57545" offset="28.1277261%"></stop>
            <stop stop-color="#F23186" offset="53.9901839%"></stop>
            <stop stop-color="#9841B1" offset="83.3729805%"></stop>
            <stop stop-color="#DF30A6" offset="100%"></stop>
        </radialGradient>
    </defs>
    <g id="Page-1" stroke="none" stroke-width="1" fill="none" fill-rule="evenodd">
        <path d="M21.5432188,5.70771708 L21.501375,5.71229685 L21.501375,5.68359375 C21.5152378,5.69174836 21.5291857,5.69978946 21.5432188,5.70771708 Z M21.501375,5.71229685 L21.5432188,5.70771708 C21.7308515,5.81371553 21.9336987,5.89942366 22.1517656,5.96484375 C22.3861418,6.0351566 22.6322331,6.0703125 22.8900469,6.0703125 C22.4798886,5.8007799 22.1488372,5.44043194 21.8968828,4.98925781 C21.6449284,4.53808368 21.5189531,4.04883076 21.5189531,3.52148438 C21.5189531,3.24023297 21.554109,2.96777476 21.6244219,2.70410156 C21.6947347,2.44042837 21.8002024,2.19726674 21.9408281,1.97460938 C22.31583,2.43164291 22.7377008,2.85058403 23.2064531,3.23144531 C23.6752055,3.61230659 24.1791067,3.94335797 24.7181719,4.22460938 C25.2572371,4.50586078 25.8255908,4.7285148 26.42325,4.89257812 C27.0209092,5.05664145 27.6419968,5.15624982 28.2865312,5.19140625 C28.2513748,5.07421816 28.2279375,4.95703184 28.2162187,4.83984375 C28.2044999,4.72265566 28.1986406,4.60546934 28.1986406,4.48828125 C28.1986406,3.63280822 28.5003954,2.90625299 29.1039141,2.30859375 C29.7074327,1.71093451 30.4310583,1.41210938 31.2748125,1.41210938 C31.7201272,1.41210938 32.1361387,1.49706946 32.5228594,1.66699219 C32.90958,1.83691491 33.2435611,2.07421723 33.5248125,2.37890625 C33.8763767,2.3085934 34.2162171,2.20898502 34.5443437,2.08007812 C34.8724704,1.95117123 35.1830141,1.798829 35.4759844,1.62304688 C35.3587963,1.98632994 35.1830168,2.31445166 34.9486406,2.60742188 C34.7142644,2.90039209 34.4388766,3.14062406 34.1224687,3.328125 C34.4388766,3.29296857 34.743561,3.23437541 35.0365312,3.15234375 C35.3295015,3.07031209 35.616608,2.97070371 35.8978594,2.85351562 C35.6869208,3.15820465 35.4525482,3.44531115 35.1947344,3.71484375 C34.9369206,3.98437635 34.6556734,4.22460832 34.3509844,4.43554688 C34.3627032,4.50585973 34.3685625,4.57324187 34.3685625,4.63769531 L34.3685625,4.83984375 C34.3685625,5.8593801 34.1781347,6.88769013 33.7972734,7.92480469 C33.4164121,8.96191925 32.8539178,9.89940987 32.1097734,10.7373047 C31.3656291,11.5751995 30.4486461,12.2607395 29.3587969,12.7939453 C28.2689477,13.3271511 27.0209133,13.59375 25.6146562,13.59375 C24.7474644,13.59375 23.9125118,13.473634 23.1097734,13.2333984 C22.307035,12.9931629 21.5658315,12.6503929 20.8861406,12.2050781 C21.0150475,12.2285157 21.1380932,12.243164 21.2552812,12.2490234 C21.3724693,12.2548828 21.495515,12.2578125 21.6244219,12.2578125 C22.350988,12.2578125 23.0394577,12.1406262 23.6898516,11.90625 C24.3402454,11.6718738 24.9291067,11.3496114 25.4564531,10.9394531 C24.7767622,10.9277343 24.1761823,10.7197286 23.6546953,10.3154297 C23.1332083,9.91113079 22.7728604,9.40429992 22.5736406,8.79492188 C22.6673911,8.81835949 22.7611401,8.83300778 22.8548906,8.83886719 C22.9486411,8.84472659 23.0482495,8.84765625 23.1537187,8.84765625 C23.2943444,8.84765625 23.4320384,8.83886728 23.5668047,8.82128906 C23.701571,8.80371085 23.8334056,8.77734393 23.9623125,8.7421875 C23.259184,8.6015618 22.6732523,8.25000281 22.2045,7.6875 C21.7357476,7.12499719 21.501375,6.47461307 21.501375,5.73632812 L21.501375,5.71229685 Z" id="" fill="#4EA0F5"></path>
        <path d="M144.489656,5.49023438 L146.809969,5.49023438 L146.809969,3.34570313 L146.88907,2.51953125 C146.941805,1.96874725 147.231841,1.42969014 147.759187,0.90234375 C148.298253,0.363278555 148.933989,0.0732423926 149.666414,0.0322265625 C150.39884,-0.00878926758 151.274807,0.0175776563 152.294344,0.111328125 L152.294344,2.50195312 L150.782625,2.50195312 L150.431062,2.53710938 C150.196686,2.56054699 150.003329,2.65429605 149.850984,2.81835938 C149.710359,2.9941415 149.631258,3.18163963 149.61368,3.38085938 C149.596101,3.58007912 149.587312,3.70898408 149.587312,3.76757813 L149.587312,5.49023438 L152.206453,5.49023438 L151.872469,8.14453125 L149.569734,8.14453125 L149.569734,15 L146.809969,15 L146.809969,8.14453125 L144.489656,8.14453125 L144.489656,5.49023438 Z" id="" fill="#3865BF"></path>
        <path d="M142.736867,24.9638672 L142.736867,35.5888672 L152.648,35.5888672 L152.648,37 L142.023,37 C141.82378,37 141.654999,36.9308275 141.516652,36.7924805 C141.378305,36.6541334 141.309133,36.4853526 141.309133,36.2861328 L141.309133,24.9638672 L142.736867,24.9638672 Z M154.059133,23.5361328 C154.258353,23.5361328 154.427133,23.6053053 154.56548,23.7436523 C154.703828,23.8819994 154.773,24.0507803 154.773,24.25 L154.773,34.1611328 C154.773,34.3603526 154.703828,34.5291334 154.56548,34.6674805 C154.427133,34.8058275 154.258353,34.875 154.059133,34.875 L144.148,34.875 C143.94878,34.875 143.779999,34.8058275 143.641652,34.6674805 C143.503305,34.5291334 143.434133,34.3603526 143.434133,34.1611328 L143.434133,24.25 C143.434133,24.0507803 143.503305,23.8819994 143.641652,23.7436523 C143.779999,23.6053053 143.94878,23.5361328 144.148,23.5361328 L154.059133,23.5361328 Z M153.361867,33.4638672 L153.361867,24.9638672 L144.861867,24.9638672 L144.861867,33.4638672 L153.361867,33.4638672 Z M145.559133,26.375 L152.648,26.375 L152.648,27.7861328 L145.559133,27.7861328 L145.559133,26.375 Z M145.559133,28.5 L152.648,28.5 L152.648,29.9111328 L145.559133,29.9111328 L145.559133,28.5 Z M145.559133,30.625 L150.523,30.625 L150.523,32.0361328 L145.559133,32.0361328 L145.559133,30.625 Z" id="" fill="#DB3DBE"></path>
        <path d="M11.4051172,3.12011719 C11.5808993,3.12011719 11.7298236,3.18115173 11.8518945,3.30322266 C11.9739655,3.42529358 12.035,3.57421787 12.035,3.75 L12.035,13.7548828 C12.035,13.9208993 11.9739655,14.0649408 11.8518945,14.1870117 C11.7298236,14.3090826 11.5808993,14.3701172 11.4051172,14.3701172 L1.41488281,14.3701172 C1.23910068,14.3701172 1.09017639,14.3090826 0.968105465,14.1870117 C0.846034542,14.0649408 0.784999996,13.9208993 0.784999996,13.7548828 L0.784999996,3.75 C0.784999996,3.57421787 0.846034542,3.42529358 0.968105465,3.30322266 C1.09017639,3.18115173 1.23910068,3.12011719 1.41488281,3.12011719 L11.4051172,3.12011719 Z M9.53011718,7.5 L8.66585937,6.60644531 L5.79476562,9.4921875 L4.16878906,7.86621094 L3.28988281,8.74511719 L5.78011718,11.25 L9.53011718,7.5 Z M11.4051172,25.1201172 C11.5808993,25.1201172 11.7298236,25.1811517 11.8518945,25.3032227 C11.9739655,25.4252936 12.035,25.5742179 12.035,25.75 L12.035,35.7548828 C12.035,35.9208993 11.9739655,36.0649408 11.8518945,36.1870117 C11.7298236,36.3090826 11.5808993,36.3701172 11.4051172,36.3701172 L1.41488281,36.3701172 C1.23910068,36.3701172 1.09017639,36.3090826 0.968105465,36.1870117 C0.846034542,36.0649408 0.784999996,35.9208993 0.784999996,35.7548828 L0.784999996,25.75 C0.784999996,25.5742179 0.846034542,25.4252936 0.968105465,25.3032227 C1.09017639,25.1811517 1.23910068,25.1201172 1.41488281,25.1201172 L11.4051172,25.1201172 Z M9.53011718,29.5 L8.66585937,28.6064453 L5.79476562,31.4921875 L4.16878906,29.8662109 L3.28988281,30.7451172 L5.78011718,33.25 L9.53011718,29.5 Z M5.79476562,53.4921875 L8.66585937,50.6064453 L9.53011718,51.5 L5.78011718,55.25 L3.28988281,52.7451172 L4.16878906,51.8662109 L5.79476562,53.4921875 Z M11.4051172,58.3701172 L1.41488281,58.3701172 C1.23910068,58.3701172 1.09017639,58.3090826 0.968105465,58.1870117 C0.846034542,58.0649408 0.784999996,57.9208993 0.784999996,57.7548828 L0.784999996,47.75 C0.784999996,47.5742179 0.846034542,47.4252936 0.968105465,47.3032227 C1.09017639,47.1811517 1.23910068,47.1201172 1.41488281,47.1201172 L11.4051172,47.1201172 C11.5808993,47.1201172 11.7298236,47.1811517 11.8518945,47.3032227 C11.9739655,47.4252936 12.035,47.5742179 12.035,47.75 L12.035,57.7548828 C12.035,57.9208993 11.9739655,58.0649408 11.8518945,58.1870117 C11.7298236,58.3090826 11.5808993,58.3701172 11.4051172,58.3701172 Z M2.03011718,57.125 L10.7898828,57.125 L10.7898828,48.3798828 L2.03011718,48.3798828 L2.03011718,57.125 Z" id="--" fill="#111111"></path>
        <path d="M131.405117,3.12011719 C131.580899,3.12011719 131.729824,3.18115173 131.851895,3.30322266 C131.973965,3.42529358 132.035,3.57421787 132.035,3.75 L132.035,13.7548828 C132.035,13.9208993 131.973965,14.0649408 131.851895,14.1870117 C131.729824,14.3090826 131.580899,14.3701172 131.405117,14.3701172 L121.414883,14.3701172 C121.239101,14.3701172 121.090176,14.3090826 120.968105,14.1870117 C120.846035,14.0649408 120.785,13.9208993 120.785,13.7548828 L120.785,3.75 C120.785,3.57421787 120.846035,3.42529358 120.968105,3.30322266 C121.090176,3.18115173 121.239101,3.12011719 121.414883,3.12011719 L131.405117,3.12011719 Z M129.530117,7.5 L128.665859,6.60644531 L125.794766,9.4921875 L124.168789,7.86621094 L123.289883,8.74511719 L125.780117,11.25 L129.530117,7.5 Z M125.794766,31.4921875 L128.665859,28.6064453 L129.530117,29.5 L125.780117,33.25 L123.289883,30.7451172 L124.168789,29.8662109 L125.794766,31.4921875 Z M131.405117,36.3701172 L121.414883,36.3701172 C121.239101,36.3701172 121.090176,36.3090826 120.968105,36.1870117 C120.846035,36.0649408 120.785,35.9208993 120.785,35.7548828 L120.785,25.75 C120.785,25.5742179 120.846035,25.4252936 120.968105,25.3032227 C121.090176,25.1811517 121.239101,25.1201172 121.414883,25.1201172 L131.405117,25.1201172 C131.580899,25.1201172 131.729824,25.1811517 131.851895,25.3032227 C131.973965,25.4252936 132.035,25.5742179 132.035,25.75 L132.035,35.7548828 C132.035,35.9208993 131.973965,36.0649408 131.851895,36.1870117 C131.729824,36.3090826 131.580899,36.3701172 131.405117,36.3701172 Z M122.030117,35.125 L130.789883,35.125 L130.789883,26.3798828 L122.030117,26.3798828 L122.030117,35.125 Z" id="-" fill="#111111"></path>
        <path d="M33.404,52 C33.6852514,52 33.9222282,52.0963532 34.1149375,52.2890625 C34.3076468,52.4817718 34.404,52.7187486 34.404,53 L34.404,56 C34.404,56.8333375 34.1123362,57.5416637 33.529,58.125 C32.9456637,58.7083363 32.2373375,59 31.404,59 L25.404,59 C24.5706625,59 23.8623362,58.7083363 23.279,58.125 C22.6956637,57.5416637 22.404,56.8333375 22.404,56 L22.404,49 C22.404,48.1666625 22.6956637,47.4583363 23.279,46.875 C23.8623362,46.2916637 24.5706625,46 25.404,46 L29.404,46 C30.2373375,46 30.9456637,46.2916637 31.529,46.875 C32.1123362,47.4583363 32.404,48.1666625 32.404,49 L32.404,51 C32.404,51.2812514 32.5003532,51.5182282 32.6930625,51.7109375 C32.8857718,51.9036468 33.1227486,52 33.404,52 Z M26.357125,49 C26.0758736,49 25.8388968,49.0963532 25.6461875,49.2890625 C25.4534782,49.4817718 25.357125,49.7187486 25.357125,50 C25.357125,50.2812514 25.4534782,50.5182282 25.6461875,50.7109375 C25.8388968,50.9036468 26.0758736,51 26.357125,51 L28.950875,51 C29.2321264,51 29.4691032,50.9036468 29.6618125,50.7109375 C29.8545218,50.5182282 29.950875,50.2812514 29.950875,50 C29.950875,49.7187486 29.8545218,49.4817718 29.6618125,49.2890625 C29.4691032,49.0963532 29.2321264,49 28.950875,49 L26.357125,49 Z M30.404,56 C30.6852514,56 30.9222282,55.9036468 31.1149375,55.7109375 C31.3076468,55.5182282 31.404,55.2812514 31.404,55 C31.404,54.7187486 31.3076468,54.4817718 31.1149375,54.2890625 C30.9222282,54.0963532 30.6852514,54 30.404,54 L26.357125,54 C26.0758736,54 25.8388968,54.0963532 25.6461875,54.2890625 C25.4534782,54.4817718 25.357125,54.7187486 25.357125,55 C25.357125,55.2812514 25.4534782,55.5182282 25.6461875,55.7109375 C25.8388968,55.9036468 26.0758736,56 26.357125,56 L30.404,56 Z" id="" fill="#3DC52D"></path>
        <path d="M25.113909,23.0421244 C25.8605334,23.0080581 26.0989141,23 28.0000139,23 C29.9010859,23 30.1394666,23.0080581 30.886091,23.0421244 C31.6311594,23.0761073 32.1400144,23.1944502 32.585266,23.3675048 C33.0455779,23.5463668 33.435951,23.7857201 33.8251294,24.1748706 C34.2142799,24.564049 34.4536332,24.9544221 34.632523,25.414734 C34.8055498,25.8599856 34.9238927,26.3688406 34.9578756,27.113909 C34.9919419,27.8605334 35,28.0989141 35,30.0000139 C35,31.9010859 34.9919419,32.1394666 34.9578756,32.886091 C34.9238927,33.6311594 34.8055498,34.1400144 34.632523,34.585266 C34.4536332,35.0455779 34.2142799,35.435951 33.8251294,35.8251294 C33.435951,36.2142799 33.0455779,36.4536332 32.585266,36.632523 C32.1400144,36.8055498 31.6311594,36.9238927 30.886091,36.9578756 C30.1394666,36.9919419 29.9010859,37 28.0000139,37 C26.0989141,37 25.8605334,36.9919419 25.113909,36.9578756 C24.3688406,36.9238927 23.8599856,36.8055498 23.414734,36.632523 C22.9544221,36.4536332 22.564049,36.2142799 22.1748706,35.8251294 C21.7857201,35.435951 21.5463668,35.0455779 21.3675048,34.585266 C21.1944502,34.1400144 21.0761073,33.6311594 21.0421244,32.886091 C21.0080581,32.1394666 21,31.9010859 21,30.0000139 C21,28.0989141 21.0080581,27.8605334 21.0421244,27.113909 C21.0761073,26.3688406 21.1944502,25.8599856 21.3675048,25.414734 C21.5463668,24.9544221 21.7857201,24.564049 22.1748706,24.1748706 C22.564049,23.7857201 22.9544221,23.5463668 23.414734,23.3675048 C23.8599856,23.1944502 24.3688406,23.0761073 25.113909,23.0421244 Z M30.9673417,24.4408184 C30.2292199,24.4071411 30.0078168,24.4 28.1387549,24.4 C26.2696652,24.4 26.0482621,24.4071411 25.3101403,24.4408184 C24.6276472,24.4719394 24.2570025,24.5859753 24.0103414,24.6818389 C23.6835994,24.8088234 23.4504147,24.9605102 23.2054763,25.2054763 C22.9605102,25.4504147 22.8088234,25.6835994 22.6818389,26.0103414 C22.5859753,26.2570025 22.4719394,26.6276472 22.4408184,27.3101403 C22.4071411,28.0482621 22.4,28.2696652 22.4,30.1387549 C22.4,32.0078168 22.4071411,32.2292199 22.4408184,32.9673417 C22.4719394,33.6498348 22.5859753,34.0204795 22.6818389,34.2671406 C22.8088234,34.5938826 22.9605379,34.8270673 23.2054763,35.0720057 C23.4504147,35.3169718 23.6835994,35.4686586 24.0103414,35.5956431 C24.2570025,35.6915066 24.6276472,35.8055426 25.3101403,35.8366636 C26.0481787,35.8703408 26.2695263,35.877482 28.1387549,35.877482 C30.0079557,35.877482 30.2293311,35.8703408 30.9673417,35.8366636 C31.6498348,35.8055426 32.0204795,35.6915066 32.2671406,35.5956431 C32.5938826,35.4686586 32.8270673,35.3169718 33.0720057,35.0720057 C33.3169718,34.8270673 33.4686586,34.5938826 33.5956431,34.2671406 C33.6915066,34.0204795 33.8055426,33.6498348 33.8366636,32.9673417 C33.8703408,32.2292199 33.877482,32.0078168 33.877482,30.1387549 C33.877482,28.2696652 33.8703408,28.0482621 33.8366636,27.3101403 C33.8055426,26.6276472 33.6915066,26.2570025 33.5956431,26.0103414 C33.4686586,25.6835994 33.3169718,25.4504147 33.0720057,25.2054763 C32.8270673,24.9605102 32.5938826,24.8088234 32.2671406,24.6818389 C32.0204795,24.5859753 31.6498348,24.4719394 30.9673417,24.4408184 Z M24.5,30.0946062 C24.5,28.109341 26.109341,26.5 28.0946062,26.5 C30.0798436,26.5 31.6891847,28.109341 31.6891847,30.0946062 C31.6891847,32.0798436 30.0798436,33.6891847 28.0946062,33.6891847 C26.109341,33.6891847 24.5,32.0798436 24.5,30.0946062 Z M25.9,30.2333472 C25.9,31.5220038 26.9446629,32.5666667 28.2333472,32.5666667 C29.5220038,32.5666667 30.5666667,31.5220038 30.5666667,30.2333472 C30.5666667,28.9446629 29.5220038,27.9 28.2333472,27.9 C26.9446629,27.9 25.9,28.9446629 25.9,30.2333472 Z M31.9899872,27.1300022 C31.5260909,27.1300022 31.15,26.7539391 31.15,26.290015 C31.15,25.8260909 31.5260909,25.45 31.9899872,25.45 C32.4539114,25.45 32.8300022,25.8260909 32.8300022,26.290015 C32.8300022,26.7539391 32.4539114,27.1300022 31.9899872,27.1300022 Z" id="Instagram-Copy" fill="url(#radialGradient-1)"></path>
        <path d="M49.152,6.994 L49.152,6.084 L42.873,6.084 L42.873,4.563 L49.412,4.563 L49.412,3.627 L41.729,3.627 L41.729,9.555 L49.516,9.555 L49.516,8.606 L42.873,8.606 L42.873,6.994 L49.152,6.994 Z M50.751,12.467 L50.751,11.531 L40.494,11.531 L40.494,12.467 L50.751,12.467 Z M58.551,5.551 C58.551,6.968 57.29,7.982 55.548,7.982 C53.767,7.982 52.545,6.968 52.545,5.551 C52.545,4.095 53.767,3.094 55.548,3.094 C57.316,3.094 58.551,4.095 58.551,5.551 Z M61.294,13.91 L61.294,2.548 L60.15,2.548 L60.15,13.91 L61.294,13.91 Z M56.107,13.572 L56.107,9.698 C57.355,9.62 58.733,9.542 59.604,9.412 L59.474,8.502 C58.408,8.619 57.108,8.697 55.6,8.762 C54.352,8.814 53.078,8.827 51.739,8.827 L51.908,9.828 C52.883,9.815 53.871,9.802 54.963,9.763 L54.963,13.572 L56.107,13.572 Z M57.368,5.538 C57.368,4.654 56.575,4.069 55.548,4.069 C54.521,4.069 53.728,4.654 53.728,5.538 C53.728,6.409 54.521,6.981 55.548,6.981 C56.588,6.981 57.368,6.409 57.368,5.538 Z M64.804,10.296 L65.09,10.296 C66.858,10.296 68.678,10.192 69.835,9.932 L70.004,10.868 C68.808,11.115 66.91,11.232 64.817,11.245 L63.673,11.245 L63.673,3.601 L69.081,3.601 L69.081,4.524 L64.804,4.524 L64.804,6.721 L68.574,6.721 L68.574,7.644 L64.804,7.644 L64.804,10.296 Z M72.604,13.91 L71.46,13.91 L71.46,7.787 L69.25,7.787 L69.25,6.812 L71.46,6.812 L71.46,2.548 L72.604,2.548 L72.604,13.91 Z M49.815,32.803 L48.658,32.803 L48.658,24.548 L49.815,24.548 L49.815,32.803 Z M50.075,35.559 L42.34,35.559 L42.34,32.023 L43.497,32.023 L43.497,34.636 L50.075,34.636 L50.075,35.559 Z M43.783,25.315 C45.538,25.315 46.825,26.524 46.825,28.149 C46.825,29.787 45.538,30.918 43.783,30.918 C42.041,30.918 40.754,29.787 40.754,28.162 C40.754,26.524 42.041,25.315 43.783,25.315 Z M43.783,26.303 C42.717,26.303 41.963,27.083 41.963,28.136 C41.963,29.176 42.717,29.956 43.783,29.956 C44.901,29.956 45.603,29.189 45.603,28.149 C45.603,27.07 44.901,26.303 43.783,26.303 Z M61.84,30.307 C60.098,29.969 57.615,28.279 57.615,26.381 L57.615,25.497 L56.432,25.497 L56.432,26.381 C56.432,28.292 54.092,29.943 52.233,30.268 L52.818,31.204 C54.664,30.723 56.562,29.28 57.017,27.993 C57.55,29.267 59.435,30.71 61.216,31.217 L61.84,30.307 Z M62.152,34.376 L62.152,33.44 L51.895,33.44 L51.895,34.376 L62.152,34.376 Z M64.856,32.283 L64.856,29.748 L68.86,29.748 L68.86,28.812 L64.856,28.812 L64.856,26.524 L69.146,26.524 L69.146,25.601 L63.712,25.601 L63.712,33.245 L64.778,33.245 C66.936,33.219 68.912,33.089 70.134,32.842 L70.03,31.906 C68.834,32.192 66.741,32.283 64.856,32.283 Z M72.071,24.548 L70.927,24.548 L70.927,35.91 L72.071,35.91 L72.071,29.943 L73.839,29.943 L73.839,28.981 L72.071,28.981 L72.071,24.548 Z M84.9540001,34.259 L84.9540001,33.323 L74.6970001,33.323 L74.6970001,34.259 L84.9540001,34.259 Z M83.5890001,25.835 L75.7630001,25.835 L75.7630001,26.758 L82.4190001,26.758 C82.4190001,28.474 82.2240001,31.269 81.9380001,32.361 L83.0560001,32.504 C83.3940001,31.035 83.5890001,28.422 83.5890001,25.835 Z M95.6920001,35.754 L88.1780001,35.754 L88.1780001,31.919 L95.6920001,31.919 L95.6920001,35.754 Z M91.5450001,29.579 C90.4790001,29.813 89.0880001,29.917 87.7620001,29.917 L87.7620001,28.474 L91.0250001,28.474 L91.0250001,25.315 L86.5920001,25.315 L86.5920001,26.251 L89.8810001,26.251 L89.8810001,27.551 L86.6180001,27.551 L86.6180001,30.84 L87.4500001,30.84 C88.9580001,30.84 90.5310001,30.71 91.6750001,30.489 L91.5450001,29.579 Z M95.6920001,31.321 L95.6920001,24.548 L94.5870001,24.548 L94.5870001,27.525 L93.3390001,27.525 L93.3390001,24.756 L92.2470001,24.756 L92.2470001,31.217 L93.3390001,31.217 L93.3390001,28.461 L94.5870001,28.461 L94.5870001,31.321 L95.6920001,31.321 Z M94.5480001,34.831 L94.5480001,32.842 L89.3350001,32.842 L89.3350001,34.831 L94.5480001,34.831 Z M50.751,52.476 L50.751,51.54 L40.494,51.54 L40.494,52.476 L50.751,52.476 Z M49.854,57.832 L49.854,56.883 L42.86,56.883 L42.86,55.973 L49.464,55.973 L49.464,53.321 L41.677,53.321 L41.677,54.244 L48.32,54.244 L48.32,55.128 L41.716,55.128 L41.716,57.832 L49.854,57.832 Z M49.425,50.604 L41.82,50.604 L41.82,46.821 L42.964,46.821 L42.964,47.848 L48.268,47.848 L48.268,46.808 L49.425,46.808 L49.425,50.604 Z M48.268,49.707 L48.268,48.758 L42.964,48.758 L42.964,49.707 L48.268,49.707 Z M62.152,56.467 L62.152,55.531 L57.576,55.531 L57.576,53.737 L61.19,53.737 L61.19,52.801 L54.274,52.801 L54.274,51.02 L60.878,51.02 L60.878,47.484 L53.104,47.484 L53.104,48.42 L59.734,48.42 L59.734,50.084 L53.13,50.084 L53.13,53.737 L56.419,53.737 L56.419,55.531 L51.895,55.531 L51.895,56.467 L62.152,56.467 Z M73.553,56.259 L73.553,55.323 L63.296,55.323 L63.296,56.259 L73.553,56.259 Z M72.188,47.835 L64.362,47.835 L64.362,48.758 L71.018,48.758 C71.018,50.474 70.823,53.269 70.537,54.361 L71.655,54.504 C71.993,53.035 72.188,50.422 72.188,47.835 Z" id="트위터-인스타그램-블로그" fill="#212121"></path>
        <path d="M164.031,5.603 L163.641,10.049 C164.187,10.023 164.668,9.971 165.019,9.906 L165.123,10.829 C164.525,10.907 163.446,11.024 162.471,11.063 C161.379,11.141 160.456,11.18 159.507,11.18 L159.325,10.205 C159.715,10.205 160.131,10.205 160.573,10.192 L160.222,5.642 L161.353,5.486 L161.6,10.166 L162.406,10.127 C162.484,10.127 162.562,10.127 162.653,10.114 L162.926,5.499 L164.031,5.603 Z M166.995,13.351 L165.89,13.351 L165.89,7.878 L164.434,7.878 L164.434,6.942 L165.89,6.942 L165.89,2.808 L166.995,2.808 L166.995,13.351 Z M169.088,13.91 L169.088,2.548 L167.983,2.548 L167.983,13.91 L169.088,13.91 Z M164.785,4.862 L159.598,4.862 L159.598,3.926 L164.785,3.926 L164.785,4.862 Z M180.268,13.91 L180.268,2.548 L179.111,2.548 L179.111,13.91 L180.268,13.91 Z M171.298,7.41 C171.298,5.161 172.208,3.406 174.223,3.406 C176.238,3.406 177.135,5.161 177.135,7.423 C177.135,9.672 176.238,11.44 174.223,11.44 C172.208,11.44 171.298,9.672 171.298,7.41 Z M175.991,7.423 C175.991,5.668 175.393,4.394 174.223,4.394 C173.066,4.394 172.468,5.668 172.468,7.423 C172.468,9.178 173.066,10.439 174.223,10.439 C175.393,10.439 175.991,9.178 175.991,7.423 Z M192.241,8.307 C190.499,7.969 188.016,6.279 188.016,4.381 L188.016,3.497 L186.833,3.497 L186.833,4.381 C186.833,6.292 184.493,7.943 182.634,8.268 L183.219,9.204 C185.065,8.723 186.963,7.28 187.418,5.993 C187.951,7.267 189.836,8.71 191.617,9.217 L192.241,8.307 Z M192.553,12.376 L192.553,11.44 L182.296,11.44 L182.296,12.376 L192.553,12.376 Z M202.667,7.111 L194.997,7.111 L194.997,2.86 L196.154,2.86 L196.154,4.121 L201.51,4.121 L201.51,2.847 L202.667,2.847 L202.667,7.111 Z M194.815,10.27 L194.815,11.219 L201.575,11.219 L201.575,13.962 L202.719,13.962 L202.719,10.27 L199.378,10.27 L199.378,9.009 L203.954,9.009 L203.954,8.073 L193.697,8.073 L193.697,9.009 L198.221,9.009 L198.221,10.27 L194.815,10.27 Z M201.51,6.175 L201.51,5.044 L196.154,5.044 L196.154,6.175 L201.51,6.175 Z M164.369,32.907 L159.897,32.907 L159.897,25.77 L164.369,25.77 L164.369,32.907 Z M169.088,35.91 L169.088,24.548 L167.983,24.548 L167.983,29.033 L166.735,29.033 L166.735,24.795 L165.63,24.795 L165.63,35.351 L166.735,35.351 L166.735,29.982 L167.983,29.982 L167.983,35.91 L169.088,35.91 Z M163.264,31.997 L163.264,26.693 L160.989,26.693 L160.989,31.997 L163.264,31.997 Z M180.84,30.307 C179.098,29.969 176.615,28.279 176.615,26.381 L176.615,25.497 L175.432,25.497 L175.432,26.381 C175.432,28.292 173.092,29.943 171.233,30.268 L171.818,31.204 C173.664,30.723 175.562,29.28 176.017,27.993 C176.55,29.267 178.435,30.71 180.216,31.217 L180.84,30.307 Z M181.152,34.376 L181.152,33.44 L170.895,33.44 L170.895,34.376 L181.152,34.376 Z M191.591,35.91 L191.591,24.548 L190.447,24.548 L190.447,35.91 L191.591,35.91 Z M188.341,33.011 L182.894,33.011 L182.894,25.692 L188.341,25.692 L188.341,33.011 Z M187.197,32.062 L187.197,26.628 L184.038,26.628 L184.038,32.062 L187.197,32.062 Z M203.018,35.91 L203.018,24.548 L201.861,24.548 L201.861,35.91 L203.018,35.91 Z M195.4,32.088 L195.4,26.589 L199.703,26.589 L199.703,25.653 L194.269,25.653 L194.269,33.076 L195.543,33.076 C197.61,33.076 199.599,32.933 200.769,32.686 L200.613,31.737 C199.17,32.023 197.064,32.088 195.4,32.088 Z M205.15,29.371 C205.15,27.122 206.06,25.354 208.075,25.354 C209.921,25.354 210.818,26.849 210.961,28.851 L213.262,28.851 L213.262,24.548 L214.419,24.548 L214.419,35.91 L213.262,35.91 L213.262,29.826 L210.961,29.826 C210.831,31.854 209.947,33.388 208.075,33.388 C206.06,33.388 205.15,31.62 205.15,29.371 Z M209.83,29.384 C209.83,27.616 209.219,26.342 208.075,26.342 C206.918,26.342 206.333,27.616 206.333,29.384 C206.333,31.126 206.918,32.4 208.075,32.4 C209.219,32.4 209.83,31.126 209.83,29.384 Z" id="페이스북-매스미디어" fill="#212121"></path>
    </g>
</svg>