
<svg width="617px" height="290px" viewBox="0 0 617 290" version="1.1" xmlns="http://www.w3.org/2000/svg" xmlns:xlink="http://www.w3.org/1999/xlink">
    <!-- Generator: Sketch 43.2 (39069) - http://www.bohemiancoding.com/sketch -->
    <desc>Created with Sketch.</desc>
    <defs></defs>
    <g id="Page-1" stroke="none" stroke-width="1" fill="none" fill-rule="evenodd">
        <g id="graph_15">
            <g id="graph" transform="translate(0.000000, 27.000000)">
                <g id="lines" transform="translate(23.000000, 3.000000)" stroke="#E9E9E9" stroke-width="0.6" stroke-linecap="square">
                    <path d="M0.935546875,41.3 L592.935547,41.3" id="6"></path>
                    <path d="M0.935546875,1.3 L592.935547,1.3" id="6-copy"></path>
                    <path d="M0.935546875,80.3 L592.935547,80.3" id="5"></path>
                    <path d="M0.935546875,119.3 L592.935547,119.3" id="4"></path>
                    <path d="M0.935546875,158.3 L592.935547,158.3" id="3"></path>
                    <path d="M0.935546875,197.3 L592.935547,197.3" id="2"></path>
                    <path d="M0.935546875,236.3 L592.935547,236.3" id="1"></path>
                </g>
                <g id="number_and_date" fill="#485465">
                    <path d="M56.9025781,261 L60.0812891,254.818359 L60.0812891,254.740234 L56.4435937,254.740234 L56.4435937,253.954102 L60.9601953,253.954102 L60.9601953,254.769531 L57.8254297,261 L56.9025781,261 Z M62.4034375,262.586914 L61.6710156,262.586914 L63.8194531,253.954102 L64.5616406,253.954102 L62.4034375,262.586914 Z M67.4453125,261 L67.4453125,254.930664 L67.3671875,254.930664 L65.5751953,256.229492 L65.5751953,255.301758 L67.4501953,253.954102 L68.3242188,253.954102 L68.3242188,261 L67.4453125,261 Z M71.9842578,257.75293 L71.9842578,257.000977 L72.83875,257.000977 C73.2391426,257.000977 73.5671016,256.88379 73.8226367,256.649414 C74.0781719,256.415038 74.2059375,256.115562 74.2059375,255.750977 C74.2059375,255.392902 74.0822408,255.104005 73.8348438,254.884277 C73.5874467,254.66455 73.2603015,254.554688 72.8533984,254.554688 C72.4464954,254.554688 72.1177226,254.661295 71.8670703,254.874512 C71.616418,255.087729 71.4731903,255.383136 71.4373828,255.760742 L70.5828906,255.760742 C70.6284638,255.14876 70.8563261,254.666994 71.2664844,254.31543 C71.6766427,253.963865 72.2170019,253.788086 72.8875781,253.788086 C73.291226,253.788086 73.6631298,253.870279 74.0033008,254.034668 C74.3434718,254.199057 74.61121,254.42285 74.8065234,254.706055 C75.0018369,254.989259 75.0994922,255.298501 75.0994922,255.633789 C75.0994922,256.053713 74.9904438,256.408527 74.7723438,256.698242 C74.5542437,256.987957 74.2515124,257.180013 73.8641406,257.274414 L73.8641406,257.352539 C74.3426586,257.414388 74.7186315,257.600747 74.9920703,257.911621 C75.2655092,258.222495 75.4022266,258.618813 75.4022266,259.100586 C75.4022266,259.680016 75.1629711,260.169106 74.6844531,260.567871 C74.2059351,260.966636 73.6183759,261.166016 72.9217578,261.166016 C72.2056084,261.166016 71.6213044,260.982912 71.1688281,260.616699 C70.7163519,260.250486 70.4738413,259.766279 70.4412891,259.164062 L71.2908984,259.164062 C71.3299611,259.538413 71.4959751,259.83789 71.7889453,260.0625 C72.0819155,260.28711 72.4562607,260.399414 72.9119922,260.399414 C73.3742341,260.399414 73.7542759,260.275717 74.0521289,260.02832 C74.349982,259.780923 74.4989063,259.463544 74.4989063,259.076172 C74.4989063,258.669269 74.3540509,258.347006 74.0643359,258.109375 C73.774621,257.871744 73.3791171,257.75293 72.8778125,257.75293 L71.9842578,257.75293 Z" id="7/13"></path>
                    <path d="M16.5342969,243.166016 C15.7400221,243.166016 15.1247938,242.843753 14.6885937,242.199219 C14.2523936,241.554684 14.0342969,240.64649 14.0342969,239.474609 C14.0342969,238.312494 14.2540212,237.407555 14.6934766,236.759766 C15.1329319,236.111976 15.7465325,235.788086 16.5342969,235.788086 C17.318806,235.788086 17.9299653,236.113604 18.367793,236.764648 C18.8056207,237.415693 19.0245312,238.323887 19.0245312,239.489258 C19.0245312,240.657883 18.8072483,241.562822 18.3726758,242.204102 C17.9381033,242.845381 17.3253165,243.166016 16.5342969,243.166016 Z M16.5342969,242.399414 C17.0551328,242.399414 17.453078,242.147952 17.7281445,241.64502 C18.003211,241.142087 18.1407422,240.418625 18.1407422,239.474609 C18.1407422,238.54036 18.0015834,237.820966 17.7232617,237.316406 C17.44494,236.811846 17.0486224,236.55957 16.5342969,236.55957 C16.0199714,236.55957 15.6220261,236.81266 15.3404492,237.318848 C15.0588723,237.825035 14.9180859,238.543615 14.9180859,239.474609 C14.9180859,240.415369 15.0572447,241.138018 15.3355664,241.642578 C15.6138881,242.147138 16.0134609,242.399414 16.5342969,242.399414 Z" id="0"></path>
                    <path d="M4.64878905,204 L4.64878905,197.930664 L4.57066405,197.930664 L2.77867186,199.229492 L2.77867186,198.301758 L4.65367186,196.954102 L5.5276953,196.954102 L5.5276953,204 L4.64878905,204 Z M10.1154687,204.166016 C9.32119394,204.166016 8.70596571,203.843753 8.26976562,203.199219 C7.83356552,202.554684 7.61546874,201.64649 7.61546874,200.474609 C7.61546874,199.312494 7.83519311,198.407555 8.27464843,197.759766 C8.71410375,197.111976 9.32770438,196.788086 10.1154687,196.788086 C10.8999779,196.788086 11.5111371,197.113604 11.9489648,197.764648 C12.3867925,198.415693 12.6057031,199.323887 12.6057031,200.489258 C12.6057031,201.657883 12.3884201,202.562822 11.9538476,203.204102 C11.5192752,203.845381 10.9064883,204.166016 10.1154687,204.166016 Z M10.1154687,203.399414 C10.6363047,203.399414 11.0342499,203.147952 11.3093164,202.64502 C11.5843829,202.142087 11.7219141,201.418625 11.7219141,200.474609 C11.7219141,199.54036 11.5827553,198.820966 11.3044336,198.316406 C11.0261119,197.811846 10.6297942,197.55957 10.1154687,197.55957 C9.60114325,197.55957 9.20319801,197.81266 8.92162108,198.318848 C8.64004416,198.825035 8.4992578,199.543615 8.4992578,200.474609 C8.4992578,201.415369 8.63841657,202.138018 8.91673827,202.642578 C9.19505998,203.147138 9.5946328,203.399414 10.1154687,203.399414 Z M16.5342969,204.166016 C15.7400221,204.166016 15.1247938,203.843753 14.6885937,203.199219 C14.2523936,202.554684 14.0342969,201.64649 14.0342969,200.474609 C14.0342969,199.312494 14.2540212,198.407555 14.6934766,197.759766 C15.1329319,197.111976 15.7465325,196.788086 16.5342969,196.788086 C17.318806,196.788086 17.9299653,197.113604 18.367793,197.764648 C18.8056207,198.415693 19.0245312,199.323887 19.0245312,200.489258 C19.0245312,201.657883 18.8072483,202.562822 18.3726758,203.204102 C17.9381033,203.845381 17.3253165,204.166016 16.5342969,204.166016 Z M16.5342969,203.399414 C17.0551328,203.399414 17.453078,203.147952 17.7281445,202.64502 C18.003211,202.142087 18.1407422,201.418625 18.1407422,200.474609 C18.1407422,199.54036 18.0015834,198.820966 17.7232617,198.316406 C17.44494,197.811846 17.0486224,197.55957 16.5342969,197.55957 C16.0199714,197.55957 15.6220261,197.81266 15.3404492,198.318848 C15.0588723,198.825035 14.9180859,199.543615 14.9180859,200.474609 C14.9180859,201.415369 15.0572447,202.138018 15.3355664,202.642578 C15.6138881,203.147138 16.0134609,203.399414 16.5342969,203.399414 Z" id="100"></path>
                    <path d="M1.5433203,159.936523 C1.5433203,159.31152 1.75572052,158.797203 2.18052733,158.393555 C2.60533414,157.989907 3.14487953,157.788086 3.79917967,157.788086 C4.43069325,157.788086 4.96047311,157.9777 5.38853514,158.356934 C5.81659718,158.736167 6.03062499,159.205726 6.03062499,159.765625 C6.03062499,160.133465 5.92645936,160.49479 5.71812499,160.849609 C5.50979061,161.204429 5.11754193,161.691078 4.54136717,162.30957 L2.84703124,164.130859 L2.84703124,164.208984 L6.14781249,164.208984 L6.14781249,165 L1.58726561,165 L1.58726561,164.394531 L4.02378905,161.733398 C4.47626527,161.24186 4.77736903,160.867514 4.92710936,160.610352 C5.07684969,160.353189 5.15171874,160.083009 5.15171874,159.799805 C5.15171874,159.44824 5.01907032,159.152833 4.75376952,158.913574 C4.48846871,158.674315 4.16213734,158.554688 3.77476561,158.554688 C3.36135209,158.554688 3.02769657,158.681639 2.77378905,158.935547 C2.51988153,159.189454 2.39292967,159.52311 2.39292967,159.936523 L2.39292967,159.941406 L1.5433203,159.941406 L1.5433203,159.936523 Z M10.1154687,165.166016 C9.32119394,165.166016 8.70596571,164.843753 8.26976562,164.199219 C7.83356552,163.554684 7.61546874,162.64649 7.61546874,161.474609 C7.61546874,160.312494 7.83519311,159.407555 8.27464843,158.759766 C8.71410375,158.111976 9.32770438,157.788086 10.1154687,157.788086 C10.8999779,157.788086 11.5111371,158.113604 11.9489648,158.764648 C12.3867925,159.415693 12.6057031,160.323887 12.6057031,161.489258 C12.6057031,162.657883 12.3884201,163.562822 11.9538476,164.204102 C11.5192752,164.845381 10.9064883,165.166016 10.1154687,165.166016 Z M10.1154687,164.399414 C10.6363047,164.399414 11.0342499,164.147952 11.3093164,163.64502 C11.5843829,163.142087 11.7219141,162.418625 11.7219141,161.474609 C11.7219141,160.54036 11.5827553,159.820966 11.3044336,159.316406 C11.0261119,158.811846 10.6297942,158.55957 10.1154687,158.55957 C9.60114325,158.55957 9.20319801,158.81266 8.92162108,159.318848 C8.64004416,159.825035 8.4992578,160.543615 8.4992578,161.474609 C8.4992578,162.415369 8.63841657,163.138018 8.91673827,163.642578 C9.19505998,164.147138 9.5946328,164.399414 10.1154687,164.399414 Z M16.5342969,165.166016 C15.7400221,165.166016 15.1247938,164.843753 14.6885937,164.199219 C14.2523936,163.554684 14.0342969,162.64649 14.0342969,161.474609 C14.0342969,160.312494 14.2540212,159.407555 14.6934766,158.759766 C15.1329319,158.111976 15.7465325,157.788086 16.5342969,157.788086 C17.318806,157.788086 17.9299653,158.113604 18.367793,158.764648 C18.8056207,159.415693 19.0245312,160.323887 19.0245312,161.489258 C19.0245312,162.657883 18.8072483,163.562822 18.3726758,164.204102 C17.9381033,164.845381 17.3253165,165.166016 16.5342969,165.166016 Z M16.5342969,164.399414 C17.0551328,164.399414 17.453078,164.147952 17.7281445,163.64502 C18.003211,163.142087 18.1407422,162.418625 18.1407422,161.474609 C18.1407422,160.54036 18.0015834,159.820966 17.7232617,159.316406 C17.44494,158.811846 17.0486224,158.55957 16.5342969,158.55957 C16.0199714,158.55957 15.6220261,158.81266 15.3404492,159.318848 C15.0588723,159.825035 14.9180859,160.543615 14.9180859,161.474609 C14.9180859,162.415369 15.0572447,163.138018 15.3355664,163.642578 C15.6138881,164.147138 16.0134609,164.399414 16.5342969,164.399414 Z" id="200"></path>
                    <path d="M2.79820311,122.75293 L2.79820311,122.000977 L3.6526953,122.000977 C4.05308793,122.000977 4.38104689,121.88379 4.63658202,121.649414 C4.89211715,121.415038 5.0198828,121.115562 5.0198828,120.750977 C5.0198828,120.392902 4.89618612,120.104005 4.64878905,119.884277 C4.40139198,119.66455 4.07424681,119.554688 3.66734374,119.554688 C3.26044066,119.554688 2.93166791,119.661295 2.68101561,119.874512 C2.43036332,120.087729 2.28713558,120.383136 2.25132811,120.760742 L1.39683592,120.760742 C1.44240907,120.14876 1.67027137,119.666994 2.08042967,119.31543 C2.49058797,118.963865 3.03094715,118.788086 3.70152342,118.788086 C4.10517127,118.788086 4.47707511,118.870279 4.81724608,119.034668 C5.15741705,119.199057 5.42515526,119.42285 5.62046874,119.706055 C5.81578221,119.989259 5.91343749,120.298501 5.91343749,120.633789 C5.91343749,121.053713 5.8043891,121.408527 5.58628905,121.698242 C5.368189,121.987957 5.06545765,122.180013 4.67808592,122.274414 L4.67808592,122.352539 C5.15660394,122.414388 5.53257674,122.600747 5.80601561,122.911621 C6.07945448,123.222495 6.21617186,123.618813 6.21617186,124.100586 C6.21617186,124.680016 5.97691644,125.169106 5.49839842,125.567871 C5.01988041,125.966636 4.43232118,126.166016 3.73570311,126.166016 C3.0195537,126.166016 2.43524964,125.982912 1.98277342,125.616699 C1.5302972,125.250486 1.28778661,124.766279 1.25523436,124.164062 L2.10484374,124.164062 C2.14390643,124.538413 2.3099204,124.83789 2.60289061,125.0625 C2.89586083,125.28711 3.27020604,125.399414 3.72593749,125.399414 C4.18817938,125.399414 4.56822115,125.275717 4.8660742,125.02832 C5.16392726,124.780923 5.31285155,124.463544 5.31285155,124.076172 C5.31285155,123.669269 5.16799623,123.347006 4.87828124,123.109375 C4.58856625,122.871744 4.19306239,122.75293 3.6917578,122.75293 L2.79820311,122.75293 Z M10.1154687,126.166016 C9.32119394,126.166016 8.70596571,125.843753 8.26976562,125.199219 C7.83356552,124.554684 7.61546874,123.64649 7.61546874,122.474609 C7.61546874,121.312494 7.83519311,120.407555 8.27464843,119.759766 C8.71410375,119.111976 9.32770438,118.788086 10.1154687,118.788086 C10.8999779,118.788086 11.5111371,119.113604 11.9489648,119.764648 C12.3867925,120.415693 12.6057031,121.323887 12.6057031,122.489258 C12.6057031,123.657883 12.3884201,124.562822 11.9538476,125.204102 C11.5192752,125.845381 10.9064883,126.166016 10.1154687,126.166016 Z M10.1154687,125.399414 C10.6363047,125.399414 11.0342499,125.147952 11.3093164,124.64502 C11.5843829,124.142087 11.7219141,123.418625 11.7219141,122.474609 C11.7219141,121.54036 11.5827553,120.820966 11.3044336,120.316406 C11.0261119,119.811846 10.6297942,119.55957 10.1154687,119.55957 C9.60114325,119.55957 9.20319801,119.81266 8.92162108,120.318848 C8.64004416,120.825035 8.4992578,121.543615 8.4992578,122.474609 C8.4992578,123.415369 8.63841657,124.138018 8.91673827,124.642578 C9.19505998,125.147138 9.5946328,125.399414 10.1154687,125.399414 Z M16.5342969,126.166016 C15.7400221,126.166016 15.1247938,125.843753 14.6885937,125.199219 C14.2523936,124.554684 14.0342969,123.64649 14.0342969,122.474609 C14.0342969,121.312494 14.2540212,120.407555 14.6934766,119.759766 C15.1329319,119.111976 15.7465325,118.788086 16.5342969,118.788086 C17.318806,118.788086 17.9299653,119.113604 18.367793,119.764648 C18.8056207,120.415693 19.0245312,121.323887 19.0245312,122.489258 C19.0245312,123.657883 18.8072483,124.562822 18.3726758,125.204102 C17.9381033,125.845381 17.3253165,126.166016 16.5342969,126.166016 Z M16.5342969,125.399414 C17.0551328,125.399414 17.453078,125.147952 17.7281445,124.64502 C18.003211,124.142087 18.1407422,123.418625 18.1407422,122.474609 C18.1407422,121.54036 18.0015834,120.820966 17.7232617,120.316406 C17.44494,119.811846 17.0486224,119.55957 16.5342969,119.55957 C16.0199714,119.55957 15.6220261,119.81266 15.3404492,120.318848 C15.0588723,120.825035 14.9180859,121.543615 14.9180859,122.474609 C14.9180859,123.415369 15.0572447,124.138018 15.3355664,124.642578 C15.6138881,125.147138 16.0134609,125.399414 16.5342969,125.399414 Z" id="300"></path>
                    <path d="M4.40953124,87 L4.40953124,85.5400391 L0.976914048,85.5400391 L0.976914048,84.7392578 C1.62144852,83.5934187 2.62729784,81.9983826 3.99449217,79.9541016 L5.26890624,79.9541016 L5.26890624,84.7539062 L6.2698828,84.7539062 L6.2698828,85.5400391 L5.26890624,85.5400391 L5.26890624,87 L4.40953124,87 Z M1.87535155,84.7001953 L1.87535155,84.7587891 L4.41441405,84.7587891 L4.41441405,80.7695312 L4.3558203,80.7695312 C3.59409774,81.8763076 2.76728309,83.1865159 1.87535155,84.7001953 Z M10.1154687,87.1660156 C9.32119394,87.1660156 8.70596571,86.8437532 8.26976562,86.1992188 C7.83356552,85.5546843 7.61546874,84.6464902 7.61546874,83.4746094 C7.61546874,82.3124942 7.83519311,81.4075553 8.27464843,80.7597656 C8.71410375,80.1119759 9.32770438,79.7880859 10.1154687,79.7880859 C10.8999779,79.7880859 11.5111371,80.1136035 11.9489648,80.7646484 C12.3867925,81.4156934 12.6057031,82.3238874 12.6057031,83.4892578 C12.6057031,84.6578834 12.3884201,85.5628223 11.9538476,86.2041016 C11.5192752,86.8453808 10.9064883,87.1660156 10.1154687,87.1660156 Z M10.1154687,86.3994141 C10.6363047,86.3994141 11.0342499,86.1479517 11.3093164,85.6450195 C11.5843829,85.1420873 11.7219141,84.4186245 11.7219141,83.4746094 C11.7219141,82.5403599 11.5827553,81.8209661 11.3044336,81.3164062 C11.0261119,80.8118464 10.6297942,80.5595703 10.1154687,80.5595703 C9.60114325,80.5595703 9.20319801,80.8126602 8.92162108,81.3188477 C8.64004416,81.8250351 8.4992578,82.5436151 8.4992578,83.4746094 C8.4992578,84.4153693 8.63841657,85.1380183 8.91673827,85.6425781 C9.19505998,86.1471379 9.5946328,86.3994141 10.1154687,86.3994141 Z M16.5342969,87.1660156 C15.7400221,87.1660156 15.1247938,86.8437532 14.6885937,86.1992188 C14.2523936,85.5546843 14.0342969,84.6464902 14.0342969,83.4746094 C14.0342969,82.3124942 14.2540212,81.4075553 14.6934766,80.7597656 C15.1329319,80.1119759 15.7465325,79.7880859 16.5342969,79.7880859 C17.318806,79.7880859 17.9299653,80.1136035 18.367793,80.7646484 C18.8056207,81.4156934 19.0245312,82.3238874 19.0245312,83.4892578 C19.0245312,84.6578834 18.8072483,85.5628223 18.3726758,86.2041016 C17.9381033,86.8453808 17.3253165,87.1660156 16.5342969,87.1660156 Z M16.5342969,86.3994141 C17.0551328,86.3994141 17.453078,86.1479517 17.7281445,85.6450195 C18.003211,85.1420873 18.1407422,84.4186245 18.1407422,83.4746094 C18.1407422,82.5403599 18.0015834,81.8209661 17.7232617,81.3164062 C17.44494,80.8118464 17.0486224,80.5595703 16.5342969,80.5595703 C16.0199714,80.5595703 15.6220261,80.8126602 15.3404492,81.3188477 C15.0588723,81.8250351 14.9180859,82.5436151 14.9180859,83.4746094 C14.9180859,84.4153693 15.0572447,85.1380183 15.3355664,85.6425781 C15.6138881,86.1471379 16.0134609,86.3994141 16.5342969,86.3994141 Z" id="400"></path>
                    <path d="M3.76499999,48.1660156 C3.09767894,48.1660156 2.54592665,47.9780292 2.10972655,47.6020508 C1.67352645,47.2260723 1.43589862,46.733727 1.39683592,46.125 L2.26109374,46.125 C2.30015643,46.5058613 2.45884625,46.8126616 2.73716795,47.0454102 C3.01548966,47.2781587 3.36135209,47.3945312 3.77476561,47.3945312 C4.24677318,47.3945312 4.62681495,47.2464208 4.91490233,46.9501953 C5.20298971,46.6539699 5.34703124,46.2649764 5.34703124,45.7832031 C5.34703124,45.3014299 5.20298971,44.909995 4.91490233,44.6088867 C4.62681495,44.3077784 4.25165594,44.1572266 3.78941405,44.1572266 C3.47040204,44.1572266 3.18394657,44.226399 2.93003905,44.3647461 C2.67613153,44.5030931 2.47756581,44.6975899 2.33433592,44.9482422 L1.50914061,44.9482422 L1.8948828,40.9541016 L5.82554686,40.9541016 L5.82554686,41.7402344 L2.58335936,41.7402344 L2.38316405,44.0009766 L2.46128905,44.0009766 C2.80308763,43.6005839 3.29950194,43.4003906 3.95054686,43.4003906 C4.62112313,43.4003906 5.16799266,43.620115 5.59117186,44.0595703 C6.01435106,44.4990256 6.22593749,45.0654262 6.22593749,45.7587891 C6.22593749,46.4749385 5.99807518,47.0551736 5.54234374,47.4995117 C5.08661229,47.9438499 4.4941703,48.1660156 3.76499999,48.1660156 Z M10.1154687,48.1660156 C9.32119394,48.1660156 8.70596571,47.8437532 8.26976562,47.1992188 C7.83356552,46.5546843 7.61546874,45.6464902 7.61546874,44.4746094 C7.61546874,43.3124942 7.83519311,42.4075553 8.27464843,41.7597656 C8.71410375,41.1119759 9.32770438,40.7880859 10.1154687,40.7880859 C10.8999779,40.7880859 11.5111371,41.1136035 11.9489648,41.7646484 C12.3867925,42.4156934 12.6057031,43.3238874 12.6057031,44.4892578 C12.6057031,45.6578834 12.3884201,46.5628223 11.9538476,47.2041016 C11.5192752,47.8453808 10.9064883,48.1660156 10.1154687,48.1660156 Z M10.1154687,47.3994141 C10.6363047,47.3994141 11.0342499,47.1479517 11.3093164,46.6450195 C11.5843829,46.1420873 11.7219141,45.4186245 11.7219141,44.4746094 C11.7219141,43.5403599 11.5827553,42.8209661 11.3044336,42.3164062 C11.0261119,41.8118464 10.6297942,41.5595703 10.1154687,41.5595703 C9.60114325,41.5595703 9.20319801,41.8126602 8.92162108,42.3188477 C8.64004416,42.8250351 8.4992578,43.5436151 8.4992578,44.4746094 C8.4992578,45.4153693 8.63841657,46.1380183 8.91673827,46.6425781 C9.19505998,47.1471379 9.5946328,47.3994141 10.1154687,47.3994141 Z M16.5342969,48.1660156 C15.7400221,48.1660156 15.1247938,47.8437532 14.6885937,47.1992188 C14.2523936,46.5546843 14.0342969,45.6464902 14.0342969,44.4746094 C14.0342969,43.3124942 14.2540212,42.4075553 14.6934766,41.7597656 C15.1329319,41.1119759 15.7465325,40.7880859 16.5342969,40.7880859 C17.318806,40.7880859 17.9299653,41.1136035 18.367793,41.7646484 C18.8056207,42.4156934 19.0245312,43.3238874 19.0245312,44.4892578 C19.0245312,45.6578834 18.8072483,46.5628223 18.3726758,47.2041016 C17.9381033,47.8453808 17.3253165,48.1660156 16.5342969,48.1660156 Z M16.5342969,47.3994141 C17.0551328,47.3994141 17.453078,47.1479517 17.7281445,46.6450195 C18.003211,46.1420873 18.1407422,45.4186245 18.1407422,44.4746094 C18.1407422,43.5403599 18.0015834,42.8209661 17.7232617,42.3164062 C17.44494,41.8118464 17.0486224,41.5595703 16.5342969,41.5595703 C16.0199714,41.5595703 15.6220261,41.8126602 15.3404492,42.3188477 C15.0588723,42.8250351 14.9180859,43.5436151 14.9180859,44.4746094 C14.9180859,45.4153693 15.0572447,46.1380183 15.3355664,46.6425781 C15.6138881,47.1471379 16.0134609,47.3994141 16.5342969,47.3994141 Z" id="500"></path>
                    <path d="M3.74546874,8.16113281 C3.21486712,8.16113281 2.75263216,8.02360164 2.35874999,7.74853516 C1.96486781,7.47346868 1.6572537,7.07715103 1.43589842,6.55957031 C1.2080327,6.02571348 1.09410155,5.37142314 1.09410155,4.59667969 C1.09410155,3.38573613 1.33010179,2.44824551 1.80210936,1.78417969 C2.27411693,1.12011387 2.94142796,0.788085938 3.80406249,0.788085938 C4.40302381,0.788085938 4.91001744,0.953286108 5.32505858,1.28369141 C5.74009972,1.6140967 6.00295516,2.06249717 6.1136328,2.62890625 L5.21031249,2.62890625 C5.11591097,2.30012856 4.94257286,2.04134209 4.69029295,1.85253906 C4.43801305,1.66373604 4.13935067,1.56933594 3.79429686,1.56933594 C3.22137733,1.56933594 2.77623204,1.8167293 2.45884764,2.31152344 C2.14146324,2.80631758 1.97138031,3.52245625 1.94859374,4.45996094 L2.02671874,4.45996094 C2.19924564,4.11816235 2.44989418,3.85205173 2.77867186,3.66162109 C3.10744955,3.47119045 3.48179476,3.37597656 3.90171874,3.37597656 C4.57229501,3.37597656 5.12567489,3.59814231 5.56187499,4.04248047 C5.99807508,4.48681863 6.21617186,5.05077783 6.21617186,5.734375 C6.21617186,6.44401396 5.98505438,7.02587664 5.52281249,7.47998047 C5.06057059,7.9340843 4.4681286,8.16113281 3.74546874,8.16113281 Z M3.73570311,7.38964844 C4.18817933,7.38964844 4.56659352,7.23421379 4.87095702,6.92333984 C5.17532052,6.61246589 5.32749999,6.22591377 5.32749999,5.76367188 C5.32749999,5.28189863 5.18020328,4.89046375 4.88560545,4.58935547 C4.59100763,4.28824719 4.21096585,4.13769531 3.74546874,4.13769531 C3.27997162,4.13769531 2.89667467,4.2874334 2.59556639,4.58691406 C2.29445812,4.88639473 2.14390624,5.26887788 2.14390624,5.734375 C2.14390624,6.20638257 2.2960857,6.60025884 2.6004492,6.91601562 C2.90481271,7.23177241 3.28322689,7.38964844 3.73570311,7.38964844 Z M10.1154687,8.16601562 C9.32119394,8.16601562 8.70596571,7.84375322 8.26976562,7.19921875 C7.83356552,6.55468428 7.61546874,5.64649023 7.61546874,4.47460938 C7.61546874,3.31249419 7.83519311,2.40755532 8.27464843,1.75976562 C8.71410375,1.11197593 9.32770438,0.788085938 10.1154687,0.788085938 C10.8999779,0.788085938 11.5111371,1.11360352 11.9489648,1.76464844 C12.3867925,2.41569336 12.6057031,3.3238874 12.6057031,4.48925781 C12.6057031,5.65788345 12.3884201,6.56282231 11.9538476,7.20410156 C11.5192752,7.84538081 10.9064883,8.16601562 10.1154687,8.16601562 Z M10.1154687,7.39941406 C10.6363047,7.39941406 11.0342499,7.14795173 11.3093164,6.64501953 C11.5843829,6.14208733 11.7219141,5.41862451 11.7219141,4.47460938 C11.7219141,3.54035991 11.5827553,2.82096606 11.3044336,2.31640625 C11.0261119,1.81184644 10.6297942,1.55957031 10.1154687,1.55957031 C9.60114325,1.55957031 9.20319801,1.81266023 8.92162108,2.31884766 C8.64004416,2.82503508 8.4992578,3.54361514 8.4992578,4.47460938 C8.4992578,5.41536929 8.63841657,6.13801831 8.91673827,6.64257812 C9.19505998,7.14713794 9.5946328,7.39941406 10.1154687,7.39941406 Z M16.5342969,8.16601562 C15.7400221,8.16601562 15.1247938,7.84375322 14.6885937,7.19921875 C14.2523936,6.55468428 14.0342969,5.64649023 14.0342969,4.47460938 C14.0342969,3.31249419 14.2540212,2.40755532 14.6934766,1.75976562 C15.1329319,1.11197593 15.7465325,0.788085938 16.5342969,0.788085938 C17.318806,0.788085938 17.9299653,1.11360352 18.367793,1.76464844 C18.8056207,2.41569336 19.0245312,3.3238874 19.0245312,4.48925781 C19.0245312,5.65788345 18.8072483,6.56282231 18.3726758,7.20410156 C17.9381033,7.84538081 17.3253165,8.16601562 16.5342969,8.16601562 Z M16.5342969,7.39941406 C17.0551328,7.39941406 17.453078,7.14795173 17.7281445,6.64501953 C18.003211,6.14208733 18.1407422,5.41862451 18.1407422,4.47460938 C18.1407422,3.54035991 18.0015834,2.82096606 17.7232617,2.31640625 C17.44494,1.81184644 17.0486224,1.55957031 16.5342969,1.55957031 C16.0199714,1.55957031 15.6220261,1.81266023 15.3404492,2.31884766 C15.0588723,2.82503508 14.9180859,3.54361514 14.9180859,4.47460938 C14.9180859,5.41536929 15.0572447,6.13801831 15.3355664,6.64257812 C15.6138881,7.14713794 16.0134609,7.39941406 16.5342969,7.39941406 Z" id="600"></path>
                    <path d="M140.81957,261 L143.998281,254.818359 L143.998281,254.740234 L140.360586,254.740234 L140.360586,253.954102 L144.877187,253.954102 L144.877187,254.769531 L141.742422,261 L140.81957,261 Z M146.32043,262.586914 L145.588008,262.586914 L147.736445,253.954102 L148.478633,253.954102 L146.32043,262.586914 Z M151.362305,261 L151.362305,254.930664 L151.28418,254.930664 L149.492188,256.229492 L149.492188,255.301758 L151.367188,253.954102 L152.241211,253.954102 L152.241211,261 L151.362305,261 Z M157.678594,261 L157.678594,259.540039 L154.245977,259.540039 L154.245977,258.739258 C154.890511,257.593419 155.89636,255.998383 157.263555,253.954102 L158.537969,253.954102 L158.537969,258.753906 L159.538945,258.753906 L159.538945,259.540039 L158.537969,259.540039 L158.537969,261 L157.678594,261 Z M155.144414,258.700195 L155.144414,258.758789 L157.683477,258.758789 L157.683477,254.769531 L157.624883,254.769531 C156.86316,255.876308 156.036346,257.186516 155.144414,258.700195 Z" id="7/14"></path>
                    <path d="M224.944082,261 L228.122793,254.818359 L228.122793,254.740234 L224.485098,254.740234 L224.485098,253.954102 L229.001699,253.954102 L229.001699,254.769531 L225.866934,261 L224.944082,261 Z M230.444941,262.586914 L229.71252,262.586914 L231.860957,253.954102 L232.603145,253.954102 L230.444941,262.586914 Z M235.486816,261 L235.486816,254.930664 L235.408691,254.930664 L233.616699,256.229492 L233.616699,255.301758 L235.491699,253.954102 L236.365723,253.954102 L236.365723,261 L235.486816,261 Z M240.909551,261.166016 C240.24223,261.166016 239.690477,260.978029 239.254277,260.602051 C238.818077,260.226072 238.580449,259.733727 238.541387,259.125 L239.405645,259.125 C239.444707,259.505861 239.603397,259.812662 239.881719,260.04541 C240.16004,260.278159 240.505903,260.394531 240.919316,260.394531 C241.391324,260.394531 241.771366,260.246421 242.059453,259.950195 C242.347541,259.65397 242.491582,259.264976 242.491582,258.783203 C242.491582,258.30143 242.347541,257.909995 242.059453,257.608887 C241.771366,257.307778 241.396207,257.157227 240.933965,257.157227 C240.614953,257.157227 240.328497,257.226399 240.07459,257.364746 C239.820682,257.503093 239.622117,257.69759 239.478887,257.948242 L238.653691,257.948242 L239.039434,253.954102 L242.970098,253.954102 L242.970098,254.740234 L239.72791,254.740234 L239.527715,257.000977 L239.60584,257.000977 C239.947638,256.600584 240.444053,256.400391 241.095098,256.400391 C241.765674,256.400391 242.312543,256.620115 242.735723,257.05957 C243.158902,257.499026 243.370488,258.065426 243.370488,258.758789 C243.370488,259.474938 243.142626,260.055174 242.686895,260.499512 C242.231163,260.94385 241.638721,261.166016 240.909551,261.166016 Z" id="7/15"></path>
                    <path d="M308.851309,261 L312.03002,254.818359 L312.03002,254.740234 L308.392324,254.740234 L308.392324,253.954102 L312.908926,253.954102 L312.908926,254.769531 L309.77416,261 L308.851309,261 Z M314.352168,262.586914 L313.619746,262.586914 L315.768184,253.954102 L316.510371,253.954102 L314.352168,262.586914 Z M319.394043,261 L319.394043,254.930664 L319.315918,254.930664 L317.523926,256.229492 L317.523926,255.301758 L319.398926,253.954102 L320.272949,253.954102 L320.272949,261 L319.394043,261 Z M324.982793,261.161133 C324.452191,261.161133 323.989956,261.023602 323.596074,260.748535 C323.202192,260.473469 322.894578,260.077151 322.673223,259.55957 C322.445357,259.025713 322.331426,258.371423 322.331426,257.59668 C322.331426,256.385736 322.567426,255.448246 323.039434,254.78418 C323.511441,254.120114 324.178752,253.788086 325.041387,253.788086 C325.640348,253.788086 326.147342,253.953286 326.562383,254.283691 C326.977424,254.614097 327.240279,255.062497 327.350957,255.628906 L326.447637,255.628906 C326.353235,255.300129 326.179897,255.041342 325.927617,254.852539 C325.675337,254.663736 325.376675,254.569336 325.031621,254.569336 C324.458702,254.569336 324.013556,254.816729 323.696172,255.311523 C323.378787,255.806318 323.208705,256.522456 323.185918,257.459961 L323.264043,257.459961 C323.43657,257.118162 323.687218,256.852052 324.015996,256.661621 C324.344774,256.47119 324.719119,256.375977 325.139043,256.375977 C325.809619,256.375977 326.362999,256.598142 326.799199,257.04248 C327.235399,257.486819 327.453496,258.050778 327.453496,258.734375 C327.453496,259.444014 327.222379,260.025877 326.760137,260.47998 C326.297895,260.934084 325.705453,261.161133 324.982793,261.161133 Z M324.973027,260.389648 C325.425504,260.389648 325.803918,260.234214 326.108281,259.92334 C326.412645,259.612466 326.564824,259.225914 326.564824,258.763672 C326.564824,258.281899 326.417528,257.890464 326.12293,257.589355 C325.828332,257.288247 325.44829,257.137695 324.982793,257.137695 C324.517296,257.137695 324.133999,257.287433 323.832891,257.586914 C323.531782,257.886395 323.38123,258.268878 323.38123,258.734375 C323.38123,259.206383 323.53341,259.600259 323.837773,259.916016 C324.142137,260.231772 324.520551,260.389648 324.973027,260.389648 Z" id="7/16"></path>
                    <path d="M393.188223,261 L396.366934,254.818359 L396.366934,254.740234 L392.729238,254.740234 L392.729238,253.954102 L397.24584,253.954102 L397.24584,254.769531 L394.111074,261 L393.188223,261 Z M398.689082,262.586914 L397.95666,262.586914 L400.105098,253.954102 L400.847285,253.954102 L398.689082,262.586914 Z M403.730957,261 L403.730957,254.930664 L403.652832,254.930664 L401.86084,256.229492 L401.86084,255.301758 L403.73584,253.954102 L404.609863,253.954102 L404.609863,261 L403.730957,261 Z M407.093145,261 L410.271855,254.818359 L410.271855,254.740234 L406.63416,254.740234 L406.63416,253.954102 L411.150762,253.954102 L411.150762,254.769531 L408.015996,261 L407.093145,261 Z" id="7/17"></path>
                    <path d="M476.843984,261 L480.022695,254.818359 L480.022695,254.740234 L476.385,254.740234 L476.385,253.954102 L480.901602,253.954102 L480.901602,254.769531 L477.766836,261 L476.843984,261 Z M482.344844,262.586914 L481.612422,262.586914 L483.760859,253.954102 L484.503047,253.954102 L482.344844,262.586914 Z M487.386719,261 L487.386719,254.930664 L487.308594,254.930664 L485.516602,256.229492 L485.516602,255.301758 L487.391602,253.954102 L488.265625,253.954102 L488.265625,261 L487.386719,261 Z M492.892461,261.166016 C492.147015,261.166016 491.537483,260.974774 491.063848,260.592285 C490.590212,260.209796 490.353398,259.717451 490.353398,259.115234 C490.353398,258.656248 490.486861,258.262371 490.753789,257.933594 C491.020717,257.604816 491.375532,257.39974 491.818242,257.318359 L491.818242,257.240234 C491.460167,257.142578 491.174526,256.95215 490.961309,256.668945 C490.748091,256.385741 490.641484,256.052085 490.641484,255.667969 C490.641484,255.117836 490.852257,254.666994 491.273809,254.31543 C491.69536,253.963865 492.234906,253.788086 492.892461,253.788086 C493.550016,253.788086 494.089562,253.963865 494.511113,254.31543 C494.932665,254.666994 495.143438,255.117836 495.143438,255.667969 C495.143438,256.05534 495.038458,256.388996 494.828496,256.668945 C494.618534,256.948895 494.331265,257.139322 493.96668,257.240234 L493.96668,257.318359 C494.40939,257.39974 494.764204,257.604816 495.031133,257.933594 C495.298061,258.262371 495.431523,258.656248 495.431523,259.115234 C495.431523,259.717451 495.194709,260.209796 494.721074,260.592285 C494.247439,260.974774 493.637907,261.166016 492.892461,261.166016 Z M492.892461,260.414062 C493.380745,260.414062 493.777876,260.287924 494.083867,260.035645 C494.389858,259.783365 494.542852,259.455406 494.542852,259.051758 C494.542852,258.64811 494.389858,258.320151 494.083867,258.067871 C493.777876,257.815591 493.380745,257.689453 492.892461,257.689453 C492.404177,257.689453 492.007046,257.815591 491.701055,258.067871 C491.395064,258.320151 491.24207,258.64811 491.24207,259.051758 C491.24207,259.455406 491.395064,259.783365 491.701055,260.035645 C492.007046,260.287924 492.404177,260.414062 492.892461,260.414062 Z M492.892461,256.947266 C493.30913,256.947266 493.644413,256.837403 493.89832,256.617676 C494.152228,256.397948 494.27918,256.109051 494.27918,255.750977 C494.27918,255.386391 494.152228,255.093426 493.89832,254.87207 C493.644413,254.650715 493.30913,254.540039 492.892461,254.540039 C492.475792,254.540039 492.140509,254.650715 491.886602,254.87207 C491.632694,255.093426 491.505742,255.386391 491.505742,255.750977 C491.505742,256.109051 491.632694,256.397948 491.886602,256.617676 C492.140509,256.837403 492.475792,256.947266 492.892461,256.947266 Z" id="7/18"></path>
                    <path d="M562.851309,261 L566.03002,254.818359 L566.03002,254.740234 L562.392324,254.740234 L562.392324,253.954102 L566.908926,253.954102 L566.908926,254.769531 L563.77416,261 L562.851309,261 Z M568.352168,262.586914 L567.619746,262.586914 L569.768184,253.954102 L570.510371,253.954102 L568.352168,262.586914 Z M573.394043,261 L573.394043,254.930664 L573.315918,254.930664 L571.523926,256.229492 L571.523926,255.301758 L573.398926,253.954102 L574.272949,253.954102 L574.272949,261 L573.394043,261 Z M578.743535,261.161133 C578.144574,261.161133 577.63758,260.995933 577.222539,260.665527 C576.807498,260.335122 576.544642,259.886722 576.433965,259.320312 L577.337285,259.320312 C577.431687,259.64909 577.605025,259.907877 577.857305,260.09668 C578.109585,260.285483 578.408247,260.379883 578.753301,260.379883 C579.32622,260.379883 579.771366,260.132489 580.08875,259.637695 C580.406134,259.142901 580.576217,258.426762 580.599004,257.489258 L580.520879,257.489258 C580.348352,257.831056 580.097703,258.097167 579.768926,258.287598 C579.440148,258.478028 579.065803,258.573242 578.645879,258.573242 C577.975303,258.573242 577.421923,258.351076 576.985723,257.906738 C576.549523,257.4624 576.331426,256.898441 576.331426,256.214844 C576.331426,255.505205 576.562543,254.923342 577.024785,254.469238 C577.487027,254.015134 578.079469,253.788086 578.802129,253.788086 C579.329475,253.788086 579.79171,253.924803 580.188848,254.198242 C580.585985,254.471681 580.893599,254.868812 581.111699,255.389648 C581.339565,255.923505 581.453496,256.577796 581.453496,257.352539 C581.453496,258.563483 581.217496,259.500973 580.745488,260.165039 C580.273481,260.829105 579.60617,261.161133 578.743535,261.161133 Z M578.802129,257.811523 C579.267626,257.811523 579.650923,257.661785 579.952031,257.362305 C580.25314,257.062824 580.403691,256.680341 580.403691,256.214844 C580.403691,255.742836 580.251512,255.34896 579.947148,255.033203 C579.642785,254.717446 579.264371,254.55957 578.811895,254.55957 C578.359418,254.55957 577.981004,254.715005 577.676641,255.025879 C577.372277,255.336753 577.220098,255.723305 577.220098,256.185547 C577.220098,256.66732 577.367394,257.058755 577.661992,257.359863 C577.95659,257.660972 578.336632,257.811523 578.802129,257.811523 Z" id="7/19"></path>
                </g>
                <g id="graph_2" transform="translate(45.000000, 37.000000)">
                    <polygon id="Path-2-Copy" points="0 20.8710938 28.3218061 87.0351562 87.8505167 91.4023437 124.490539 61.8242187 172.678204 64.2792969 210.075747 31.484375 274.649755 1.375 311.764586 25.9179688 342.163228 64.2792969 389.705733 20.8710937 439.343196 37.2871094 477.762846 72.6875 512.184677 37.2871094 549.299509 46.3886719 549.299509 69.0407947 512.494572 86.3886719 494.091197 123.174805 436.296807 75.3535156 383.903822 113.02002 343.887129 86.3886719 308.905539 90.4069824 257.989309 54.0412598 209.565146 80.6523438 155.882293 135.763794 124.913246 110.886475 87.5598774 119.493408 51.9806991 152.161133 29.0480644 136.379639 0.129575706 69.8144531 0.0881205415 21.8186035"></polygon>
                    <polyline id="Path-2-Copy" stroke="#76DDFB" stroke-width="2" opacity="0.9" stroke-linecap="round" stroke-linejoin="round" points="0 19.8710938 28.3218061 86.0351562 87.8505167 90.4023437 124.490539 60.8242187 172.678204 63.2792969 210.075747 30.484375 274.649755 0.375 311.764586 24.9179687 342.163228 63.2792969 389.705733 19.8710937 439.343196 36.2871094 477.762846 71.6875 512.184677 36.2871094 549.299509 45.3886719"></polyline>
                </g>
                <g id="graph_3" transform="translate(45.000000, 92.000000)">
                    <polygon id="Path-2-Copy" points="0 15.8710938 28.3218061 82.0351562 51.9607644 98.453148 87.7925247 65.46875 124.490539 56.8242188 155.882293 82.0351562 210.075747 26.484375 257.846594 0.15625 308.767607 36.4200278 343.355687 32.2871094 384.084141 59.2792969 435.715076 20.9179688 494.395654 69.7773437 512.184677 32.2871094 549.299509 15.8710938 549.299509 108.383652 0.126021922 108.383652"></polygon>
                    <polyline id="Path-2-Copy" stroke="#2895F1" stroke-width="2" stroke-linecap="round" stroke-linejoin="round" points="0 15.8710938 28.3218061 82.0351562 51.9607644 98.453148 87.7925247 65.46875 124.490539 56.8242187 155.882293 82.0351562 210.075747 26.484375 257.846594 0.15625 308.767607 36.4200278 343.355687 32.2871094 384.084141 59.2792969 435.715076 20.9179688 494.395654 69.7773437 512.184677 32.2871094 549.299509 15.8710937"></polyline>
                </g>
            </g>
            <g id="legends" transform="translate(510.000000, 0.000000)">
                <g id="2" transform="translate(62.000000, 0.000000)">
                    <path d="M22.777,3.885 L22.777,3.181 L17.321,3.181 L17.321,1.784 L22.964,1.784 L22.964,1.08 L16.474,1.08 L16.474,6.085 L23.063,6.085 L23.063,5.381 L17.321,5.381 L17.321,3.885 L22.777,3.885 Z M24.097,8.549 L24.097,7.845 L15.418,7.845 L15.418,8.549 L24.097,8.549 Z M30.499,2.697 C30.499,3.896 29.454,4.743 27.98,4.743 C26.484,4.743 25.45,3.896 25.45,2.697 C25.45,1.476 26.484,0.629 27.98,0.629 C29.465,0.629 30.499,1.476 30.499,2.697 Z M32.809,9.77 L32.809,0.156 L31.962,0.156 L31.962,9.77 L32.809,9.77 Z M29.685,2.697 C29.685,1.828 28.937,1.333 27.98,1.333 C27.012,1.333 26.253,1.828 26.253,2.697 C26.253,3.555 27.012,4.039 27.98,4.039 C28.937,4.039 29.685,3.555 29.685,2.697 Z M28.354,9.484 L28.354,6.14 C29.454,6.085 30.697,6.008 31.423,5.909 L31.39,5.26 C30.455,5.359 29.234,5.436 28.035,5.469 C26.968,5.513 25.923,5.502 24.779,5.502 L24.911,6.25 C25.758,6.239 26.616,6.228 27.518,6.184 L27.518,9.484 L28.354,9.484 Z M35.482,6.822 L35.691,6.822 C37.275,6.822 38.947,6.701 39.904,6.492 L40.003,7.196 C38.947,7.394 37.33,7.537 35.636,7.537 L34.646,7.537 L34.646,1.025 L39.2,1.025 L39.2,1.718 L35.482,1.718 L35.482,3.709 L38.815,3.709 L38.815,4.391 L35.482,4.391 L35.482,6.822 Z M42.181,9.77 L41.345,9.77 L41.345,4.556 L39.442,4.556 L39.442,3.841 L41.345,3.841 L41.345,0.156 L42.181,0.156 L42.181,9.77 Z" id="트위터" fill="#485465"></path>
                    <circle id="Oval" fill="#76DDFB" cx="4.5" cy="5.5" r="4.5"></circle>
                </g>
                <g id="1">
                    <path d="M20.192,7.097 C19.675,7.174 18.828,7.251 17.981,7.295 C17.09,7.35 16.243,7.383 15.429,7.383 L15.297,6.657 L16.364,6.657 L16.078,2.686 L16.914,2.576 C16.98,3.929 17.079,5.282 17.156,6.635 L17.926,6.602 C17.992,6.602 18.058,6.602 18.135,6.591 C18.212,5.26 18.3,3.907 18.388,2.576 L19.224,2.664 C19.114,3.951 19.004,5.249 18.872,6.547 C19.345,6.503 19.774,6.47 20.115,6.415 C20.137,6.646 20.159,6.866 20.192,7.097 Z M21.732,9.275 L20.918,9.275 L20.918,4.545 L19.598,4.545 L19.598,3.852 L20.918,3.852 L20.918,0.387 L21.732,0.387 L21.732,9.275 Z M23.525,9.77 L23.525,0.156 L22.7,0.156 L22.7,9.77 L23.525,9.77 Z M19.884,2.048 L15.539,2.048 L15.539,1.355 L19.884,1.355 L19.884,2.048 Z M32.776,9.77 L32.776,0.156 L31.94,0.156 L31.94,9.77 L32.776,9.77 Z M25.186,4.27 C25.186,2.246 26.088,0.882 27.661,0.882 C29.256,0.882 30.147,2.246 30.147,4.281 C30.147,6.316 29.256,7.68 27.661,7.68 C26.088,7.68 25.186,6.316 25.186,4.27 Z M29.355,4.281 C29.355,2.697 28.684,1.608 27.661,1.608 C26.649,1.608 25.978,2.697 25.978,4.281 C25.978,5.854 26.649,6.954 27.661,6.954 C28.684,6.954 29.355,5.854 29.355,4.281 Z M42.676,5.106 C41.202,4.776 39.09,3.291 39.09,1.718 L39.09,0.959 L38.221,0.959 L38.221,1.718 C38.221,3.291 36.219,4.776 34.657,5.084 L35.097,5.799 C36.769,5.326 38.298,3.962 38.639,2.983 C39.035,3.962 40.597,5.326 42.214,5.81 L42.676,5.106 Z M42.995,8.45 L42.995,7.746 L34.316,7.746 L34.316,8.45 L42.995,8.45 Z M51.355,4.028 L44.865,4.028 L44.865,0.387 L45.701,0.387 L45.701,1.553 L50.508,1.553 L50.508,0.387 L51.355,0.387 L51.355,4.028 Z M44.711,6.712 L44.711,7.405 L50.541,7.405 L50.541,9.836 L51.377,9.836 L51.377,6.712 L48.506,6.712 L48.506,5.579 L52.444,5.579 L52.444,4.886 L43.765,4.886 L43.765,5.579 L47.67,5.579 L47.67,6.712 L44.711,6.712 Z M50.508,3.335 L50.508,2.246 L45.701,2.246 L45.701,3.335 L50.508,3.335 Z" id="페이스북" fill="#485465"></path>
                    <circle id="Oval" fill="#2895F1" cx="4.5" cy="5.5" r="4.5"></circle>
                </g>
            </g>
        </g>
    </g>
</svg>