
<svg width="8px" height="12px" viewBox="0 0 8 12" version="1.1" xmlns="http://www.w3.org/2000/svg" xmlns:xlink="http://www.w3.org/1999/xlink">
    <!-- Generator: Sketch 43.2 (39069) - http://www.bohemiancoding.com/sketch -->
    <desc>Created with Sketch.</desc>
    <defs></defs>
    <g id="Page-1" stroke="none" stroke-width="1" fill="none" fill-rule="evenodd">
        <g id="icon_cs1" transform="translate(-10.000000, -7.000000)">
            <rect id="Rectangle-2" x="0" y="0" width="28" height="28"></rect>
            <path d="M13.147587,17.3225806 L14.7109989,17.3225806 L14.7109989,19 L13.147587,19 L13.147587,17.3225806 Z M11.4584736,8.06048387 C12.0974592,7.35349109 12.9747419,7 14.0903479,7 C15.1221526,7 15.9483695,7.30241633 16.5690236,7.90725806 C17.1896776,8.5120998 17.5,9.28494153 17.5,10.2258065 C17.5,10.7957018 17.3860842,11.2580627 17.1582492,11.6129032 C16.9304141,11.9677437 16.4708228,12.4892439 15.7794613,13.1774194 C15.2766529,13.6774219 14.950618,14.1008047 14.8013468,14.4475806 C14.6520756,14.7943566 14.5774411,15.3064482 14.5774411,15.983871 L13.1790123,15.983871 C13.1790123,15.2150499 13.26805,14.5954325 13.4461279,14.125 C13.6242059,13.6545675 14.0144003,13.1155944 14.6167228,12.5080645 L15.2452301,11.8709677 C15.4337832,11.6881711 15.585671,11.4973128 15.7008979,11.2983871 C15.9104013,10.948923 16.0151515,10.5860234 16.0151515,10.2096774 C16.0151515,9.68279306 15.8619544,9.22580839 15.5555556,8.83870968 C15.2491567,8.45161097 14.7424278,8.25806452 14.0353535,8.25806452 C13.1606765,8.25806452 12.5557443,8.59139452 12.2205387,9.25806452 C12.0319856,9.62903411 11.9246167,10.163975 11.8984287,10.8629032 L10.5,10.8629032 C10.5,9.7016071 10.819488,8.76747665 11.4584736,8.06048387 Z" id="?" fill="#71798F"></path>
        </g>
    </g>
</svg>