<?xml version="1.0" encoding="UTF-8"?>
<svg width="32px" height="32px" viewBox="0 0 32 32" version="1.1" xmlns="http://www.w3.org/2000/svg" xmlns:xlink="http://www.w3.org/1999/xlink">
    <!-- Generator: Sketch 47.1 (45422) - http://www.bohemiancoding.com/sketch -->
    <title>icon_industrial_016_on</title>
    <desc>Created with Sketch.</desc>
    <defs></defs>
    <g id="Page-1" stroke="none" stroke-width="1" fill="none" fill-rule="evenodd">
        <g id="000-copy-28" transform="translate(0.000000, -2.000000)">
            <g id="icon_industrial_016_on" transform="translate(0.000000, 2.000000)">
                <rect id="Rectangle-Copy-2" fill="#1F8EFA" x="0" y="0" width="32" height="32" rx="4"></rect>
                <path d="M24.3261719,13.1738281 L27.0761719,16.8261719 L27.0761719,21.4238281 L25.25,21.4238281 C25.25,22.1829465 24.981448,22.831052 24.4443359,23.3681641 C23.9072239,23.9052761 23.2591184,24.1738281 22.5,24.1738281 C21.7408816,24.1738281 21.0927761,23.9052761 20.5556641,23.3681641 C20.018552,22.831052 19.75,22.1829465 19.75,21.4238281 L14.25,21.4238281 C14.25,22.1829465 13.981448,22.831052 13.4443359,23.3681641 C12.9072239,23.9052761 12.2591184,24.1738281 11.5,24.1738281 C10.7408816,24.1738281 10.0927761,23.9052761 9.55566406,23.3681641 C9.018552,22.831052 8.75,22.1829465 8.75,21.4238281 L6.92382812,21.4238281 L6.92382812,10.4238281 C6.92382812,10.1660143 7.01334546,9.94759204 7.19238281,9.76855469 C7.37142017,9.58951733 7.58268107,9.5 7.82617188,9.5 L21.5761719,9.5 L21.5761719,13.1738281 L24.3261719,13.1738281 Z M11.5,22.7988281 C11.8867207,22.7988281 12.2125638,22.6627618 12.4775391,22.390625 C12.7425143,22.1184882 12.875,21.7962258 12.875,21.4238281 C12.875,21.0371074 12.7425143,20.7112643 12.4775391,20.4462891 C12.2125638,20.1813138 11.8867207,20.0488281 11.5,20.0488281 C11.1132793,20.0488281 10.7874362,20.1813138 10.5224609,20.4462891 C10.2574857,20.7112643 10.125,21.0371074 10.125,21.4238281 C10.125,21.7962258 10.2574857,22.1184882 10.5224609,22.390625 C10.7874362,22.6627618 11.1132793,22.7988281 11.5,22.7988281 Z M22.5,22.7988281 C22.8867207,22.7988281 23.2125638,22.6627618 23.4775391,22.390625 C23.7425143,22.1184882 23.875,21.7962258 23.875,21.4238281 C23.875,21.0371074 23.7425143,20.7112643 23.4775391,20.4462891 C23.2125638,20.1813138 22.8867207,20.0488281 22.5,20.0488281 C22.1132793,20.0488281 21.7874362,20.1813138 21.5224609,20.4462891 C21.2574857,20.7112643 21.125,21.0371074 21.125,21.4238281 C21.125,21.7962258 21.2574857,22.1184882 21.5224609,22.390625 C21.7874362,22.6627618 22.1132793,22.7988281 22.5,22.7988281 Z M21.5761719,16.8261719 L25.6796875,16.8261719 L23.875,14.5488281 L21.5761719,14.5488281 L21.5761719,16.8261719 Z" id="" fill="#FFFFFF"></path>
            </g>
        </g>
    </g>
</svg>