<?xml version="1.0" encoding="UTF-8"?>
<svg width="32px" height="32px" viewBox="0 0 32 32" version="1.1" xmlns="http://www.w3.org/2000/svg" xmlns:xlink="http://www.w3.org/1999/xlink">
    <!-- Generator: Sketch 47.1 (45422) - http://www.bohemiancoding.com/sketch -->
    <title>icon_industrial_018_on</title>
    <desc>Created with Sketch.</desc>
    <defs></defs>
    <g id="Page-1" stroke="none" stroke-width="1" fill="none" fill-rule="evenodd">
        <g id="000-copy-18" transform="translate(0.000000, -2.000000)">
            <g id="icon_industrial_018_on" transform="translate(0.000000, 2.000000)">
                <rect id="Rectangle-Copy-2" fill="#1F8EFA" x="0" y="0" width="32" height="32" rx="4"></rect>
                <path d="M19,13 L13,13 L13,19 L19,19 L19,13 Z M17,17 L15,17 L15,15 L17,15 L17,17 Z M25,15 L25,13 L23,13 L23,11 C23,9.9 22.1,9 21,9 L19,9 L19,7 L17,7 L17,9 L15,9 L15,7 L13,7 L13,9 L11,9 C9.9,9 9,9.9 9,11 L9,13 L7,13 L7,15 L9,15 L9,17 L7,17 L7,19 L9,19 L9,21 C9,22.1 9.9,23 11,23 L13,23 L13,25 L15,25 L15,23 L17,23 L17,25 L19,25 L19,23 L21,23 C22.1,23 23,22.1 23,21 L23,19 L25,19 L25,17 L23,17 L23,15 L25,15 Z M21,21 L11,21 L11,11 L21,11 L21,21 Z" id="Shape" fill="#FFFFFF" fill-rule="nonzero"></path>
            </g>
        </g>
    </g>
</svg>