<?xml version="1.0" encoding="UTF-8"?>
<svg width="32px" height="32px" viewBox="0 0 32 32" version="1.1" xmlns="http://www.w3.org/2000/svg" xmlns:xlink="http://www.w3.org/1999/xlink">
    <!-- Generator: Sketch 47.1 (45422) - http://www.bohemiancoding.com/sketch -->
    <title>icon_industrial_019_on</title>
    <desc>Created with Sketch.</desc>
    <defs></defs>
    <g id="Page-1" stroke="none" stroke-width="1" fill="none" fill-rule="evenodd">
        <g id="000-copy-19" transform="translate(0.000000, -2.000000)">
            <g id="icon_industrial_019_on" transform="translate(0.000000, 2.000000)">
                <rect id="Rectangle-Copy-2" fill="#1F8EFA" x="0" y="0" width="32" height="32" rx="4"></rect>
                <path d="M23.0355556,8.946875 C22.8466667,8.39375 22.3177778,8 21.6944444,8 L11.3055556,8 C10.6822222,8 10.1627778,8.39375 9.96444444,8.946875 L8,14.5625 L8,22.0625 C8,22.578125 8.425,23 8.94444444,23 L9.88888889,23 C10.4083333,23 10.8333333,22.578125 10.8333333,22.0625 L10.8333333,21.125 L22.1666667,21.125 L22.1666667,22.0625 C22.1666667,22.578125 22.5916667,23 23.1111111,23 L24.0555556,23 C24.575,23 25,22.578125 25,22.0625 L25,14.5625 L23.0355556,8.946875 Z M11.3055556,18.3125 C10.5216667,18.3125 9.88888889,17.684375 9.88888889,16.90625 C9.88888889,16.128125 10.5216667,15.5 11.3055556,15.5 C12.0894444,15.5 12.7222222,16.128125 12.7222222,16.90625 C12.7222222,17.684375 12.0894444,18.3125 11.3055556,18.3125 Z M21.6944444,18.3125 C20.9105556,18.3125 20.2777778,17.684375 20.2777778,16.90625 C20.2777778,16.128125 20.9105556,15.5 21.6944444,15.5 C22.4783333,15.5 23.1111111,16.128125 23.1111111,16.90625 C23.1111111,17.684375 22.4783333,18.3125 21.6944444,18.3125 Z M9.88888889,13.625 L11.3055556,9.40625 L21.6944444,9.40625 L23.1111111,13.625 L9.88888889,13.625 Z" id="Shape" fill="#FFFFFF" fill-rule="nonzero"></path>
            </g>
        </g>
    </g>
</svg>