<?xml version="1.0" encoding="UTF-8"?>
<svg width="32px" height="32px" viewBox="0 0 32 32" version="1.1" xmlns="http://www.w3.org/2000/svg" xmlns:xlink="http://www.w3.org/1999/xlink">
    <!-- Generator: Sketch 47.1 (45422) - http://www.bohemiancoding.com/sketch -->
    <title>icon_industrial_014</title>
    <desc>Created with Sketch.</desc>
    <defs></defs>
    <g id="Page-1" stroke="none" stroke-width="1" fill="none" fill-rule="evenodd">
        <g id="000-copy-14" transform="translate(-38.000000, -2.000000)">
            <g id="icon_industrial_014" transform="translate(38.000000, 2.000000)">
                <rect id="Rectangle-Copy-3" fill="#F3F7F8" x="0" y="0" width="32" height="32" rx="4"></rect>
                <g id="if_Beauty_Saloon_2_753148-Copy" transform="translate(5.000000, 5.000000)" fill-rule="nonzero" fill="#B2B5B6">
                    <path d="M11.35715,0.0158125 C7.7385,0.0158125 4.8041,2.8978125 4.8041,6.45184375 C4.8041,9.1169375 6.4484,11.39875 8.792,12.3756875 C8.792,12.3756875 8.80705,12.3805 8.8319,12.3945937 C8.9943,12.4770937 9.6194,12.8249687 9.7076,13.4976875 C9.71285,13.5461562 9.7174,13.6039062 9.7174,13.6575312 C9.7174,14.5519687 9.7174,17.3085 9.7174,17.3085 C9.7174,17.3085 9.72265,17.3614375 9.7076,17.4576875 C9.68345,17.6223437 9.6145,17.9128125 9.41255,18.3043438 C9.14165,18.6817813 8.97925,19.1455 8.97925,19.6484063 C8.97925,20.9395313 10.0429,21.9841875 11.35715,21.9841875 C12.67105,21.9841875 13.74065,20.9395313 13.74065,19.6484063 C13.74065,19.2812813 13.65735,18.9382188 13.49985,18.6278125 C13.43965,18.536375 13.39065,18.4490625 13.34655,18.3665625 C13.34165,18.3572812 13.33675,18.3524688 13.3322,18.3431875 C13.02105,17.7529688 13.0067,17.3858438 13.0067,17.3174375 C13.0067,17.3133125 13.0067,17.3088438 13.0067,17.3088438 C13.0067,17.3088438 13.0067,14.5519688 13.0067,13.657875 C13.0067,12.8985312 13.67625,12.5063125 13.87785,12.401125 C13.89255,12.3949375 13.90305,12.3911562 13.9125,12.3856563 C13.9181,12.3856563 13.9272,12.3808438 13.937,12.376375 C16.27535,11.3949688 17.91475,9.112125 17.91475,6.45253125 C17.9151,2.89815625 14.98105,0.0158125 11.35715,0.0158125 Z M11.3596,11 C8.7647,11 6.6619,8.9340625 6.6619,6.38584375 C6.6619,3.837625 8.7647,1.77203125 11.3596,1.77203125 C13.95415,1.77203125 16.0573,3.83728125 16.0573,6.38584375 C16.0573,8.93440625 13.95415,11 11.3596,11 Z" id="Shape"></path>
                    <path d="M14.83125,5.02321875 C14.7588,5.0881875 10.5476,8.9038125 9.70165,9.6806875 C10.35335,10.0481562 11.08205,10.0777187 11.41455,10.065 C11.6928,9.8085625 13.93595,7.7385 15.0913,6.70071875 C15.16095,5.96165625 14.9555,5.32709375 14.83125,5.02321875 Z" id="Shape"></path>
                    <path d="M14.43575,4.30065625 C13.64055,5.00671875 9.807,8.48478125 9.1217,9.11075 C9.1217,9.11075 9.1217,9.11075 9.03105,9.19084375 C9.0258,9.19084375 9.02125,9.200125 9.0118,9.200125 C9.002,9.21421875 8.99255,9.22384375 8.9782,9.233125 C8.7101,9.031 8.3216,8.54596875 8.3216,8.54596875 L8.40315,8.4803125 C8.6233,8.27303125 13.36195,3.98096875 13.78405,3.59940625 C13.9713,3.76440625 14.2254,4.004 14.43575,4.30065625 Z" id="Shape"></path>
                    <path d="M17.9571,14.5423438 C17.9571,14.5423438 18.172,16.9104375 20.8061,17.4023438 C19.8142,17.2235937 17.7982,18.9457813 17.8731,20.218 C17.82375,19.272 16.7993,17.5453438 15.02445,17.358 C15.88755,17.4277813 17.7779,16.2349688 17.9571,14.5423438 Z" id="Shape"></path>
                    <path d="M2.23055,7.54496875 C2.23055,7.54496875 2.3793,9.18946875 4.2084,9.53115625 C3.51925,9.40740625 2.11995,10.6033125 2.1714,11.4860625 C2.1378,10.8298438 1.4259,9.6305 0.1939,9.50021875 C0.7931,9.5486875 2.1063,8.72059375 2.23055,7.54496875 Z" id="Shape"></path>
                    <path d="M4.9511,11.7036562 C4.9511,11.7036562 5.16565,14.07175 7.79975,14.5636562 C6.80785,14.3855937 4.79185,16.1077812 4.86675,17.38 C4.8174,16.434 3.79295,14.7066562 2.01845,14.52 C2.88155,14.5890937 4.7719,13.3969687 4.9511,11.7036562 Z" id="Shape"></path>
                </g>
            </g>
        </g>
    </g>
</svg>