<?xml version="1.0" encoding="UTF-8"?>
<svg width="32px" height="32px" viewBox="0 0 32 32" version="1.1" xmlns="http://www.w3.org/2000/svg" xmlns:xlink="http://www.w3.org/1999/xlink">
    <!-- Generator: Sketch 47.1 (45422) - http://www.bohemiancoding.com/sketch -->
    <title>icon_industrial_023_on</title>
    <desc>Created with Sketch.</desc>
    <defs></defs>
    <g id="Page-1" stroke="none" stroke-width="1" fill="none" fill-rule="evenodd">
        <g id="000-copy-31" transform="translate(0.000000, -2.000000)">
            <g id="icon_industrial_023_on" transform="translate(0.000000, 2.000000)">
                <rect id="Rectangle-Copy-2" fill="#1F8EFA" x="0" y="0" width="32" height="32" rx="4"></rect>
                <path d="M21.328125,10.4863281 C20.5976526,9.79882469 19.7669317,9.27962415 18.8359375,8.92871094 C17.9049433,8.57779772 16.9596402,8.40234375 16,8.40234375 C15.0403598,8.40234375 14.0950567,8.57779772 13.1640625,8.92871094 C12.2330683,9.27962415 11.4023474,9.79882469 10.671875,10.4863281 L9.40429688,9.15429688 C10.3209681,8.29491758 11.3522078,7.65039277 12.4980469,7.22070312 C13.6438859,6.79101348 14.811192,6.57617188 16,6.57617188 C17.188808,6.57617188 18.3561141,6.79101348 19.5019531,7.22070312 C20.6477922,7.65039277 21.6790319,8.29491758 22.5957031,9.15429688 L21.328125,10.4863281 Z M11.8105469,11.4101562 C12.3834664,10.8658827 13.0351526,10.4576837 13.765625,10.1855469 C14.4960974,9.9134101 15.2408816,9.77734375 16,9.77734375 C16.7591184,9.77734375 17.5039026,9.9134101 18.234375,10.1855469 C18.9648474,10.4576837 19.6165336,10.8658827 20.1894531,11.4101562 L18.9433594,12.7421875 C18.5423157,12.3554668 18.083987,12.0690113 17.5683594,11.8828125 C17.0527318,11.6966137 16.5299506,11.6035156 16,11.6035156 C15.4700494,11.6035156 14.9472682,11.6966137 14.4316406,11.8828125 C13.916013,12.0690113 13.4576843,12.3554668 13.0566406,12.7421875 L11.8105469,11.4101562 Z M23.3261719,15.75 C23.5839857,15.75 23.802408,15.8395173 23.9814453,16.0185547 C24.1604827,16.197592 24.25,16.4160143 24.25,16.6738281 L24.25,22.1738281 C24.25,22.4173189 24.1604827,22.6285798 23.9814453,22.8076172 C23.802408,22.9866545 23.5839857,23.0761719 23.3261719,23.0761719 L8.67382812,23.0761719 C8.41601434,23.0761719 8.19759204,22.9866545 8.01855469,22.8076172 C7.83951733,22.6285798 7.75,22.4173189 7.75,22.1738281 L7.75,16.6738281 C7.75,16.4160143 7.83951733,16.197592 8.01855469,16.0185547 C8.19759204,15.8395173 8.41601434,15.75 8.67382812,15.75 L15.0761719,15.75 L15.0761719,13 L16.9238281,13 L16.9238281,15.75 L23.3261719,15.75 Z M18.75,20.3261719 L18.75,18.5 L16.9238281,18.5 L16.9238281,20.3261719 L18.75,20.3261719 Z M21.5,20.3261719 L21.5,18.5 L19.6738281,18.5 L19.6738281,20.3261719 L21.5,20.3261719 Z" id="" fill="#FFFFFF"></path>
            </g>
        </g>
    </g>
</svg>