<?xml version="1.0" encoding="UTF-8"?>
<svg width="32px" height="32px" viewBox="0 0 32 32" version="1.1" xmlns="http://www.w3.org/2000/svg" xmlns:xlink="http://www.w3.org/1999/xlink">
    <!-- Generator: Sketch 47.1 (45422) - http://www.bohemiancoding.com/sketch -->
    <title>icon_industrial_010</title>
    <desc>Created with Sketch.</desc>
    <defs></defs>
    <g id="Page-1" stroke="none" stroke-width="1" fill="none" fill-rule="evenodd">
        <g id="000-copy-10" transform="translate(-38.000000, -2.000000)">
            <g id="icon_industrial_010" transform="translate(38.000000, 2.000000)">
                <rect id="Rectangle-Copy-3" fill="#F3F7F8" x="0" y="0" width="32" height="32" rx="4"></rect>
                <path d="M22.7370625,11.75 L20.51575,11.75 L22.75,9.8825 L20.541625,8 L17.41075,8 L19.654,9.8675 L17.355625,11.75 L14.6989375,11.75 L16.982125,9.8825 L14.725375,8 L11.543875,8 L13.784875,9.8675 L11.4870625,11.75 L9.2325625,11.75 L11.5174375,9.8825 L9.259,8 L7,8 L7,23 L25,23 L25,8 L22.793875,8 L25,9.875 L22.7370625,11.75 Z M22.75,21.1048438 L9.25,21.1048438 L9.25,19.2298438 L22.75,19.2298438 L22.75,21.1048438 Z M22.75,17.375 L9.25,17.375 L9.25,15.5 L22.75,15.5 L22.75,17.375 Z" id="Shape-Copy-5" fill="#B2B5B6" fill-rule="nonzero"></path>
            </g>
        </g>
    </g>
</svg>