<?xml version="1.0" encoding="UTF-8"?>
<svg width="32px" height="32px" viewBox="0 0 32 32" version="1.1" xmlns="http://www.w3.org/2000/svg" xmlns:xlink="http://www.w3.org/1999/xlink">
    <!-- Generator: Sketch 47.1 (45422) - http://www.bohemiancoding.com/sketch -->
    <title>icon_industrial_015</title>
    <desc>Created with Sketch.</desc>
    <defs></defs>
    <g id="Page-1" stroke="none" stroke-width="1" fill="none" fill-rule="evenodd">
        <g id="000-copy-15" transform="translate(-38.000000, -2.000000)">
            <g id="icon_industrial_015" transform="translate(38.000000, 2.000000)">
                <rect id="Rectangle-Copy-3" fill="#F3F7F8" x="0" y="0" width="32" height="32" rx="4"></rect>
                <path d="M24.7587822,18.0415255 L19.1850117,14.4728461 L18.1545667,16.24488 L23.7517564,19.838171 C23.8454335,19.8955981 23.8883683,19.9407189 23.9274005,19.9981462 C23.9664327,20.0555736 23.9859485,20.1253057 23.9859485,20.2073447 C23.9859485,20.3221993 23.95082,20.4165428 23.8805621,20.4903779 C23.8103041,20.564213 23.7283377,20.60113 23.6346604,20.60113 L21.9953162,20.60113 L10.0046838,20.60113 L8.36533958,20.60113 C8.2716623,20.60113 8.1896959,20.564213 8.11943794,20.4903779 C8.04917998,20.4165428 8.01405152,20.3221993 8.01405152,20.2073447 C8.01405152,20.1253057 8.03356733,20.0555736 8.07259953,19.9981462 C8.11163173,19.9407189 8.15456651,19.8955981 8.20140515,19.8627825 L17.498829,13.8821681 C17.9672155,13.6032354 18.3341126,13.2217597 18.5995316,12.7377295 C18.8649506,12.2536993 18.9976581,11.7245556 18.9976581,11.1502825 C18.9976581,10.2806689 18.704921,9.53822695 18.1194379,8.92293433 C17.5339549,8.3076417 16.8274827,8 16,8 C15.1725173,8 14.4660451,8.3076417 13.8805621,8.92293433 C13.295079,9.53822695 13.0023419,10.2806689 13.0023419,11.1502825 L15.0163934,11.1502825 C15.0163934,10.8713498 15.1139725,10.6293384 15.3091335,10.4242408 C15.5042945,10.2191433 15.734581,10.1165961 16,10.1165961 C16.2810319,10.1165961 16.5191247,10.2191433 16.7142857,10.4242408 C16.9094467,10.6293384 17.0070258,10.8713498 17.0070258,11.1502825 C17.0070258,11.3471761 16.9601878,11.5276593 16.8665105,11.6917373 C16.7728333,11.8558153 16.6401258,11.9870758 16.4683841,12.0855226 L7.21779859,18.0415255 C6.84308946,18.2548269 6.54644918,18.5583667 6.32786885,18.952154 C6.10928852,19.3459413 6,19.764334 6,20.2073447 C6,20.8964724 6.2341897,21.4871445 6.70257611,21.9793786 C7.17096253,22.4716127 7.72521148,22.7177261 8.36533958,22.7177261 L10.0046838,22.7177261 L21.9953162,22.7177261 L23.6346604,22.7177261 C24.2747885,22.7177261 24.8290375,22.4716127 25.2974239,21.9793786 C25.7658103,21.4871445 26,20.8964724 26,20.2073447 C26,19.764334 25.8907115,19.3459413 25.6721311,18.952154 C25.4535508,18.5583667 25.1491042,18.2548269 24.7587822,18.0415255 Z" id="-copy" fill="#B2B5B6"></path>
            </g>
        </g>
    </g>
</svg>