<?xml version="1.0" encoding="UTF-8"?>
<svg width="32px" height="32px" viewBox="0 0 32 32" version="1.1" xmlns="http://www.w3.org/2000/svg" xmlns:xlink="http://www.w3.org/1999/xlink">
    <!-- Generator: Sketch 47.1 (45422) - http://www.bohemiancoding.com/sketch -->
    <title>icon_industrial_021_on</title>
    <desc>Created with Sketch.</desc>
    <defs></defs>
    <g id="Page-1" stroke="none" stroke-width="1" fill="none" fill-rule="evenodd">
        <g id="000-copy-29" transform="translate(0.000000, -2.000000)">
            <g id="icon_industrial_021_on" transform="translate(0.000000, 2.000000)">
                <rect id="Rectangle-Copy-2" fill="#1F8EFA" x="0" y="0" width="32" height="32" rx="4"></rect>
                <path d="M24.375,18.75 L24.375,17.0068359 L17.3818359,12.6181641 L17.3818359,7.81933594 C17.3818359,7.45019347 17.2519544,7.13916142 16.9921875,6.88623047 C16.7324206,6.63329952 16.4248065,6.50683594 16.0693359,6.50683594 C15.7001935,6.50683594 15.3891614,6.63329952 15.1362305,6.88623047 C14.8832995,7.13916142 14.7568359,7.45019347 14.7568359,7.81933594 L14.7568359,12.6181641 L7.74316406,17.0068359 L7.74316406,18.75 L14.7568359,16.5556641 L14.7568359,21.375 L12.9931641,22.6875 L12.9931641,24 L16.0693359,23.1181641 L19.125,24 L19.125,22.6875 L17.3818359,21.375 L17.3818359,16.5556641 L24.375,18.75 Z" id="" fill="#FFFFFF"></path>
            </g>
        </g>
    </g>
</svg>