<?xml version="1.0" encoding="UTF-8"?>
<svg width="32px" height="32px" viewBox="0 0 32 32" version="1.1" xmlns="http://www.w3.org/2000/svg" xmlns:xlink="http://www.w3.org/1999/xlink">
    <!-- Generator: Sketch 47.1 (45422) - http://www.bohemiancoding.com/sketch -->
    <title>icon_industrial_020_on</title>
    <desc>Created with Sketch.</desc>
    <defs></defs>
    <g id="Page-1" stroke="none" stroke-width="1" fill="none" fill-rule="evenodd">
        <g id="000-copy-20" transform="translate(0.000000, -2.000000)">
            <g id="icon_industrial_020_on" transform="translate(0.000000, 2.000000)">
                <rect id="Rectangle-Copy-2" fill="#1F8EFA" x="0" y="0" width="32" height="32" rx="4"></rect>
                <path d="M9.69667078,14.6529894 L12.2219482,14.6529894 L12.2219482,20.5920281 L9.69667078,20.5920281 L9.69667078,14.6529894 Z M14.7472256,14.6529894 L17.2725031,14.6529894 L17.2725031,20.5920281 L14.7472256,20.5920281 L14.7472256,14.6529894 Z M8,21.4490035 L24,21.4490035 L24,24 L8,24 L8,21.4490035 Z M19.7977805,14.6529894 L22.323058,14.6529894 L22.323058,20.5920281 L19.7977805,20.5920281 L19.7977805,14.6529894 Z M16.0098644,7 L8,12.101993 L8,13.7960141 L24,13.7960141 L24,12.101993 L16.0098644,7 Z" id="" fill="#FFFFFF"></path>
            </g>
        </g>
    </g>
</svg>