<?xml version="1.0" encoding="UTF-8"?>
<svg width="32px" height="32px" viewBox="0 0 32 32" version="1.1" xmlns="http://www.w3.org/2000/svg" xmlns:xlink="http://www.w3.org/1999/xlink">
    <!-- Generator: Sketch 47.1 (45422) - http://www.bohemiancoding.com/sketch -->
    <title>icon_industrial_017</title>
    <desc>Created with Sketch.</desc>
    <defs></defs>
    <g id="Page-1" stroke="none" stroke-width="1" fill="none" fill-rule="evenodd">
        <g id="000-copy-17" transform="translate(-38.000000, -2.000000)">
            <g id="icon_industrial_017" transform="translate(38.000000, 2.000000)">
                <rect id="Rectangle-Copy-3" fill="#F3F7F8" x="0" y="0" width="32" height="32" rx="4"></rect>
                <path d="M10.8782201,20.1458333 L10.9625293,20.2291667 C10.9625293,20.2430556 10.969555,20.2569444 10.9836066,20.2708333 L11.0257611,20.3125 L9.57142857,21.2708333 C9.17798398,20.8402756 8.82318659,20.3680581 8.50702576,19.8541667 C8.19086493,19.3402752 7.92037583,18.8020861 7.69555035,18.2395833 C7.47072487,17.6770805 7.29859544,17.0902808 7.17915691,16.4791667 C7.05971837,15.8680525 7,15.2430587 7,14.6041667 C7,13.9652746 7.05971837,13.3472252 7.17915691,12.75 C7.29859544,12.1527748 7.46721203,11.5763917 7.68501171,11.0208333 C7.90281139,10.465275 8.1662748,9.93403031 8.47540984,9.42708333 C8.78454487,8.92013635 9.12880372,8.44444667 9.50819672,8 L11.0257611,9 C10.9555032,9.06944479 10.9203747,9.10069448 10.9203747,9.09375 C10.9203747,9.08680552 10.8922719,9.11805521 10.8360656,9.1875 C10.2037439,9.92361479 9.70491986,10.7569398 9.33957845,11.6875 C8.97423705,12.6180602 8.79156909,13.6111058 8.79156909,14.6666667 C8.79156909,15.6805606 8.98828843,16.6666619 9.38173302,17.625 C9.77517761,18.5833381 10.2740017,19.4236075 10.8782201,20.1458333 Z M22.4918033,8 C22.8711963,8.44444667 23.218968,8.92013635 23.5351288,9.42708333 C23.8512896,9.93403031 24.114753,10.465275 24.3255269,11.0208333 C24.5363008,11.5763917 24.7014046,12.1527748 24.8208431,12.75 C24.9402816,13.3472252 25,13.9652746 25,14.6041667 C25,15.2430587 24.9402816,15.8680525 24.8208431,16.4791667 C24.7014046,17.0902808 24.5292751,17.6770805 24.3044496,18.2395833 C24.0796242,18.8020861 23.8091351,19.3402752 23.4929742,19.8541667 C23.1768134,20.3680581 22.822016,20.8402756 22.4285714,21.2708333 L20.9742389,20.3125 L21.0163934,20.2708333 C21.030445,20.2569444 21.0374707,20.2430556 21.0374707,20.2291667 L21.1217799,20.1458333 C21.7259983,19.4236075 22.2248224,18.5833381 22.618267,17.625 C23.0117116,16.6666619 23.2084309,15.6805606 23.2084309,14.6666667 C23.2084309,13.6111058 23.025763,12.6180602 22.6604215,11.6875 C22.2950801,10.7569398 21.7962561,9.92361479 21.1639344,9.1875 C21.1077281,9.11805521 21.0796253,9.08680552 21.0796253,9.09375 C21.0796253,9.10069448 21.0444968,9.06944479 20.9742389,9 L22.4918033,8 Z M12.1850117,10.375 L13.7025761,11.3541667 C13.2950799,11.7986133 12.975411,12.3055527 12.7435597,12.875 C12.5117084,13.4444473 12.3957845,14.0555523 12.3957845,14.7083333 C12.3957845,15.3333365 12.5081956,15.9270805 12.7330211,16.4895833 C12.9578466,17.0520861 13.2599513,17.5555533 13.6393443,18 L12.1850117,18.9583333 C11.693206,18.3749971 11.306793,17.7187536 11.0257611,16.9895833 C10.7447293,16.260413 10.6042155,15.4861152 10.6042155,14.6666667 C10.6042155,13.8472181 10.7447293,13.0694481 11.0257611,12.3333333 C11.306793,11.5972185 11.693206,10.9444473 12.1850117,10.375 Z M19.8149883,10.375 C20.306794,10.9444473 20.693207,11.5972185 20.9742389,12.3333333 C21.2552707,13.0694481 21.3957845,13.8472181 21.3957845,14.6666667 C21.3957845,15.4861152 21.2552707,16.260413 20.9742389,16.9895833 C20.693207,17.7187536 20.306794,18.3749971 19.8149883,18.9583333 L18.3606557,18 C18.7400487,17.5555533 19.0421534,17.0520861 19.2669789,16.4895833 C19.4918044,15.9270805 19.6042155,15.3333365 19.6042155,14.7083333 C19.6042155,14.0555523 19.4882916,13.4444473 19.2564403,12.875 C19.024589,12.3055527 18.7049201,11.7986133 18.2974239,11.3541667 L19.8149883,10.375 Z M16,12.875 C15.5081943,12.875 15.0866528,13.0486094 14.735363,13.3958333 C14.3840732,13.7430573 14.2084309,14.1666642 14.2084309,14.6666667 C14.2084309,14.9861127 14.2892264,15.2812486 14.4508197,15.5520833 C14.612413,15.822918 14.8266966,16.0347215 15.0936768,16.1875 L15.0936768,24 L16.9063232,24 L16.9063232,16.1875 C17.1733034,16.0347215 17.387587,15.822918 17.5491803,15.5520833 C17.7107736,15.2812486 17.7915691,14.9861127 17.7915691,14.6666667 C17.7915691,14.1666642 17.6159268,13.7430573 17.264637,13.3958333 C16.9133472,13.0486094 16.4918057,12.875 16,12.875 Z" id="-copy" fill="#B2B5B6"></path>
            </g>
        </g>
    </g>
</svg>