<?xml version="1.0" encoding="UTF-8"?>
<svg width="32px" height="32px" viewBox="0 0 32 32" version="1.1" xmlns="http://www.w3.org/2000/svg" xmlns:xlink="http://www.w3.org/1999/xlink">
    <!-- Generator: Sketch 47.1 (45422) - http://www.bohemiancoding.com/sketch -->
    <title>icon_industrial_012</title>
    <desc>Created with Sketch.</desc>
    <defs></defs>
    <g id="Page-1" stroke="none" stroke-width="1" fill="none" fill-rule="evenodd">
        <g id="000-copy-12" transform="translate(-38.000000, -2.000000)">
            <g id="icon_industrial_012" transform="translate(38.000000, 2.000000)">
                <rect id="Rectangle-Copy-3" fill="#F3F7F8" x="0" y="0" width="32" height="32" rx="4"></rect>
                <path d="M12.3261719,7.57617188 C11.3235627,7.57617188 10.4641963,7.98079022 9.74804688,8.79003906 C9.03189746,9.5992879 8.67382812,10.5696558 8.67382812,11.7011719 C8.67382812,12.6608121 8.93163805,13.5094364 9.44726562,14.2470703 C9.9628932,14.9847042 10.6217408,15.4680978 11.4238281,15.6972656 L11.4238281,25 L13.25,25 L13.25,15.6972656 C14.0377644,15.4680978 14.6930312,14.9847042 15.2158203,14.2470703 C15.7386094,13.5094364 16,12.6608121 16,11.7011719 C16,10.5696558 15.6419307,9.5992879 14.9257812,8.79003906 C14.2096318,7.98079022 13.343104,7.57617188 12.3261719,7.57617188 Z M17.8261719,7.57617188 L19.6738281,7.57617188 L19.6738281,25 L17.8261719,25 L17.8261719,7.57617188 Z M20.5761719,7.57617188 L22.4238281,7.57617188 L22.4238281,25 L20.5761719,25 L20.5761719,7.57617188 Z" id="" fill="#B2B5B6"></path>
            </g>
        </g>
    </g>
</svg>