<?xml version="1.0" encoding="UTF-8"?>
<svg width="32px" height="32px" viewBox="0 0 32 32" version="1.1" xmlns="http://www.w3.org/2000/svg" xmlns:xlink="http://www.w3.org/1999/xlink">
    <!-- Generator: Sketch 47.1 (45422) - http://www.bohemiancoding.com/sketch -->
    <title>icon_industrial_media5_on</title>
    <desc>Created with Sketch.</desc>
    <defs></defs>
    <g id="Page-1" stroke="none" stroke-width="1" fill="none" fill-rule="evenodd">
        <g id="000-copy-25" transform="translate(0.000000, -2.000000)">
            <g id="icon_industrial_media5_on" transform="translate(0.000000, 2.000000)">
                <rect id="Rectangle-Copy-2" fill="#54DE4F" x="0" y="0" width="32" height="32" rx="4"></rect>
                <path d="M22.7494007,15.3846154 C23.0539329,15.6230332 23.2441929,15.5279768 23.6380338,15.7403846 C24.0318748,15.9527925 23.9993462,16.2692291 23.9993462,16.6153846 L23.9993462,20.3076923 C23.9993462,21.3333384 23.6347824,22.2051246 22.9056439,22.9230769 C22.1765053,23.6410292 21.2911362,24 20.2495097,24 L12.7498366,24 C11.7082101,24 10.8228408,23.6410292 10.0937023,22.9230769 C9.36456383,22.2051246 9,21.3333384 9,20.3076923 L9,11.6923077 C9,10.6666616 9.36456383,9.79487537 10.0937023,9.07692312 C10.8228408,8.35897078 11.7082101,8 12.7498366,8 L18.695032,8 C19.7366584,8 20.6220277,8.35897078 21.3511662,9.07692312 C22.0803047,9.79487537 22.4448685,10.6666616 22.4448685,11.6923077 L22.4448685,14.1538461 C22.4448685,14.5000018 22.4031445,14.5719032 22.4448685,14.7405312 C22.4865926,14.9091592 22.4448685,15.1461976 22.7494007,15.3846154 Z M14.1515558,11.6923077 C13.7408415,11.6923077 13.3947817,11.8108963 13.1133663,12.0480769 C12.8319509,12.2852576 12.6912453,12.5769213 12.6912453,12.9230769 C12.6912453,13.2692325 12.8319509,13.5608963 13.1133663,13.7980769 C13.3947817,14.0352576 13.7408415,14.1538461 14.1515558,14.1538461 L17.9392362,14.1538461 C18.3499506,14.1538461 18.6960103,14.0352576 18.9774257,13.7980769 C19.2588412,13.5608963 19.3995467,13.2692325 19.3995467,12.9230769 C19.3995467,12.5769213 19.2588412,12.2852576 18.9774257,12.0480769 C18.6960103,11.8108963 18.3499506,11.6923077 17.9392362,11.6923077 L14.1515558,11.6923077 Z M18.9995642,20.3076923 C19.3511131,20.3076923 19.6473212,20.1891037 19.8881973,19.9519231 C20.1290734,19.7147424 20.2495097,19.4230787 20.2495097,19.0769231 C20.2495097,18.7307675 20.1290734,18.4391037 19.8881973,18.2019231 C19.6473212,17.9647424 19.3511131,17.8461539 18.9995642,17.8461539 L13.9411909,17.8461539 C13.5896419,17.8461539 13.2934338,17.9647424 13.0525577,18.2019231 C12.8116816,18.4391037 12.6912453,18.7307675 12.6912453,19.0769231 C12.6912453,19.4230787 12.8116816,19.7147424 13.0525577,19.9519231 C13.2934338,20.1891037 13.5896419,20.3076923 13.9411909,20.3076923 L18.9995642,20.3076923 Z" id="" fill="#FFFFFF" fill-rule="nonzero"></path>
            </g>
        </g>
    </g>
</svg>