<?xml version="1.0" encoding="UTF-8"?>
<svg width="32px" height="32px" viewBox="0 0 32 32" version="1.1" xmlns="http://www.w3.org/2000/svg" xmlns:xlink="http://www.w3.org/1999/xlink">
    <!-- Generator: Sketch 47.1 (45422) - http://www.bohemiancoding.com/sketch -->
    <title>icon_industrial_media3</title>
    <desc>Created with Sketch.</desc>
    <defs></defs>
    <g id="Page-1" stroke="none" stroke-width="1" fill="none" fill-rule="evenodd">
        <g id="000-copy-23" transform="translate(-38.000000, -2.000000)">
            <g id="icon_industrial_media3" transform="translate(38.000000, 2.000000)">
                <rect id="Rectangle-Copy-3" fill="#F3F7F8" x="0" y="0" width="32" height="32" rx="4"></rect>
                <path d="M11,17.3511391 L11,13.3088881 L13.973064,13.3088881 L13.9740226,10.6740525 L14.0753739,9.57149763 C14.1485666,8.77526773 14.546421,8.00508783 15.258851,7.26304743 C15.9925003,6.49890584 16.8659002,6.08388116 17.8683258,6.02541218 C18.8207784,5.96985799 19.9556114,6.00543657 21.2738349,6.13169057 L21.5,6.15335173 L21.5,9.82092353 L21.25,9.82092353 L19.338962,9.81957843 L18.8885116,9.86649563 C18.6496714,9.89137233 18.4593889,9.98746493 18.3176359,10.1454624 C18.1658551,10.343074 18.0827895,10.5481538 18.064423,10.7649573 C18.0425284,11.0234098 18.0315315,11.1914014 18.0315315,11.2599438 L18.0315315,13.3088881 L21.4194068,13.3088881 L20.9310755,17.3511391 L18.009009,17.3511391 L18.009009,26.4999992 L13.972973,26.4999992 L13.972973,17.3511391 L11,17.3511391 Z" id="Shape-Copy-7" fill="#B2B5B6" fill-rule="nonzero"></path>
            </g>
        </g>
    </g>
</svg>