<?xml version="1.0" encoding="UTF-8"?>
<svg width="32px" height="32px" viewBox="0 0 32 32" version="1.1" xmlns="http://www.w3.org/2000/svg" xmlns:xlink="http://www.w3.org/1999/xlink">
    <!-- Generator: Sketch 47.1 (45422) - http://www.bohemiancoding.com/sketch -->
    <title>icon_industrial_media2_on</title>
    <desc>Created with Sketch.</desc>
    <defs></defs>
    <g id="Page-1" stroke="none" stroke-width="1" fill="none" fill-rule="evenodd">
        <g id="000-copy-22" transform="translate(0.000000, -2.000000)">
            <g id="icon_industrial_media2_on" transform="translate(0.000000, 2.000000)">
                <rect id="Rectangle-Copy-2" fill="#00A1EE" x="0" y="0" width="32" height="32" rx="4"></rect>
                <path d="M8.62926741,13.6427653 L8.578125,13.6476522 C8.578125,13.6469049 8.578125,13.6461901 8.578125,13.6455078 L8.578125,13.6132812 C8.59506846,13.623248 8.61211593,13.633076 8.62926741,13.6427653 Z M8.578125,13.6476522 L8.62926741,13.6427653 C8.85859623,13.772319 9.10652059,13.8770734 9.37304688,13.9570312 C9.65950664,14.0429692 9.96028488,14.0859375 10.2753906,14.0859375 C9.77408604,13.7565088 9.36946769,13.3160835 9.06152344,12.7646484 C8.75357919,12.2132134 8.59960938,11.6152376 8.59960938,10.9707031 C8.59960938,10.6269514 8.6425777,10.2939469 8.72851562,9.97167969 C8.81445355,9.64941245 8.94335852,9.3522149 9.11523438,9.08007812 C9.57357,9.63867467 10.0891898,10.1507138 10.6621094,10.6162109 C11.2350289,11.0817081 11.8509082,11.4863264 12.5097656,11.8300781 C13.1686231,12.1738298 13.8632776,12.4459625 14.59375,12.6464844 C15.3242224,12.8470062 16.0833294,12.9687498 16.8710938,13.0117188 C16.8281248,12.8684889 16.7994792,12.7252611 16.7851562,12.5820312 C16.7708333,12.4388014 16.7636719,12.2955736 16.7636719,12.1523438 C16.7636719,11.1067656 17.1324833,10.2187537 17.8701172,9.48828125 C18.6077511,8.75780885 19.4921823,8.39257812 20.5234375,8.39257812 C21.0677111,8.39257812 21.5761695,8.49641823 22.0488281,8.70410156 C22.5214867,8.91178489 22.9296858,9.20182105 23.2734375,9.57421875 C23.7031271,9.48828082 24.1184876,9.36653725 24.5195312,9.20898438 C24.9205749,9.0514315 25.3001284,8.86523545 25.6582031,8.65039062 C25.5149732,9.09440326 25.3001316,9.49544092 25.0136719,9.85351562 C24.7272121,10.2115903 24.3906269,10.5052072 24.0039062,10.734375 C24.3906269,10.691406 24.763019,10.6197922 25.1210938,10.5195312 C25.4791685,10.4192703 25.8300764,10.2975268 26.1738281,10.1542969 C25.9160143,10.5266946 25.6295589,10.8776025 25.3144531,11.2070312 C24.9993474,11.53646 24.6556008,11.8300768 24.2832031,12.0878906 C24.2975261,12.1738286 24.3046875,12.2561845 24.3046875,12.3349609 L24.3046875,12.5820312 C24.3046875,13.8281312 24.0719424,15.0849546 23.6064453,16.3525391 C23.1409482,17.6201235 22.4534551,18.7659454 21.5439453,19.7900391 C20.6344356,20.8141327 19.5136785,21.652015 18.1816406,22.3037109 C16.8496027,22.9554069 15.3242273,23.28125 13.6054688,23.28125 C12.5455676,23.28125 11.52507,23.1344416 10.5439453,22.8408203 C9.56282062,22.5471991 8.6569052,22.1282579 7.82617188,21.5839844 C7.98372475,21.6126304 8.13411387,21.6305338 8.27734375,21.6376953 C8.42057363,21.6448568 8.57096275,21.6484375 8.72851562,21.6484375 C9.6165409,21.6484375 10.4580038,21.5052098 11.2529297,21.21875 C12.0478555,20.9322902 12.7675749,20.538414 13.4121094,20.0371094 C12.5813761,20.0227864 11.8473339,19.7685572 11.2099609,19.2744141 C10.572588,18.780271 10.1321627,18.160811 9.88867188,17.4160156 C10.0032558,17.4446616 10.117838,17.4625651 10.2324219,17.4697266 C10.3470058,17.4768881 10.4687494,17.4804688 10.5976562,17.4804688 C10.7695321,17.4804688 10.9378247,17.4697267 11.1025391,17.4482422 C11.2672534,17.4267577 11.4283846,17.3945315 11.5859375,17.3515625 C10.7265582,17.1796866 10.0104195,16.7500034 9.4375,16.0625 C8.86458047,15.3749966 8.578125,14.5800826 8.578125,13.6777344 C8.578125,13.664776 8.578125,13.6547487 8.578125,13.6476522 Z" id="" fill="#FFFFFF"></path>
            </g>
        </g>
    </g>
</svg>