<?xml version="1.0" encoding="UTF-8"?>
<svg width="32px" height="32px" viewBox="0 0 32 32" version="1.1" xmlns="http://www.w3.org/2000/svg" xmlns:xlink="http://www.w3.org/1999/xlink">
    <!-- Generator: Sketch 47.1 (45422) - http://www.bohemiancoding.com/sketch -->
    <title>icon_industrial_media1_on</title>
    <desc>Created with Sketch.</desc>
    <defs></defs>
    <g id="Page-1" stroke="none" stroke-width="1" fill="none" fill-rule="evenodd">
        <g id="000-copy-21" transform="translate(0.000000, -2.000000)">
            <g id="icon_industrial_media1_on" transform="translate(0.000000, 2.000000)">
                <rect id="Rectangle-Copy-2" fill="#8324ED" x="0" y="0" width="32" height="32" rx="4"></rect>
                <path d="M24.0456227,7 C24.3119619,7 24.537607,7.0924775 24.7225647,7.2774353 C24.9075225,7.462393 25,7.6880381 25,7.9543773 L25,21.2046856 C25,21.4710248 24.9075225,21.6966699 24.7225647,21.8816276 C24.537607,22.0665854 24.3119619,22.1590629 24.0456227,22.1590629 L10.7953144,22.1590629 C10.5289752,22.1590629 10.3033301,22.0665854 10.1183724,21.8816276 C9.9334146,21.6966699 9.8409371,21.4710248 9.8409371,21.2046856 L9.8409371,7.9543773 C9.8409371,7.6880381 9.9334146,7.462393 10.1183724,7.2774353 C10.3033301,7.0924775 10.5289752,7 10.7953144,7 L24.0456227,7 Z M19.3181258,19.3181258 L19.3181258,17.431566 L12.6818742,17.431566 L12.6818742,19.3181258 L19.3181258,19.3181258 Z M22.1590629,15.5228113 L22.1590629,13.6362515 L12.6818742,13.6362515 L12.6818742,15.5228113 L22.1590629,15.5228113 Z M22.1590629,11.7496917 L22.1590629,9.8409371 L12.6818742,9.8409371 L12.6818742,11.7496917 L22.1590629,11.7496917 Z M8.9087546,8.9087546 L8.9087546,23.1134402 L22.1590629,23.1134402 L22.1590629,25 L7.9543773,25 C7.6880381,25 7.462393,24.9075225 7.2774353,24.7225647 C7.0924775,24.537607 7,24.3119619 7,24.0456227 L7,8.9087546 L8.9087546,8.9087546 Z" id="" fill="#FFFFFF" fill-rule="nonzero"></path>
            </g>
        </g>
    </g>
</svg>