<?xml version="1.0" encoding="UTF-8"?>
<svg width="32px" height="32px" viewBox="0 0 32 32" version="1.1" xmlns="http://www.w3.org/2000/svg" xmlns:xlink="http://www.w3.org/1999/xlink">
    <!-- Generator: Sketch 47.1 (45422) - http://www.bohemiancoding.com/sketch -->
    <title>icon_industrial_media6</title>
    <desc>Created with Sketch.</desc>
    <defs></defs>
    <g id="Page-1" stroke="none" stroke-width="1" fill="none" fill-rule="evenodd">
        <g id="000-copy-26" transform="translate(-38.000000, -2.000000)">
            <g id="icon_industrial_media6" transform="translate(38.000000, 2.000000)">
                <rect id="Rectangle-Copy-3" fill="#F3F7F8" x="0" y="0" width="32" height="32" rx="4"></rect>
                <path d="M20.5075369,15.6745625 C19.8192488,15.6745625 19.2610076,15.1266828 19.2610076,14.450616 C19.2610076,13.774892 19.8192488,13.2270122 20.5075369,13.2270122 C21.1959995,13.2270122 21.7540662,13.774892 21.7540662,14.450616 C21.7540662,15.1266828 21.1959995,15.6745625 20.5075369,15.6745625 M16.6745595,15.6745625 C15.9860969,15.6745625 15.4280301,15.1266828 15.4280301,14.450616 C15.4280301,13.774892 15.9860969,13.2270122 16.6745595,13.2270122 C17.3628476,13.2270122 17.9210888,13.774892 17.9210888,14.450616 C17.9210888,15.1266828 17.3628476,15.6745625 16.6745595,15.6745625 M12.8414076,15.6745625 C12.1531195,15.6745625 11.5948782,15.1266828 11.5948782,14.450616 C11.5948782,13.774892 12.1531195,13.2270122 12.8414076,13.2270122 C13.5298702,13.2270122 14.0881115,13.774892 14.0881115,14.450616 C14.0881115,15.1266828 13.5298702,15.6745625 12.8414076,15.6745625 M25,14.5313327 C25,10.3714226 21.1949521,7 16.4998254,7 C11.8050479,7 8,10.3714226 8,14.5313327 C8,18.3154217 11.1507989,21.4472647 15.2555654,21.9805777 L19.51761,25 L18.9232349,21.7497382 C22.6280856,20.937087 25,18.0645314 25,14.5313327" id="Fill-1-Copy" fill="#B2B5B6" fill-rule="nonzero"></path>
            </g>
        </g>
    </g>
</svg>