<?xml version="1.0" encoding="UTF-8"?>
<svg width="32px" height="32px" viewBox="0 0 32 32" version="1.1" xmlns="http://www.w3.org/2000/svg" xmlns:xlink="http://www.w3.org/1999/xlink">
    <!-- Generator: Sketch 47.1 (45422) - http://www.bohemiancoding.com/sketch -->
    <title>icon_industrial_media4</title>
    <desc>Created with Sketch.</desc>
    <defs></defs>
    <g id="Page-1" stroke="none" stroke-width="1" fill="none" fill-rule="evenodd">
        <g id="000-copy-24" transform="translate(-38.000000, -2.000000)">
            <g id="icon_industrial_media4" transform="translate(38.000000, 2.000000)">
                <rect id="Rectangle-Copy-3" fill="#F3F7F8" x="0" y="0" width="32" height="32" rx="4"></rect>
                <g id="Group-3-Copy" transform="translate(7.000000, 7.000000)">
                    <path d="M11.3922716,0 C11.7786904,0 12.2107704,0.01406781 12.6885246,0.04220397 C13.1662787,0.05627205 13.5843073,0.10550952 13.942623,0.18991791 C14.3009385,0.2743263 14.6135818,0.35873343 14.880562,0.44314182 C15.1756455,0.58382253 15.460186,0.72450108 15.734192,0.8651817 C16.0081981,1.00586241 16.2646358,1.20984624 16.5035128,1.47713949 C16.7564416,1.74443274 16.9601866,2.00820501 17.1147541,2.26846422 C17.2693216,2.52872343 17.4098354,2.8065636 17.5362997,3.10199301 C17.6487125,3.39742233 17.7400465,3.72098304 17.8103045,4.07268468 C17.8805624,4.42438632 17.9297422,4.83235407 17.9578454,5.29660026 C17.971897,5.77491444 17.9824356,6.20750097 17.9894614,6.59437281 C17.9964871,6.98124465 18,7.77959532 18,8.98944903 C18,10.2133707 17.9964871,11.0187553 17.9894614,11.4056272 C17.9824356,11.792499 17.971897,12.2180516 17.9578454,12.6822978 C17.9297422,13.160612 17.8770496,13.5826476 17.7997658,13.9484173 C17.722482,14.3141871 17.6346609,14.6307138 17.5362997,14.898007 C17.4238871,15.2075045 17.2868861,15.4923785 17.1252927,15.7526377 C16.9636994,16.0128969 16.7564416,16.2696353 16.5035128,16.5228605 C16.2365326,16.7620176 15.9730692,16.9589676 15.7131148,17.1137163 C15.4531603,17.2684651 15.1756455,17.4161775 14.880562,17.5568582 C14.5995302,17.6694026 14.2833741,17.7573268 13.9320843,17.8206331 C13.5807945,17.8839393 13.1662787,17.9296599 12.6885246,17.957796 C12.2107704,17.9718641 11.7786904,17.982415 11.3922716,17.989449 C11.0058529,17.9964831 10.2084369,18 9,18 C7.79156307,18 6.99414714,17.9964831 6.60772836,17.989449 C6.22130958,17.982415 5.78922957,17.9718641 5.31147537,17.957796 C4.83372126,17.9296599 4.41569268,17.8769055 4.05737703,17.799531 C3.69906147,17.7221567 3.38641821,17.6412666 3.11943798,17.5568582 C2.79625131,17.4443136 2.50468515,17.3036351 2.24473068,17.1348183 C1.98477621,16.9660015 1.73536416,16.7620176 1.49648715,16.5228605 C1.24355844,16.2414992 1.03981338,15.97421 0.88524594,15.7209847 C0.73067841,15.4677596 0.59016456,15.1934364 0.46370025,14.898007 C0.35128746,14.6025777 0.25995348,14.279017 0.18969552,13.9273153 C0.11943756,13.5756137 0.07025778,13.160612 0.04215456,12.6822978 C0.02810295,12.2180516 0.0175644,11.792499 0.01053864,11.4056272 C0.00351288,11.0187553 0,10.2133707 0,8.98944903 C0,7.77959532 0.00351288,6.98124465 0.01053864,6.59437281 C0.0175644,6.20750097 0.02810295,5.77491444 0.04215456,5.29660026 C0.07025778,4.83235407 0.12295044,4.41735237 0.20023416,4.05158265 C0.27751797,3.68581293 0.36533907,3.36928617 0.46370025,3.10199301 C0.59016456,2.8065636 0.73067841,2.5252065 0.88524594,2.25791325 C1.03981338,1.99062 1.24355844,1.73036466 1.49648715,1.47713949 C1.73536416,1.22391432 1.99180188,1.02344742 2.26580796,0.87573267 C2.53981404,0.72801801 2.82435453,0.58382253 3.11943798,0.44314182 C3.40046982,0.33059736 3.71662587,0.23915628 4.06791567,0.16881597 C4.41920547,0.09847566 4.83372126,0.05627205 5.31147537,0.04220397 C5.78922957,0.01406781 6.22130958,0 6.60772836,0 L11.3922716,0 Z" id="-path" fill="#B2B5B6"></path>
                    <path d="M9,4.10399784 C9.71446671,4.10399784 10.3784448,4.23617157 10.9919543,4.50052317 C11.6054637,4.76487477 12.1413056,5.12252154 12.5994963,5.57347428 C13.0576869,6.02442693 13.4187978,6.56089713 13.6828399,7.1829009 C13.9468819,7.80490458 14.0789009,8.46577368 14.0789009,9.16552782 C14.0789009,9.88083216 13.9468819,10.5455886 13.6828399,11.1598173 C13.4187978,11.7740461 13.0576869,12.3105162 12.5994963,12.7692439 C12.1413056,13.2279717 11.6054637,13.5895059 10.9919543,13.8538575 C10.3784448,14.1182091 9.71446671,14.2503829 9,14.2503829 C8.28553329,14.2503829 7.62155523,14.1182091 7.00804575,13.8538575 C6.39453627,13.5895059 5.85869436,13.2240842 5.40050373,12.7575815 C4.9423131,12.2910786 4.58120223,11.750721 4.31716014,11.1364923 C4.05311814,10.5222636 3.92109912,9.86528205 3.92109912,9.16552782 C3.92109912,8.4813237 4.05311814,7.82822961 4.31716014,7.20622593 C4.58120223,6.58422216 4.9423131,6.0438645 5.40050373,5.58513675 C5.85869436,5.126409 6.39453627,4.76487477 7.00804575,4.50052317 C7.62155523,4.23617157 8.28553329,4.10399784 9,4.10399784 Z" id="-path" fill="#F3F7F8"></path>
                    <path d="M9,12.5029391 C9.91638117,12.5029391 10.7007296,12.1802795 11.3530688,11.5349506 C12.0054079,10.8896217 12.3315726,10.1004664 12.3315726,9.16746075 C12.3315726,8.25000525 12.0054079,7.46473734 11.3530688,6.81163344 C10.7007296,6.15852945 9.91638117,5.83198245 9,5.83198245 C8.08361883,5.83198245 7.29927036,6.15852945 6.64693119,6.81163344 C5.99459211,7.46473734 5.66842743,8.25000525 5.66842743,9.16746075 C5.66842743,10.1004664 5.99459211,10.8896217 6.64693119,11.5349506 C7.29927036,12.1802795 8.08361883,12.5029391 9,12.5029391 Z" id="-path" fill="#B2B5B6"></path>
                    <path d="M15.2506791,3.46347009 C15.2506791,3.80975967 15.127151,4.10657481 14.8800909,4.35392451 C14.6330308,4.60127421 14.3365632,4.72494717 13.9906791,4.72494717 C13.6447951,4.72494717 13.3483274,4.60127421 13.1012674,4.35392451 C12.8542073,4.10657481 12.7306792,3.80975967 12.7306792,3.46347009 C12.7306792,3.11718051 12.8542073,2.82036537 13.1012674,2.57301567 C13.3483274,2.32566597 13.6447951,2.20199301 13.9906791,2.20199301 C14.3365632,2.20199301 14.6330308,2.32566597 14.8800909,2.57301567 C15.127151,2.82036537 15.2506791,3.11718051 15.2506791,3.46347009 Z" id="-path" fill="#F3F7F8"></path>
                </g>
            </g>
        </g>
    </g>
</svg>