<?xml version="1.0" encoding="UTF-8"?>
<svg width="32px" height="32px" viewBox="0 0 32 32" version="1.1" xmlns="http://www.w3.org/2000/svg" xmlns:xlink="http://www.w3.org/1999/xlink">
    <!-- Generator: Sketch 47.1 (45422) - http://www.bohemiancoding.com/sketch -->
    <title>icon_industrial_media7</title>
    <desc>Created with Sketch.</desc>
    <defs></defs>
    <g id="Page-1" stroke="none" stroke-width="1" fill="none" fill-rule="evenodd">
        <g id="000-copy-27" transform="translate(-38.000000, -2.000000)">
            <g id="icon_industrial_media7" transform="translate(38.000000, 2.000000)">
                <rect id="Rectangle-Copy-3" fill="#F3F7F8" x="0" y="0" width="32" height="32" rx="4"></rect>
                <path d="M9.67382812,8.42382812 L9.67382812,22.1738281 L22.5,22.1738281 L22.5,24 L8.75,24 C8.49218621,24 8.27376392,23.9104827 8.09472656,23.7314453 C7.91568921,23.552408 7.82617188,23.3339857 7.82617188,23.0761719 L7.82617188,8.42382812 L9.67382812,8.42382812 Z M24.3261719,6.57617188 C24.5839857,6.57617188 24.802408,6.66568921 24.9814453,6.84472656 C25.1604827,7.02376392 25.25,7.24218621 25.25,7.5 L25.25,20.3261719 C25.25,20.5839857 25.1604827,20.802408 24.9814453,20.9814453 C24.802408,21.1604827 24.5839857,21.25 24.3261719,21.25 L11.5,21.25 C11.2421862,21.25 11.0237639,21.1604827 10.8447266,20.9814453 C10.6656892,20.802408 10.5761719,20.5839857 10.5761719,20.3261719 L10.5761719,7.5 C10.5761719,7.24218621 10.6656892,7.02376392 10.8447266,6.84472656 C11.0237639,6.66568921 11.2421862,6.57617188 11.5,6.57617188 L24.3261719,6.57617188 Z M15.1738281,18.5 L21.5761719,13.9238281 L15.1738281,9.32617188 L15.1738281,18.5 Z" id="-copy" fill="#B2B5B6"></path>
            </g>
        </g>
    </g>
</svg>