<?xml version="1.0" encoding="UTF-8"?>
<svg width="20px" height="20px" viewBox="0 0 20 20" version="1.1" xmlns="http://www.w3.org/2000/svg" xmlns:xlink="http://www.w3.org/1999/xlink">
    <!-- Generator: Sketch 46.2 (44496) - http://www.bohemiancoding.com/sketch -->
    <title> copy</title>
    <desc>Created with Sketch.</desc>
    <defs></defs>
    <g id="Symbols" stroke="none" stroke-width="1" fill="none" fill-rule="evenodd">
        <g id="Setting-검색어" transform="translate(-740.000000, -11.000000)" fill="#1F8EFA" stroke="#1F8EFA">
            <g id="Group">
                <path d="M756.427673,19.8424762 C756.427673,20.9167003 756.223574,21.9300366 755.815369,22.8825153 C755.407163,23.834994 754.848575,24.6621342 754.139587,25.3639606 C753.430599,26.065787 752.603459,26.6207945 751.658142,27.0289997 C750.712825,27.4372048 749.703069,27.6413043 748.628845,27.6413043 C747.554621,27.6413043 746.544866,27.4372048 745.599548,27.0289997 C744.654231,26.6207945 743.827091,26.065787 743.118103,25.3639606 C742.409115,24.6621342 741.850527,23.834994 741.442322,22.8825153 C741.034117,21.9300366 740.830017,20.9167003 740.830017,19.8424762 C740.830017,18.7682521 741.034117,17.7584966 741.442322,16.8131793 C741.850527,15.8678621 742.409115,15.0443026 743.118103,14.3424762 C743.827091,13.6406498 744.654231,13.0856423 745.599548,12.6774372 C746.544866,12.269232 747.554621,12.0651325 748.628845,12.0651325 C749.703069,12.0651325 750.712825,12.269232 751.658142,12.6774372 C752.603459,13.0856423 753.430599,13.6406498 754.139587,14.3424762 C754.848575,15.0443026 755.407163,15.8678621 755.815369,16.8131793 C756.223574,17.7584966 756.427673,18.7682521 756.427673,19.8424762 Z M748.628845,25.8151325 C749.445256,25.8151325 750.215105,25.657582 750.938416,25.3424762 C751.661726,25.0273705 752.295509,24.601268 752.839783,24.0641559 C753.384056,23.5270438 753.810159,22.8968418 754.118103,22.1735309 C754.426047,21.45022 754.580017,20.6732095 754.580017,19.8424762 C754.580017,19.0260659 754.426047,18.2562168 754.118103,17.5329059 C753.810159,16.809595 753.384056,16.179393 752.839783,15.6422809 C752.295509,15.1051688 751.661726,14.6790663 750.938416,14.3639606 C750.215105,14.0488549 749.445256,13.8913043 748.628845,13.8913043 C747.812435,13.8913043 747.042586,14.0488549 746.319275,14.3639606 C745.595964,14.6790663 744.962181,15.1051688 744.417908,15.6422809 C743.873634,16.179393 743.447532,16.809595 743.139587,17.5329059 C742.831643,18.2562168 742.677673,19.0260659 742.677673,19.8424762 C742.677673,20.6732095 742.831643,21.45022 743.139587,22.1735309 C743.447532,22.8968418 743.873634,23.5270438 744.417908,24.0641559 C744.962181,24.601268 745.595964,25.0273705 746.319275,25.3424762 C747.042586,25.657582 747.812435,25.8151325 748.628845,25.8151325 Z M754.107361,26.6530231 L755.439392,25.3424762 L759.156189,29.0592731 L757.845642,30.3913043 L754.107361,26.6530231 Z" id="-copy"></path>
            </g>
        </g>
    </g>
</svg>