<?xml version="1.0" encoding="UTF-8"?>
<svg width="17px" height="16px" viewBox="0 0 17 16" version="1.1" xmlns="http://www.w3.org/2000/svg" xmlns:xlink="http://www.w3.org/1999/xlink">
    <!-- Generator: Sketch 46.2 (44496) - http://www.bohemiancoding.com/sketch -->
    <title>mainmenu001</title>
    <desc>Created with Sketch.</desc>
    <defs></defs>
    <g id="Page-1" stroke="none" stroke-width="1" fill="none" fill-rule="evenodd">
        <g id="Group" transform="translate(-2.000000, -6.000000)">
            <g id="mainmenu001">
                <path d="M4.33984375,7.83984375 L4.33984375,20.3398438 L16,20.3398438 L16,22 L3.5,22 C3.26562383,22 3.06705811,21.9186206 2.90429688,21.7558594 C2.74153564,21.5930981 2.66015625,21.3945324 2.66015625,21.1601562 L2.66015625,7.83984375 L4.33984375,7.83984375 Z M17.6601562,6.16015625 C17.8945324,6.16015625 18.0930981,6.24153564 18.2558594,6.40429688 C18.4186206,6.56705811 18.5,6.76562383 18.5,7 L18.5,18.6601562 C18.5,18.8945324 18.4186206,19.0930981 18.2558594,19.2558594 C18.0930981,19.4186206 17.8945324,19.5 17.6601562,19.5 L6,19.5 C5.76562383,19.5 5.56705811,19.4186206 5.40429688,19.2558594 C5.24153564,19.0930981 5.16015625,18.8945324 5.16015625,18.6601562 L5.16015625,7 C5.16015625,6.76562383 5.24153564,6.56705811 5.40429688,6.40429688 C5.56705811,6.24153564 5.76562383,6.16015625 6,6.16015625 L17.6601562,6.16015625 Z M16.8398438,13.6601562 L16.8398438,7.83984375 L12.6601562,7.83984375 L12.6601562,13.6601562 L14.75,12 L16.8398438,13.6601562 Z" id="" fill="#FFFFFF"></path>
                <rect id="Rectangle-4" x="0" y="0" width="22" height="30"></rect>
            </g>
        </g>
    </g>
</svg>