<?xml version="1.0" encoding="UTF-8"?>
<svg width="22px" height="14px" viewBox="0 0 22 14" version="1.1" xmlns="http://www.w3.org/2000/svg" xmlns:xlink="http://www.w3.org/1999/xlink">
    <!-- Generator: Sketch 46.2 (44496) - http://www.bohemiancoding.com/sketch -->
    <title>mainmenu004</title>
    <desc>Created with Sketch.</desc>
    <defs></defs>
    <g id="Page-1" stroke="none" stroke-width="1" fill="none" fill-rule="evenodd">
        <g id="Group" transform="translate(0.000000, -166.000000)">
            <g id="mainmenu004" transform="translate(0.000000, 159.000000)">
                <path d="M10.0761719,10.1738281 C10.0761719,10.9329465 9.80761987,11.581052 9.27050781,12.1181641 C8.73339575,12.6552761 8.08529025,12.9238281 7.32617188,12.9238281 C6.5670535,12.9238281 5.918948,12.6552761 5.38183594,12.1181641 C4.84472388,11.581052 4.57617188,10.9329465 4.57617188,10.1738281 C4.57617188,9.41470975 4.84472388,8.76660425 5.38183594,8.22949219 C5.918948,7.69238013 6.5670535,7.42382812 7.32617188,7.42382812 C8.08529025,7.42382812 8.73339575,7.69238013 9.27050781,8.22949219 C9.80761987,8.76660425 10.0761719,9.41470975 10.0761719,10.1738281 Z M17.4238281,10.1738281 C17.4238281,10.9329465 17.1552761,11.581052 16.6181641,12.1181641 C16.081052,12.6552761 15.4329465,12.9238281 14.6738281,12.9238281 C13.9147097,12.9238281 13.2666042,12.6552761 12.7294922,12.1181641 C12.1923801,11.581052 11.9238281,10.9329465 11.9238281,10.1738281 C11.9238281,9.41470975 12.1923801,8.76660425 12.7294922,8.22949219 C13.2666042,7.69238013 13.9147097,7.42382812 14.6738281,7.42382812 C15.4329465,7.42382812 16.081052,7.69238013 16.6181641,8.22949219 C17.1552761,8.76660425 17.4238281,9.41470975 17.4238281,10.1738281 Z M14.6738281,13.8261719 C15.5618534,13.8261719 16.3925743,13.9729803 17.1660156,14.2666016 C17.939457,14.5602228 18.616208,14.9863253 19.1962891,15.5449219 C19.7763701,16.1035184 20.2346988,16.7766888 20.5712891,17.5644531 C20.9078793,18.3522175 21.0761719,19.2473908 21.0761719,20.25 L14.6738281,20.25 C14.6738281,19.018223 14.4267603,17.897466 13.9326172,16.8876953 C13.4384741,15.8779246 12.761723,15.0436231 11.9023438,14.3847656 C12.3177104,14.2128898 12.7581357,14.0768234 13.2236328,13.9765625 C13.6891299,13.8763016 14.1725235,13.8261719 14.6738281,13.8261719 Z M11,14.8574219 C11.8307333,15.4016954 12.4967423,16.1285762 12.9980469,17.0380859 C13.4993515,17.9475957 13.75,19.018223 13.75,20.25 L0.923828125,20.25 C0.923828125,19.2473908 1.09212071,18.3522175 1.42871094,17.5644531 C1.76530116,16.7766888 2.22362991,16.1035184 2.80371094,15.5449219 C3.38379196,14.9863253 4.06054301,14.5602228 4.83398438,14.2666016 C5.60742574,13.9729803 6.4381466,13.8261719 7.32617188,13.8261719 C8.01367531,13.8261719 8.6689422,13.9156892 9.29199219,14.0947266 C9.91504218,14.2737639 10.4843724,14.5279931 11,14.8574219 Z" id="" fill="#FFFFFF"></path>
                <rect id="Rectangle-4" x="0" y="0" width="22" height="30"></rect>
            </g>
        </g>
    </g>
</svg>