<?xml version="1.0" encoding="UTF-8"?>
<svg width="18px" height="18px" viewBox="0 0 18 18" version="1.1" xmlns="http://www.w3.org/2000/svg" xmlns:xlink="http://www.w3.org/1999/xlink">
    <!-- Generator: Sketch 46.2 (44496) - http://www.bohemiancoding.com/sketch -->
    <title>mainmenu003</title>
    <desc>Created with Sketch.</desc>
    <defs></defs>
    <g id="Page-1" stroke="none" stroke-width="1" fill="none" fill-rule="evenodd">
        <g id="Group" transform="translate(-3.000000, -111.000000)">
            <g id="mainmenu003" transform="translate(0.000000, 106.000000)">
                <path d="M13.8261719,18.4238281 L20.25,18.4238281 L20.25,20.25 L13.8261719,20.25 L13.8261719,18.4238281 Z M10.1738281,7.42382812 L20.25,7.42382812 L20.25,9.25 L10.1738281,9.25 L10.1738281,7.42382812 Z M11.0761719,18.4238281 L3.75,18.4238281 L3.75,20.25 L11.0761719,20.25 L11.0761719,22.0761719 L12.9238281,22.0761719 L12.9238281,16.5761719 L11.0761719,16.5761719 L11.0761719,18.4238281 Z M16.5761719,12.9238281 L16.5761719,11.0761719 L14.75,11.0761719 L14.75,16.5761719 L16.5761719,16.5761719 L16.5761719,14.75 L20.25,14.75 L20.25,12.9238281 L16.5761719,12.9238281 Z M3.75,12.9238281 L13.8261719,12.9238281 L13.8261719,14.75 L3.75,14.75 L3.75,12.9238281 Z M7.42382812,11.0761719 L9.25,11.0761719 L9.25,5.57617188 L7.42382812,5.57617188 L7.42382812,7.42382812 L3.75,7.42382812 L3.75,9.25 L7.42382812,9.25 L7.42382812,11.0761719 Z" id="" stroke="#FFFFFF" fill="#FFFFFF"></path>
                <rect id="Rectangle-4" x="0" y="0" width="22" height="30"></rect>
            </g>
        </g>
    </g>
</svg>