<?xml version="1.0" encoding="UTF-8"?>
<svg width="17px" height="20px" viewBox="0 0 17 20" version="1.1" xmlns="http://www.w3.org/2000/svg" xmlns:xlink="http://www.w3.org/1999/xlink">
    <!-- Generator: Sketch 46.2 (44496) - http://www.bohemiancoding.com/sketch -->
    <title>mainmenu005</title>
    <desc>Created with Sketch.</desc>
    <defs></defs>
    <g id="Page-1" stroke="none" stroke-width="1" fill="none" fill-rule="evenodd">
        <g id="Group" transform="translate(-3.000000, -215.000000)">
            <g id="mainmenu005" transform="translate(0.000000, 212.000000)">
                <path d="M7.65917969,10.5341797 L11.5,10.5341797 L11.5,12.4658203 L7.65917969,12.4658203 L7.65917969,10.5341797 Z M7.65917969,13.4091797 L15.3408203,13.4091797 L15.3408203,15.3408203 L7.65917969,15.3408203 L7.65917969,13.4091797 Z M7.65917969,16.2841797 L15.3408203,16.2841797 L15.3408203,18.2158203 L7.65917969,18.2158203 L7.65917969,16.2841797 Z M18.2158203,4.78417969 C18.4703789,4.78417969 18.6912426,4.87776599 18.878418,5.06494141 C19.0655934,5.25211682 19.1591797,5.4804674 19.1591797,5.75 L19.1591797,22.0341797 C19.1591797,22.3037123 19.0655934,22.5320629 18.878418,22.7192383 C18.6912426,22.9064137 18.4703789,23 18.2158203,23 L4.78417969,23 C4.52962112,23 4.30875745,22.9064137 4.12158203,22.7192383 C3.93440662,22.5320629 3.84082031,22.3037123 3.84082031,22.0341797 L3.84082031,5.75 C3.84082031,5.4804674 3.93440662,5.25211682 4.12158203,5.06494141 C4.30875745,4.87776599 4.52962112,4.78417969 4.78417969,4.78417969 L8.625,4.78417969 L8.625,3.84082031 L14.375,3.84082031 L14.375,4.78417969 L18.2158203,4.78417969 Z M17.25,21.0908203 L17.25,6.71582031 L14.375,6.71582031 L14.375,7.65917969 L8.625,7.65917969 L8.625,6.71582031 L5.75,6.71582031 L5.75,21.0908203 L17.25,21.0908203 Z" id="" fill="#FFFFFF"></path>
                <rect id="Rectangle-4" x="0" y="0" width="22" height="30"></rect>
            </g>
        </g>
    </g>
</svg>