<?xml version="1.0" encoding="UTF-8"?>
<svg width="40px" height="40px" viewBox="0 0 40 40" version="1.1" xmlns="http://www.w3.org/2000/svg" xmlns:xlink="http://www.w3.org/1999/xlink">
    <!-- Generator: Sketch 46.2 (44496) - http://www.bohemiancoding.com/sketch -->
    <title>미디어스퀘어2-인스타그램</title>
    <desc>Created with Sketch.</desc>
    <defs></defs>
    <g id="Symbols" stroke="none" stroke-width="1" fill="none" fill-rule="evenodd">
        <g id="미디어스퀘어2-인스타그램">
            <g id="미디어스퀘어-인스타그램">
                <rect id="Rectangle-2-Copy" x="0" y="0" width="40" height="40"></rect>
                <path d="M22.6580796,10 C23.0874338,10 23.5675227,10.0156309 24.0983607,10.0468933 C24.6291986,10.0625245 25.0936748,10.1172328 25.4918033,10.2110199 C25.8899317,10.304807 26.2373131,10.3985927 26.5339578,10.4923798 C26.8618283,10.6486917 27.1779844,10.8050012 27.4824356,10.961313 C27.7868868,11.1176249 28.0718176,11.3442736 28.3372365,11.6412661 C28.6182684,11.9382586 28.8446518,12.2313389 29.0163934,12.5205158 C29.1881351,12.8096927 29.3442616,13.118404 29.4847775,13.4466589 C29.6096806,13.7749137 29.7111628,14.1344256 29.7892272,14.5252052 C29.8672916,14.9159848 29.9219358,15.3692823 29.9531616,15.8851114 C29.9687745,16.4165716 29.980484,16.8972233 29.9882904,17.3270809 C29.9960968,17.7569385 30,18.6439948 30,19.9882767 C30,21.3481897 29.9960968,22.2430615 29.9882904,22.6729191 C29.980484,23.1027767 29.9687745,23.5756129 29.9531616,24.091442 C29.9219358,24.6229022 29.8633884,25.0918307 29.7775176,25.4982415 C29.6916467,25.9046523 29.5940677,26.2563487 29.4847775,26.5533411 C29.3598745,26.8972272 29.2076512,27.2137539 29.028103,27.5029308 C28.8485549,27.7921077 28.6182684,28.0773726 28.3372365,28.3587339 C28.0405918,28.624464 27.7478547,28.8432973 27.4590164,29.0152403 C27.1701781,29.1871834 26.8618283,29.3513083 26.5339578,29.5076202 C26.2217002,29.6326696 25.8704157,29.7303631 25.4800937,29.8007034 C25.0897717,29.8710437 24.6291986,29.9218443 24.0983607,29.9531067 C23.5675227,29.9687379 23.0874338,29.9804611 22.6580796,29.9882767 C22.2287254,29.9960923 21.3427077,30 20,30 C18.6572923,30 17.7712746,29.9960923 17.3419204,29.9882767 C16.9125662,29.9804611 16.4324773,29.9687379 15.9016393,29.9531067 C15.3708014,29.9218443 14.9063252,29.8632283 14.5081967,29.7772567 C14.1100683,29.6912852 13.7626869,29.6014073 13.4660422,29.5076202 C13.1069459,29.3825707 12.7829835,29.2262612 12.4941452,29.038687 C12.2053069,28.8511128 11.9281824,28.624464 11.6627635,28.3587339 C11.3817316,28.0461102 11.1553482,27.7491222 10.9836066,27.4677608 C10.8118649,27.1863995 10.6557384,26.881596 10.5152225,26.5533411 C10.3903194,26.2250863 10.2888372,25.8655744 10.2107728,25.4747948 C10.1327084,25.0840152 10.0780642,24.6229022 10.0468384,24.091442 C10.0312255,23.5756129 10.019516,23.1027767 10.0117096,22.6729191 C10.0039032,22.2430615 10,21.3481897 10,19.9882767 C10,18.6439948 10.0039032,17.7569385 10.0117096,17.3270809 C10.019516,16.8972233 10.0312255,16.4165716 10.0468384,15.8851114 C10.0780642,15.3692823 10.1366116,14.9081693 10.2224824,14.5017585 C10.3083533,14.0953477 10.4059323,13.7436513 10.5152225,13.4466589 C10.6557384,13.118404 10.8118649,12.805785 10.9836066,12.5087925 C11.1553482,12.2118 11.3817316,11.9226274 11.6627635,11.6412661 C11.9281824,11.3599048 12.2131132,11.1371638 12.5175644,10.9730363 C12.8220156,10.8089089 13.1381717,10.6486917 13.4660422,10.4923798 C13.7782998,10.3673304 14.1295843,10.2657292 14.5199063,10.1875733 C14.9102283,10.1094174 15.3708014,10.0625245 15.9016393,10.0468933 C16.4324773,10.0156309 16.9125662,10 17.3419204,10 L22.6580796,10 Z M20,14.5599976 C20.7938519,14.5599976 21.5316053,14.7068573 22.2132825,15.0005813 C22.8949597,15.2943053 23.4903396,15.6916906 23.9994403,16.1927492 C24.508541,16.6938077 24.9097753,17.2898857 25.2031554,17.981001 C25.4965354,18.6721162 25.6432232,19.4064152 25.6432232,20.1839198 C25.6432232,20.9787024 25.4965354,21.7173207 25.2031554,22.399797 C24.9097753,23.0822734 24.508541,23.6783513 23.9994403,24.1880488 C23.4903396,24.6977463 22.8949597,25.099451 22.2132825,25.393175 C21.5316053,25.686899 20.7938519,25.8337588 20,25.8337588 C19.2061481,25.8337588 18.4683947,25.686899 17.7867175,25.393175 C17.1050403,25.099451 16.5096604,24.6934269 16.0005597,24.1750905 C15.491459,23.656754 15.0902247,23.0563567 14.7968446,22.3738803 C14.5034646,21.691404 14.3567768,20.9614245 14.3567768,20.1839198 C14.3567768,19.423693 14.5034646,18.6980329 14.7968446,18.0069177 C15.0902247,17.3158024 15.491459,16.715405 16.0005597,16.2057075 C16.5096604,15.69601 17.1050403,15.2943053 17.7867175,15.0005813 C18.4683947,14.7068573 19.2061481,14.5599976 20,14.5599976 Z M20,23.8921545 C21.0182013,23.8921545 21.8896996,23.5336439 22.6145209,22.8166118 C23.3393421,22.0995797 23.7017473,21.2227404 23.7017473,20.1860675 C23.7017473,19.1666725 23.3393421,18.2941526 22.6145209,17.5684816 C21.8896996,16.8428105 21.0182013,16.4799805 20,16.4799805 C18.9817987,16.4799805 18.1103004,16.8428105 17.3854791,17.5684816 C16.6606579,18.2941526 16.2982527,19.1666725 16.2982527,20.1860675 C16.2982527,21.2227404 16.6606579,22.0995797 17.3854791,22.8166118 C18.1103004,23.5336439 18.9817987,23.8921545 20,23.8921545 Z M26.945199,13.8483001 C26.945199,14.2330663 26.8079455,14.5628609 26.5334343,14.8376939 C26.2589231,15.1125269 25.9295147,15.2499413 25.545199,15.2499413 C25.1608834,15.2499413 24.8314749,15.1125269 24.5569638,14.8376939 C24.2824526,14.5628609 24.1451991,14.2330663 24.1451991,13.8483001 C24.1451991,13.4635339 24.2824526,13.1337393 24.5569638,12.8589063 C24.8314749,12.5840733 25.1608834,12.4466589 25.545199,12.4466589 C25.9295147,12.4466589 26.2589231,12.5840733 26.5334343,12.8589063 C26.8079455,13.1337393 26.945199,13.4635339 26.945199,13.8483001 Z" id="" fill="#FFFFFF"></path>
            </g>
        </g>
    </g>
</svg>