<?xml version="1.0" encoding="UTF-8"?>
<svg width="40px" height="40px" viewBox="0 0 40 40" version="1.1" xmlns="http://www.w3.org/2000/svg" xmlns:xlink="http://www.w3.org/1999/xlink">
    <!-- Generator: Sketch 46.2 (44496) - http://www.bohemiancoding.com/sketch -->
    <title>미디어스퀘어2-페이스북</title>
    <desc>Created with Sketch.</desc>
    <defs></defs>
    <g id="Symbols" stroke="none" stroke-width="1" fill="none" fill-rule="evenodd">
        <g id="미디어스퀘어2-페이스북">
            <g id="미디어스퀘어-페이스북">
                <rect id="Rectangle-2-Copy" x="0" y="0" width="40" height="40"></rect>
                <path d="M15,16.3088889 L17.972973,16.3088889 L17.972973,13.4469378 L18.0743243,12.3443829 C18.1418922,11.6093426 18.5135101,10.8899522 19.1891892,10.1861902 C19.8798833,9.4667891 20.6944398,9.07972581 21.6328829,9.02498877 C22.571326,8.97025172 23.6936872,9.0054393 25,9.13055254 L25,12.3209243 L23.0630631,12.3209243 L22.6126126,12.3678415 C22.3123108,12.3991198 22.0645655,12.5242312 21.8693694,12.7431793 C21.6891883,12.9777667 21.587838,13.2279894 21.5653153,13.4938551 C21.5427927,13.7597207 21.5315315,13.9317488 21.5315315,14.0099446 L21.5315315,16.3088889 L24.8873874,16.3088889 L24.4594595,19.8511399 L21.509009,19.8511399 L21.509009,29 L17.972973,29 L17.972973,19.8511399 L15,19.8511399 L15,16.3088889 Z" id="" fill="#FFFFFF"></path>
            </g>
        </g>
    </g>
</svg>