
<svg width="48px" height="48px" viewBox="0 0 48 48" version="1.1" xmlns="http://www.w3.org/2000/svg" xmlns:xlink="http://www.w3.org/1999/xlink">
    <!-- Generator: Sketch 43.2 (39069) - http://www.bohemiancoding.com/sketch -->
    <desc>Created with Sketch.</desc>
    <defs></defs>
    <g id="Page-1" stroke="none" stroke-width="1" fill="none" fill-rule="evenodd">
        <g id="socialsetA">
            <g id="socialsetA_tw">
                <rect id="Rectangle-3" fill="#4EA0F5" x="0" y="0" width="48" height="48"></rect>
                <path d="M12.632389,19.4803859 L12.558,19.4885277 L12.558,19.4375 C12.582645,19.4519971 12.6074413,19.4662924 12.632389,19.4803859 Z M12.558,19.4885277 L12.632389,19.4803859 C12.9659582,19.6688276 13.3265754,19.8211976 13.71425,19.9375 C14.1309187,20.0625006 14.5684144,20.125 15.02675,20.125 C14.2975797,19.6458309 13.7090439,19.0052123 13.261125,18.203125 C12.8132061,17.4010377 12.58925,16.5312547 12.58925,15.59375 C12.58925,15.0937475 12.6517494,14.6093773 12.77675,14.140625 C12.9017506,13.6718727 13.0892487,13.2395853 13.33925,12.84375 C14.00592,13.6562541 14.7559125,14.4010383 15.58925,15.078125 C16.4225875,15.7552117 17.3184119,16.3437475 18.27675,16.84375 C19.2350881,17.3437525 20.2454947,17.7395819 21.308,18.03125 C22.3705053,18.3229181 23.4746609,18.4999997 24.6205,18.5625 C24.5579997,18.3541656 24.5163334,18.1458344 24.4955,17.9375 C24.4746666,17.7291656 24.46425,17.5208344 24.46425,17.3125 C24.46425,15.7916591 25.000703,14.5000053 26.073625,13.4375 C27.146547,12.3749947 28.4329925,11.84375 29.933,11.84375 C30.7246706,11.84375 31.4642466,11.9947902 32.15175,12.296875 C32.8392534,12.5989598 33.4329975,13.0208306 33.933,13.5625 C34.5580031,13.4374994 35.1621637,13.2604178 35.7455,13.03125 C36.3288362,12.8020822 36.8809141,12.5312516 37.40175,12.21875 C37.1934156,12.8645866 36.8809187,13.4479141 36.46425,13.96875 C36.0475812,14.4895859 35.5580028,14.916665 34.9955,15.25 C35.5580028,15.1874997 36.0996641,15.0833341 36.6205,14.9375 C37.1413359,14.7916659 37.6517475,14.6145844 38.15175,14.40625 C37.7767481,14.9479194 37.3600856,15.4583309 36.90175,15.9375 C36.4434144,16.4166691 35.9434194,16.8437481 35.40175,17.21875 C35.4225834,17.3437506 35.433,17.4635411 35.433,17.578125 L35.433,17.9375 C35.433,19.7500091 35.0944617,21.5781158 34.417375,23.421875 C33.7402883,25.2656342 32.7402983,26.9322842 31.417375,28.421875 C30.0944517,29.9114658 28.4642597,31.1302036 26.52675,32.078125 C24.5892403,33.0260464 22.3705125,33.5 19.8705,33.5 C18.3288256,33.5 16.8444655,33.2864605 15.417375,32.859375 C13.9902845,32.4322895 12.6725894,31.8229206 11.46425,31.03125 C11.6934178,31.0729169 11.9121656,31.0989583 12.1205,31.109375 C12.3288344,31.1197917 12.5475822,31.125 12.77675,31.125 C14.0684231,31.125 15.2923692,30.9166687 16.448625,30.5 C17.6048808,30.0833313 18.6517453,29.5104203 19.58925,28.78125 C18.3809106,28.7604166 17.313213,28.3906286 16.386125,27.671875 C15.459037,26.9531214 14.8184184,26.0520888 14.46425,24.96875 C14.6309175,25.0104169 14.7975825,25.0364583 14.96425,25.046875 C15.1309175,25.0572917 15.3079991,25.0625 15.4955,25.0625 C15.7455012,25.0625 15.9902905,25.0468752 16.229875,25.015625 C16.4694595,24.9843748 16.7038322,24.9375003 16.933,24.875 C15.6829937,24.6249987 14.6413375,24.000005 13.808,23 C12.9746625,21.999995 12.558,20.8437566 12.558,19.53125 L12.558,19.4885277 Z" id="" fill="#FFFFFF"></path>
            </g>
        </g>
    </g>
</svg>