
<svg width="48px" height="48px" viewBox="0 0 48 48" version="1.1" xmlns="http://www.w3.org/2000/svg" xmlns:xlink="http://www.w3.org/1999/xlink">
    <!-- Generator: Sketch 43.2 (39069) - http://www.bohemiancoding.com/sketch -->
    <desc>Created with Sketch.</desc>
    <defs></defs>
    <g id="Page-1" stroke="none" stroke-width="1" fill="none" fill-rule="evenodd">
        <g id="socialsetA-Copy" transform="translate(-56.000000, 0.000000)">
            <g id="socialsetA_fb" transform="translate(56.000000, 0.000000)">
                <rect id="Rectangle-3" fill="#FFFFFF" x="0" y="0" width="48" height="48"></rect>
                <path d="M14.09375,18.640625 L20.28125,18.640625 L20.28125,12.921875 L20.4921875,10.71875 C20.6328132,9.24999266 21.406243,7.81250703 22.8125,6.40625 C24.2500072,4.96874281 25.9453027,4.19531305 27.8984375,4.0859375 C29.8515723,3.97656195 32.1874864,4.04687375 34.90625,4.296875 L34.90625,10.671875 L30.875,10.671875 L29.9375,10.765625 C29.3124969,10.8281253 28.796877,11.0781228 28.390625,11.515625 C28.0156231,11.9843773 27.8046877,12.4843723 27.7578125,13.015625 C27.7109373,13.5468777 27.6875,13.8906242 27.6875,14.046875 L27.6875,18.640625 L34.671875,18.640625 L33.78125,25.71875 L27.640625,25.71875 L27.640625,44 L20.28125,44 L20.28125,25.71875 L14.09375,25.71875 L14.09375,18.640625 Z" id="" fill="#3865BF"></path>
            </g>
        </g>
    </g>
</svg>