
<svg width="48px" height="48px" viewBox="0 0 48 48" version="1.1" xmlns="http://www.w3.org/2000/svg" xmlns:xlink="http://www.w3.org/1999/xlink">
    <!-- Generator: Sketch 43.2 (39069) - http://www.bohemiancoding.com/sketch -->
    <desc>Created with Sketch.</desc>
    <defs>
        <radialGradient cx="0%" cy="100%" fx="0%" fy="100%" r="135.753341%" id="radialGradient-1">
            <stop stop-color="#FFB14F" offset="0%"></stop>
            <stop stop-color="#F57545" offset="28.1277261%"></stop>
            <stop stop-color="#F23186" offset="53.9901839%"></stop>
            <stop stop-color="#9841B1" offset="83.3729805%"></stop>
            <stop stop-color="#DF30A6" offset="100%"></stop>
        </radialGradient>
    </defs>
    <g id="Page-1" stroke="none" stroke-width="1" fill="none" fill-rule="evenodd">
        <g id="socialsetA-Copy-2" transform="translate(-112.000000, -1.000000)">
            <g id="socialsetA_is" transform="translate(112.000000, 1.000000)">
                <rect id="Rectangle-3" fill="#FFFFFF" x="0" y="0" width="48" height="48"></rect>
                <path d="M15.7540256,4.12035543 C17.8872382,4.02302314 18.5683261,4 24.0000397,4 C29.4316739,4 30.1127618,4.02302314 32.2459744,4.12035543 C34.3747412,4.21744955 35.8286126,4.5555721 37.10076,5.05001379 C38.4159368,5.56104803 39.5312886,6.24491457 40.6432267,7.35677327 C41.7550854,8.46871136 42.438952,9.58406323 42.9500656,10.89924 C43.4444279,12.1713874 43.7825504,13.6252588 43.8796446,15.7540256 C43.9769769,17.8872382 44,18.5683261 44,24.0000397 C44,29.4316739 43.9769769,30.1127618 43.8796446,32.2459744 C43.7825504,34.3747412 43.4444279,35.8286126 42.9500656,37.10076 C42.438952,38.4159368 41.7550854,39.5312886 40.6432267,40.6432267 C39.5312886,41.7550854 38.4159368,42.438952 37.10076,42.9500656 C35.8286126,43.4444279 34.3747412,43.7825504 32.2459744,43.8796446 C30.1127618,43.9769769 29.4316739,44 24.0000397,44 C18.5683261,44 17.8872382,43.9769769 15.7540256,43.8796446 C13.6252588,43.7825504 12.1713874,43.4444279 10.89924,42.9500656 C9.58406323,42.438952 8.46871136,41.7550854 7.35677327,40.6432267 C6.24491457,39.5312886 5.56104803,38.4159368 5.05001379,37.10076 C4.5555721,35.8286126 4.21744955,34.3747412 4.12035543,32.2459744 C4.02302314,30.1127618 4,29.4316739 4,24.0000397 C4,18.5683261 4.02302314,17.8872382 4.12035543,15.7540256 C4.21744955,13.6252588 4.5555721,12.1713874 5.05001379,10.89924 C5.56104803,9.58406323 6.24491457,8.46871136 7.35677327,7.35677327 C8.46871136,6.24491457 9.58406323,5.56104803 10.89924,5.05001379 C12.1713874,4.5555721 13.6252588,4.21744955 15.7540256,4.12035543 Z M32.4781191,8.11662409 C30.3691998,8.02040326 29.7366193,8 24.3964425,8 C19.0561864,8 18.4236059,8.02040326 16.3146866,8.11662409 C14.3647063,8.20554103 13.3057214,8.53135811 12.6009753,8.80525404 C11.6674268,9.16806691 11.0011849,9.6014576 10.3013609,10.3013609 C9.6014576,11.0011849 9.16806691,11.6674268 8.80525404,12.6009753 C8.53135811,13.3057214 8.20554103,14.3647063 8.11662409,16.3146866 C8.02040326,18.4236059 8,19.0561864 8,24.3964425 C8,29.7366193 8.02040326,30.3691998 8.11662409,32.4781191 C8.20554103,34.4280993 8.53135811,35.4870842 8.80525404,36.1918304 C9.16806691,37.1253788 9.60153699,37.7916208 10.3013609,38.4914447 C11.0011849,39.1913481 11.6674268,39.6247388 12.6009753,39.9875516 C13.3057214,40.2614476 14.3647063,40.5872646 16.3146866,40.6761816 C18.4233677,40.7724024 19.0557894,40.7928057 24.3964425,40.7928057 C29.7370162,40.7928057 30.3695174,40.7724024 32.4781191,40.6761816 C34.4280993,40.5872646 35.4870842,40.2614476 36.1918304,39.9875516 C37.1253788,39.6247388 37.7916208,39.1913481 38.4914447,38.4914447 C39.1913481,37.7916208 39.6247388,37.1253788 39.9875516,36.1918304 C40.2614476,35.4870842 40.5872646,34.4280993 40.6761816,32.4781191 C40.7724024,30.3691998 40.7928057,29.7366193 40.7928057,24.3964425 C40.7928057,19.0561864 40.7724024,18.4236059 40.6761816,16.3146866 C40.5872646,14.3647063 40.2614476,13.3057214 39.9875516,12.6009753 C39.6247388,11.6674268 39.1913481,11.0011849 38.4914447,10.3013609 C37.7916208,9.6014576 37.1253788,9.16806691 36.1918304,8.80525404 C35.4870842,8.53135811 34.4280993,8.20554103 32.4781191,8.11662409 Z M14,24.2703035 C14,18.5981173 18.5981173,14 24.2703035,14 C29.9424104,14 34.5405277,18.5981173 34.5405277,24.2703035 C34.5405277,29.9424104 29.9424104,34.5405277 24.2703035,34.5405277 C18.5981173,34.5405277 14,29.9424104 14,24.2703035 Z M18,24.6667064 C18,28.3485822 20.9847511,31.3333333 24.6667064,31.3333333 C28.3485822,31.3333333 31.3333333,28.3485822 31.3333333,24.6667064 C31.3333333,20.9847511 28.3485822,18 24.6667064,18 C20.9847511,18 18,20.9847511 18,24.6667064 Z M35.3999635,15.8000064 C34.0745453,15.8000064 33,14.7255404 33,13.4000429 C33,12.0745453 34.0745453,11 35.3999635,11 C36.725461,11 37.8000064,12.0745453 37.8000064,13.4000429 C37.8000064,14.7255404 36.725461,15.8000064 35.3999635,15.8000064 Z" id="Instagram-Copy" fill="url(#radialGradient-1)"></path>
            </g>
        </g>
    </g>
</svg>