
<svg width="48px" height="48px" viewBox="0 0 48 48" version="1.1" xmlns="http://www.w3.org/2000/svg" xmlns:xlink="http://www.w3.org/1999/xlink">
    <!-- Generator: Sketch 43.2 (39069) - http://www.bohemiancoding.com/sketch -->
    <desc>Created with Sketch.</desc>
    <defs></defs>
    <g id="Page-1" stroke="none" stroke-width="1" fill="none" fill-rule="evenodd">
        <g id="socialsetA-Copy">
            <g id="socialsetA_tw">
                <rect id="Rectangle-3" fill="#FFFFFF" x="0" y="0" width="48" height="48"></rect>
                <path d="M6.23658344,19.2205789 L6.125,19.2327916 L6.125,19.15625 C6.16196754,19.1779956 6.19916202,19.1994386 6.23658344,19.2205789 Z M6.125,19.2327916 L6.23658344,19.2205789 C6.73693724,19.5032414 7.2778631,19.7317964 7.859375,19.90625 C8.48437812,20.0937509 9.14062156,20.1875 9.828125,20.1875 C8.73436953,19.4687464 7.85156586,18.5078185 7.1796875,17.3046875 C6.50780914,16.1015565 6.171875,14.796882 6.171875,13.390625 C6.171875,12.6406213 6.26562406,11.914066 6.453125,11.2109375 C6.64062594,10.507809 6.92187312,9.85937797 7.296875,9.265625 C8.29688,10.4843811 9.42186875,11.6015574 10.671875,12.6171875 C11.9218813,13.6328176 13.2656178,14.5156212 14.703125,15.265625 C16.1406322,16.0156288 17.656242,16.6093728 19.25,17.046875 C20.843758,17.4843772 22.4999914,17.7499995 24.21875,17.84375 C24.1249995,17.5312484 24.0625002,17.2187516 24.03125,16.90625 C23.9999998,16.5937484 23.984375,16.2812516 23.984375,15.96875 C23.984375,13.6874886 24.7890545,11.750008 26.3984375,10.15625 C28.0078205,8.56249203 29.9374887,7.765625 32.1875,7.765625 C33.3750059,7.765625 34.4843698,7.99218523 35.515625,8.4453125 C36.5468802,8.89843977 37.4374962,9.53124594 38.1875,10.34375 C39.1250047,10.1562491 40.0312456,9.89062672 40.90625,9.546875 C41.7812544,9.20312328 42.6093711,8.79687734 43.390625,8.328125 C43.0781234,9.29687984 42.6093781,10.1718711 41.984375,10.953125 C41.3593719,11.7343789 40.6250042,12.3749975 39.78125,12.875 C40.6250042,12.7812495 41.4374961,12.6250011 42.21875,12.40625 C43.0000039,12.1874989 43.7656212,11.9218766 44.515625,11.609375 C43.9531222,12.4218791 43.3281284,13.1874964 42.640625,13.90625 C41.9531216,14.6250036 41.2031291,15.2656222 40.390625,15.828125 C40.4218752,16.0156259 40.4375,16.1953116 40.4375,16.3671875 L40.4375,16.90625 C40.4375,19.6250136 39.9296926,22.3671737 38.9140625,25.1328125 C37.8984324,27.8984513 36.3984474,30.3984263 34.4140625,32.6328125 C32.4296776,34.8671987 29.9843895,36.6953054 27.078125,38.1171875 C24.1718605,39.5390696 20.8437687,40.25 17.09375,40.25 C14.7812384,40.25 12.5546982,39.9296907 10.4140625,39.2890625 C8.2734268,38.6484343 6.29688406,37.7343809 4.484375,36.546875 C4.82812672,36.6093753 5.15624844,36.6484374 5.46875,36.6640625 C5.78125156,36.6796876 6.10937328,36.6875 6.453125,36.6875 C8.39063469,36.6875 10.2265538,36.3750031 11.9609375,35.75 C13.6953212,35.1249969 15.265618,34.2656305 16.671875,33.171875 C14.8593659,33.1406248 13.2578195,32.5859429 11.8671875,31.5078125 C10.4765555,30.4296821 9.51562766,29.0781331 8.984375,27.453125 C9.23437625,27.5156253 9.48437375,27.5546874 9.734375,27.5703125 C9.98437625,27.5859376 10.2499986,27.59375 10.53125,27.59375 C10.9062519,27.59375 11.2734357,27.5703127 11.6328125,27.5234375 C11.9921893,27.4765623 12.3437483,27.4062505 12.6875,27.3125 C10.8124906,26.9374981 9.25000625,26.0000075 8,24.5 C6.74999375,22.9999925 6.125,21.2656348 6.125,19.296875 L6.125,19.2327916 Z" id="" fill="#4EA0F5"></path>
            </g>
        </g>
    </g>
</svg>